%TF.GenerationSoftware,KiCad,Pcbnew,10.0.6*%
%TF.CreationDate,2026-10-07T03:30:44-07:00*%
%TF.ProjectId,ee372b-ldo-testbench,65653337-3262-42d6-9c64-6f2d74657374,rev?*%
%TF.SameCoordinates,Original*%
%TF.FileFunction,Copper,L1,Top*%
%TF.FilePolarity,Positive*%
%FSLAX46Y46*%
G04 Gerber Fmt 4.6, Leading zero omitted, Abs format (unit mm)*
G04 Created by KiCad (PCBNEW 10.0.6) date 2026-10-07 03:30:44*
%MOMM*%
%LPD*%
G01*
G04 APERTURE LIST*
G04 Aperture macros list*
%AMRoundRect*
0 Rectangle with rounded corners*
0 $1 Rounding radius*
0 $2 $3 $4 $5 $6 $7 $8 $9 X,Y pos of 4 corners*
0 Add a 4 corners polygon primitive as box body*
4,1,4,$2,$3,$4,$5,$6,$7,$8,$9,$2,$3,0*
0 Add four circle primitives for the rounded corners*
1,1,$1+$1,$2,$3*
1,1,$1+$1,$4,$5*
1,1,$1+$1,$6,$7*
1,1,$1+$1,$8,$9*
0 Add four rect primitives between the rounded corners*
20,1,$1+$1,$2,$3,$4,$5,0*
20,1,$1+$1,$4,$5,$6,$7,0*
20,1,$1+$1,$6,$7,$8,$9,0*
20,1,$1+$1,$8,$9,$2,$3,0*%
%AMRotRect*
0 Rectangle, with rotation*
0 The origin of the aperture is its center*
0 $1 length*
0 $2 width*
0 $3 Rotation angle, in degrees counterclockwise*
0 Add horizontal line*
21,1,$1,$2,0,0,$3*%
%AMFreePoly0*
4,1,37,0.800000,0.796148,0.878414,0.796148,1.032228,0.765552,1.177117,0.705537,1.307515,0.618408,1.418408,0.507515,1.505537,0.377117,1.565552,0.232228,1.596148,0.078414,1.596148,-0.078414,1.565552,-0.232228,1.505537,-0.377117,1.418408,-0.507515,1.307515,-0.618408,1.177117,-0.705537,1.032228,-0.765552,0.878414,-0.796148,0.800000,-0.796148,0.800000,-0.800000,-1.400000,-0.800000,
-1.403843,-0.796157,-1.439018,-0.796157,-1.511114,-0.766294,-1.566294,-0.711114,-1.596157,-0.639018,-1.596157,-0.603843,-1.600000,-0.600000,-1.600000,0.600000,-1.596157,0.603843,-1.596157,0.639018,-1.566294,0.711114,-1.511114,0.766294,-1.439018,0.796157,-1.403843,0.796157,-1.400000,0.800000,0.800000,0.800000,0.800000,0.796148,0.800000,0.796148,$1*%
%AMFreePoly1*
4,1,37,1.403843,0.796157,1.439018,0.796157,1.511114,0.766294,1.566294,0.711114,1.596157,0.639018,1.596157,0.603843,1.600000,0.600000,1.600000,-0.600000,1.596157,-0.603843,1.596157,-0.639018,1.566294,-0.711114,1.511114,-0.766294,1.439018,-0.796157,1.403843,-0.796157,1.400000,-0.800000,-0.800000,-0.800000,-0.800000,-0.796148,-0.878414,-0.796148,-1.032228,-0.765552,-1.177117,-0.705537,
-1.307515,-0.618408,-1.418408,-0.507515,-1.505537,-0.377117,-1.565552,-0.232228,-1.596148,-0.078414,-1.596148,0.078414,-1.565552,0.232228,-1.505537,0.377117,-1.418408,0.507515,-1.307515,0.618408,-1.177117,0.705537,-1.032228,0.765552,-0.878414,0.796148,-0.800000,0.796148,-0.800000,0.800000,1.400000,0.800000,1.403843,0.796157,1.403843,0.796157,$1*%
%AMFreePoly2*
4,1,37,0.603843,0.796157,0.639018,0.796157,0.711114,0.766294,0.766294,0.711114,0.796157,0.639018,0.796157,0.603843,0.800000,0.600000,0.800000,-0.600000,0.796157,-0.603843,0.796157,-0.639018,0.766294,-0.711114,0.711114,-0.766294,0.639018,-0.796157,0.603843,-0.796157,0.600000,-0.800000,0.000000,-0.800000,0.000000,-0.796148,-0.078414,-0.796148,-0.232228,-0.765552,-0.377117,-0.705537,
-0.507515,-0.618408,-0.618408,-0.507515,-0.705537,-0.377117,-0.765552,-0.232228,-0.796148,-0.078414,-0.796148,0.078414,-0.765552,0.232228,-0.705537,0.377117,-0.618408,0.507515,-0.507515,0.618408,-0.377117,0.705537,-0.232228,0.765552,-0.078414,0.796148,0.000000,0.796148,0.000000,0.800000,0.600000,0.800000,0.603843,0.796157,0.603843,0.796157,$1*%
%AMFreePoly3*
4,1,37,0.000000,0.796148,0.078414,0.796148,0.232228,0.765552,0.377117,0.705537,0.507515,0.618408,0.618408,0.507515,0.705537,0.377117,0.765552,0.232228,0.796148,0.078414,0.796148,-0.078414,0.765552,-0.232228,0.705537,-0.377117,0.618408,-0.507515,0.507515,-0.618408,0.377117,-0.705537,0.232228,-0.765552,0.078414,-0.796148,0.000000,-0.796148,0.000000,-0.800000,-0.600000,-0.800000,
-0.603843,-0.796157,-0.639018,-0.796157,-0.711114,-0.766294,-0.766294,-0.711114,-0.796157,-0.639018,-0.796157,-0.603843,-0.800000,-0.600000,-0.800000,0.600000,-0.796157,0.603843,-0.796157,0.639018,-0.766294,0.711114,-0.711114,0.766294,-0.639018,0.796157,-0.603843,0.796157,-0.600000,0.800000,0.000000,0.800000,0.000000,0.796148,0.000000,0.796148,$1*%
G04 Aperture macros list end*
%TA.AperFunction,ComponentPad*%
%ADD10C,2.400000*%
%TD*%
%TA.AperFunction,SMDPad,CuDef*%
%ADD11RoundRect,0.250000X-0.337500X-0.475000X0.337500X-0.475000X0.337500X0.475000X-0.337500X0.475000X0*%
%TD*%
%TA.AperFunction,SMDPad,CuDef*%
%ADD12RoundRect,0.250000X0.350000X0.450000X-0.350000X0.450000X-0.350000X-0.450000X0.350000X-0.450000X0*%
%TD*%
%TA.AperFunction,SMDPad,CuDef*%
%ADD13RoundRect,0.250000X0.337500X0.475000X-0.337500X0.475000X-0.337500X-0.475000X0.337500X-0.475000X0*%
%TD*%
%TA.AperFunction,SMDPad,CuDef*%
%ADD14R,4.700000X3.430000*%
%TD*%
%TA.AperFunction,SMDPad,CuDef*%
%ADD15RoundRect,0.250000X-0.450000X0.350000X-0.450000X-0.350000X0.450000X-0.350000X0.450000X0.350000X0*%
%TD*%
%TA.AperFunction,ComponentPad*%
%ADD16C,1.524000*%
%TD*%
%TA.AperFunction,SMDPad,CuDef*%
%ADD17RoundRect,0.250000X-0.350000X-0.450000X0.350000X-0.450000X0.350000X0.450000X-0.350000X0.450000X0*%
%TD*%
%TA.AperFunction,SMDPad,CuDef*%
%ADD18RoundRect,0.250000X0.450000X-0.350000X0.450000X0.350000X-0.450000X0.350000X-0.450000X-0.350000X0*%
%TD*%
%TA.AperFunction,SMDPad,CuDef*%
%ADD19RoundRect,0.250000X-0.475000X0.337500X-0.475000X-0.337500X0.475000X-0.337500X0.475000X0.337500X0*%
%TD*%
%TA.AperFunction,SMDPad,CuDef*%
%ADD20RotRect,4.700000X3.430000X45.000000*%
%TD*%
%TA.AperFunction,SMDPad,CuDef*%
%ADD21FreePoly0,270.000000*%
%TD*%
%TA.AperFunction,ComponentPad*%
%ADD22RoundRect,0.200000X-0.600000X0.600000X-0.600000X-0.600000X0.600000X-0.600000X0.600000X0.600000X0*%
%TD*%
%TA.AperFunction,SMDPad,CuDef*%
%ADD23RoundRect,0.800000X-0.000010X0.800000X-0.000010X-0.800000X0.000010X-0.800000X0.000010X0.800000X0*%
%TD*%
%TA.AperFunction,ComponentPad*%
%ADD24C,1.600000*%
%TD*%
%TA.AperFunction,SMDPad,CuDef*%
%ADD25FreePoly1,270.000000*%
%TD*%
%TA.AperFunction,ComponentPad*%
%ADD26FreePoly2,270.000000*%
%TD*%
%TA.AperFunction,ComponentPad*%
%ADD27FreePoly3,270.000000*%
%TD*%
%TA.AperFunction,ComponentPad*%
%ADD28C,2.550000*%
%TD*%
%TA.AperFunction,SMDPad,CuDef*%
%ADD29RoundRect,0.250000X0.070711X-0.565685X0.565685X-0.070711X-0.070711X0.565685X-0.565685X0.070711X0*%
%TD*%
%TA.AperFunction,SMDPad,CuDef*%
%ADD30RoundRect,0.249999X-0.450001X-1.425001X0.450001X-1.425001X0.450001X1.425001X-0.450001X1.425001X0*%
%TD*%
%TA.AperFunction,SMDPad,CuDef*%
%ADD31RoundRect,0.250000X0.565685X0.070711X0.070711X0.565685X-0.565685X-0.070711X-0.070711X-0.565685X0*%
%TD*%
%TA.AperFunction,SMDPad,CuDef*%
%ADD32RotRect,4.700000X3.430000X135.000000*%
%TD*%
%TA.AperFunction,SMDPad,CuDef*%
%ADD33RoundRect,0.250000X0.574524X0.097227X0.097227X0.574524X-0.574524X-0.097227X-0.097227X-0.574524X0*%
%TD*%
%TA.AperFunction,SMDPad,CuDef*%
%ADD34RoundRect,0.075000X0.225000X-0.540000X0.225000X0.540000X-0.225000X0.540000X-0.225000X-0.540000X0*%
%TD*%
%TA.AperFunction,SMDPad,CuDef*%
%ADD35RoundRect,0.250000X-0.070711X0.565685X-0.565685X0.070711X0.070711X-0.565685X0.565685X-0.070711X0*%
%TD*%
%TA.AperFunction,SMDPad,CuDef*%
%ADD36RoundRect,0.250000X0.259922X-0.507386X0.555755X0.127030X-0.259922X0.507386X-0.555755X-0.127030X0*%
%TD*%
%TA.AperFunction,SMDPad,CuDef*%
%ADD37RoundRect,0.249999X-1.010071X-1.101311X-0.194392X-1.481668X1.010071X1.101311X0.194392X1.481668X0*%
%TD*%
%TA.AperFunction,SMDPad,CuDef*%
%ADD38R,0.355600X1.676400*%
%TD*%
%TA.AperFunction,SMDPad,CuDef*%
%ADD39RotRect,1.219200X0.762000X45.000000*%
%TD*%
%TA.AperFunction,SMDPad,CuDef*%
%ADD40RoundRect,0.075000X-0.910000X-0.225000X0.910000X-0.225000X0.910000X0.225000X-0.910000X0.225000X0*%
%TD*%
%TA.AperFunction,SMDPad,CuDef*%
%ADD41O,0.800000X0.350000*%
%TD*%
%TA.AperFunction,SMDPad,CuDef*%
%ADD42O,0.350000X0.800000*%
%TD*%
%TA.AperFunction,HeatsinkPad*%
%ADD43C,0.637500*%
%TD*%
%TA.AperFunction,SMDPad,CuDef*%
%ADD44R,5.100000X5.100000*%
%TD*%
%TA.AperFunction,SMDPad,CuDef*%
%ADD45RoundRect,0.250000X-0.565685X-0.070711X-0.070711X-0.565685X0.565685X0.070711X0.070711X0.565685X0*%
%TD*%
%TA.AperFunction,ComponentPad*%
%ADD46C,1.200000*%
%TD*%
%TA.AperFunction,ComponentPad*%
%ADD47R,1.200000X1.200000*%
%TD*%
%TA.AperFunction,ViaPad*%
%ADD48C,1.016000*%
%TD*%
%TA.AperFunction,ViaPad*%
%ADD49C,0.609600*%
%TD*%
%TA.AperFunction,ViaPad*%
%ADD50C,0.500000*%
%TD*%
%TA.AperFunction,ViaPad*%
%ADD51C,0.600000*%
%TD*%
%TA.AperFunction,ViaPad*%
%ADD52C,0.508000*%
%TD*%
%TA.AperFunction,ViaPad*%
%ADD53C,0.584200*%
%TD*%
%TA.AperFunction,Conductor*%
%ADD54C,0.762000*%
%TD*%
%TA.AperFunction,Conductor*%
%ADD55C,0.254000*%
%TD*%
%TA.AperFunction,Conductor*%
%ADD56C,0.609600*%
%TD*%
%TA.AperFunction,Conductor*%
%ADD57C,0.304800*%
%TD*%
%TA.AperFunction,Conductor*%
%ADD58C,0.228600*%
%TD*%
%TA.AperFunction,Conductor*%
%ADD59C,0.200000*%
%TD*%
%TA.AperFunction,Conductor*%
%ADD60C,1.270000*%
%TD*%
%TA.AperFunction,Conductor*%
%ADD61C,0.457200*%
%TD*%
%TA.AperFunction,Conductor*%
%ADD62C,1.778000*%
%TD*%
%TA.AperFunction,Conductor*%
%ADD63C,1.016000*%
%TD*%
G04 APERTURE END LIST*
D10*
%TO.P,J10,1*%
%TO.N,/VOUT*%
X235400000Y-29400000D03*
%TO.P,J10,G1*%
%TO.N,GND*%
X232860000Y-26860000D03*
%TO.P,J10,G2*%
X237940000Y-26860000D03*
%TO.P,J10,G3*%
X232860000Y-31940000D03*
%TO.P,J10,G4*%
X237940000Y-31940000D03*
%TD*%
D11*
%TO.P,C6,1*%
%TO.N,GND*%
X193225000Y-46900000D03*
%TO.P,C6,2*%
%TO.N,Net-(C10-Pad2)*%
X195300000Y-46900000D03*
%TD*%
D12*
%TO.P,R43,1*%
%TO.N,GND*%
X236700000Y-50000000D03*
%TO.P,R43,2*%
%TO.N,Net-(C21-Pad2)*%
X234700000Y-50000000D03*
%TD*%
D11*
%TO.P,C2,1*%
%TO.N,/3V3*%
X228937949Y-76100000D03*
%TO.P,C2,2*%
%TO.N,GND*%
X231012949Y-76100000D03*
%TD*%
D13*
%TO.P,C15,1*%
%TO.N,/AIN2_ADC*%
X224175449Y-63350000D03*
%TO.P,C15,2*%
%TO.N,GND*%
X222100449Y-63350000D03*
%TD*%
D11*
%TO.P,C8,1*%
%TO.N,/3V3*%
X228937949Y-78150000D03*
%TO.P,C8,2*%
%TO.N,GND*%
X231012949Y-78150000D03*
%TD*%
D14*
%TO.P,TP7,1,1_1*%
%TO.N,Net-(J4-Pin_1)*%
X155450000Y-56000000D03*
%TD*%
D15*
%TO.P,R44,1*%
%TO.N,Net-(J25-Pad3)*%
X220390000Y-78708000D03*
%TO.P,R44,2*%
%TO.N,/3V3_PICO*%
X220390000Y-80708000D03*
%TD*%
D16*
%TO.P,J21,1,1_1*%
%TO.N,/LDO_VOUT*%
X225100000Y-40000000D03*
%TO.P,J21,2,2_2*%
%TO.N,Net-(C20-Pad1)*%
X227640000Y-40000000D03*
%TD*%
D17*
%TO.P,R57,1*%
%TO.N,GND*%
X222500000Y-112900000D03*
%TO.P,R57,2*%
%TO.N,Net-(A1-GND-Pad13)*%
X224500000Y-112900000D03*
%TD*%
D18*
%TO.P,R60,1*%
%TO.N,/AIN1_SIGNAL*%
X182400000Y-43500000D03*
%TO.P,R60,2*%
%TO.N,Net-(U2-BGR_VREF)*%
X182400000Y-41500000D03*
%TD*%
D13*
%TO.P,C28,1*%
%TO.N,/3V3_EXTERNAL*%
X146850000Y-85050000D03*
%TO.P,C28,2*%
%TO.N,GND*%
X144775000Y-85050000D03*
%TD*%
D17*
%TO.P,R3,1*%
%TO.N,Net-(U3-DOUT{slash}\u002ADRDY)*%
X233075449Y-69950000D03*
%TO.P,R3,2*%
%TO.N,/pico_spi_rx*%
X235075449Y-69950000D03*
%TD*%
D11*
%TO.P,C5,1*%
%TO.N,GND*%
X193262500Y-44800000D03*
%TO.P,C5,2*%
%TO.N,Net-(C10-Pad2)*%
X195337500Y-44800000D03*
%TD*%
D19*
%TO.P,C19,1*%
%TO.N,Net-(C19-Pad1)*%
X167750000Y-60550000D03*
%TO.P,C19,2*%
%TO.N,GND*%
X167750000Y-62625000D03*
%TD*%
D20*
%TO.P,TP13,1,1_1*%
%TO.N,GND*%
X217100000Y-51300000D03*
%TD*%
D17*
%TO.P,R7,1*%
%TO.N,/AIN2_SIGNAL*%
X222162949Y-65400000D03*
%TO.P,R7,2*%
%TO.N,/AIN2_ADC*%
X224162949Y-65400000D03*
%TD*%
D21*
%TO.P,A1,1,GPIO0_1*%
%TO.N,unconnected-(A1-GPIO0-Pad1)*%
X237592500Y-87200000D03*
D22*
%TO.N,unconnected-(A1-GPIO0-Pad1)_1*%
X237592500Y-88000000D03*
D23*
%TO.P,A1,2,GPIO1_2*%
%TO.N,/pico_spi_cs*%
X235052500Y-87200000D03*
D24*
X235052500Y-88000000D03*
D25*
%TO.P,A1,3,GND_3*%
%TO.N,Net-(A1-GND-Pad13)*%
X232512500Y-87200000D03*
D26*
X232512500Y-88000000D03*
D23*
%TO.P,A1,4,GPIO2_4*%
%TO.N,/pico_spi_clk*%
X229972500Y-87200000D03*
D24*
X229972500Y-88000000D03*
D23*
%TO.P,A1,5,GPIO3_5*%
%TO.N,/pico_spi_tx*%
X227432500Y-87200000D03*
D24*
X227432500Y-88000000D03*
D23*
%TO.P,A1,6,GPIO4_6*%
%TO.N,/pico_spi_rx*%
X224892500Y-87200000D03*
D24*
X224892500Y-88000000D03*
D23*
%TO.P,A1,7,GPIO5_7*%
%TO.N,unconnected-(A1-GPIO5-Pad7)*%
X222352500Y-87200000D03*
D24*
%TO.N,unconnected-(A1-GPIO5-Pad7)_1*%
X222352500Y-88000000D03*
D25*
%TO.P,A1,8,GND_8*%
%TO.N,Net-(A1-GND-Pad13)*%
X219812500Y-87200000D03*
D26*
X219812500Y-88000000D03*
D23*
%TO.P,A1,9,GPIO6_9*%
%TO.N,/pico_irq*%
X217272500Y-87200000D03*
D24*
X217272500Y-88000000D03*
D23*
%TO.P,A1,10,GPIO7_10*%
%TO.N,unconnected-(A1-GPIO7-Pad10)_1*%
X214732500Y-87200000D03*
D24*
%TO.N,unconnected-(A1-GPIO7-Pad10)*%
X214732500Y-88000000D03*
D23*
%TO.P,A1,11,GPIO8_11*%
%TO.N,unconnected-(A1-GPIO8-Pad11)*%
X212192500Y-87200000D03*
D24*
%TO.N,unconnected-(A1-GPIO8-Pad11)_1*%
X212192500Y-88000000D03*
D23*
%TO.P,A1,12,GPIO9_12*%
%TO.N,unconnected-(A1-GPIO9-Pad12)*%
X209652500Y-87200000D03*
D24*
%TO.N,unconnected-(A1-GPIO9-Pad12)_1*%
X209652500Y-88000000D03*
D25*
%TO.P,A1,13,GND_13*%
%TO.N,Net-(A1-GND-Pad13)*%
X207112500Y-87200000D03*
D26*
X207112500Y-88000000D03*
D23*
%TO.P,A1,14,GPIO10_14*%
%TO.N,unconnected-(A1-GPIO10-Pad14)*%
X204572500Y-87200000D03*
D24*
%TO.N,unconnected-(A1-GPIO10-Pad14)_1*%
X204572500Y-88000000D03*
D23*
%TO.P,A1,15,GPIO11_15*%
%TO.N,unconnected-(A1-GPIO11-Pad15)*%
X202032500Y-87200000D03*
D24*
%TO.N,unconnected-(A1-GPIO11-Pad15)_1*%
X202032500Y-88000000D03*
D23*
%TO.P,A1,16,GPIO12_16*%
%TO.N,unconnected-(A1-GPIO12-Pad16)_1*%
X199492500Y-87200000D03*
D24*
%TO.N,unconnected-(A1-GPIO12-Pad16)*%
X199492500Y-88000000D03*
D23*
%TO.P,A1,17,GPIO13_17*%
%TO.N,unconnected-(A1-GPIO13-Pad17)*%
X196952500Y-87200000D03*
D24*
%TO.N,unconnected-(A1-GPIO13-Pad17)_1*%
X196952500Y-88000000D03*
D25*
%TO.P,A1,18,GND_18*%
%TO.N,Net-(A1-GND-Pad13)*%
X194412500Y-87200000D03*
D26*
X194412500Y-88000000D03*
D23*
%TO.P,A1,19,GPIO14_19*%
%TO.N,unconnected-(A1-GPIO14-Pad19)_1*%
X191872500Y-87200000D03*
D24*
%TO.N,unconnected-(A1-GPIO14-Pad19)*%
X191872500Y-88000000D03*
D23*
%TO.P,A1,20,GPIO15_20*%
%TO.N,unconnected-(A1-GPIO15-Pad20)_1*%
X189332500Y-87200000D03*
D24*
%TO.N,unconnected-(A1-GPIO15-Pad20)*%
X189332500Y-88000000D03*
%TO.P,A1,21,GPIO16_21*%
%TO.N,/pico_vg0*%
X189332500Y-105780000D03*
D23*
X189332500Y-106580000D03*
D24*
%TO.P,A1,22,GPIO17_22*%
%TO.N,/pico_vg1*%
X191872500Y-105780000D03*
D23*
X191872500Y-106580000D03*
D27*
%TO.P,A1,23,GND_23*%
%TO.N,Net-(A1-GND-Pad13)*%
X194412500Y-105780000D03*
D21*
X194412500Y-106580000D03*
D24*
%TO.P,A1,24,GPIO18_24*%
%TO.N,/pico_vg2*%
X196952500Y-105780000D03*
D23*
X196952500Y-106580000D03*
D24*
%TO.P,A1,25,GPIO19_25*%
%TO.N,/pico_vg3*%
X199492500Y-105780000D03*
D23*
X199492500Y-106580000D03*
D24*
%TO.P,A1,26,GPIO20_26*%
%TO.N,/pico_vg4*%
X202032500Y-105780000D03*
D23*
X202032500Y-106580000D03*
D24*
%TO.P,A1,27,GPIO21_27*%
%TO.N,unconnected-(A1-GPIO21-Pad27)_1*%
X204572500Y-105780000D03*
D23*
%TO.N,unconnected-(A1-GPIO21-Pad27)*%
X204572500Y-106580000D03*
D27*
%TO.P,A1,28,GND_28*%
%TO.N,Net-(A1-GND-Pad13)*%
X207112500Y-105780000D03*
D21*
X207112500Y-106580000D03*
D24*
%TO.P,A1,29,GPIO22_29*%
%TO.N,unconnected-(A1-GPIO22-Pad29)_1*%
X209652500Y-105780000D03*
D23*
%TO.N,unconnected-(A1-GPIO22-Pad29)*%
X209652500Y-106580000D03*
D24*
%TO.P,A1,30,RUN_30*%
%TO.N,unconnected-(A1-RUN-Pad30)*%
X212192500Y-105780000D03*
D23*
%TO.N,unconnected-(A1-RUN-Pad30)_1*%
X212192500Y-106580000D03*
D24*
%TO.P,A1,31,GPIO26_ADC0_31*%
%TO.N,unconnected-(A1-GPIO26_ADC0-Pad31)*%
X214732500Y-105780000D03*
D23*
%TO.N,unconnected-(A1-GPIO26_ADC0-Pad31)_1*%
X214732500Y-106580000D03*
D24*
%TO.P,A1,32,GPIO27_ADC1_32*%
%TO.N,unconnected-(A1-GPIO27_ADC1-Pad32)*%
X217272500Y-105780000D03*
D23*
%TO.N,unconnected-(A1-GPIO27_ADC1-Pad32)_1*%
X217272500Y-106580000D03*
D27*
%TO.P,A1,33,AGND_33*%
%TO.N,unconnected-(A1-AGND-Pad33)*%
X219812500Y-105780000D03*
D21*
%TO.N,unconnected-(A1-AGND-Pad33)_1*%
X219812500Y-106580000D03*
D24*
%TO.P,A1,34,GPIO28_ADC2_34*%
%TO.N,unconnected-(A1-GPIO28_ADC2-Pad34)*%
X222352500Y-105780000D03*
D23*
%TO.N,unconnected-(A1-GPIO28_ADC2-Pad34)_1*%
X222352500Y-106580000D03*
D24*
%TO.P,A1,35,ADC_VREF_35*%
%TO.N,unconnected-(A1-ADC_VREF-Pad35)_1*%
X224892500Y-105780000D03*
D23*
%TO.N,unconnected-(A1-ADC_VREF-Pad35)*%
X224892500Y-106580000D03*
D24*
%TO.P,A1,36,3V3_36*%
%TO.N,/3V3_PICO*%
X227432500Y-105780000D03*
D23*
X227432500Y-106580000D03*
D24*
%TO.P,A1,37,3V3_EN_37*%
%TO.N,unconnected-(A1-3V3_EN-Pad37)*%
X229972500Y-105780000D03*
D23*
%TO.N,unconnected-(A1-3V3_EN-Pad37)_1*%
X229972500Y-106580000D03*
D27*
%TO.P,A1,38,GND_38*%
%TO.N,Net-(A1-GND-Pad13)*%
X232512500Y-105780000D03*
D21*
X232512500Y-106580000D03*
D24*
%TO.P,A1,39,VSYS_39*%
%TO.N,unconnected-(A1-VSYS-Pad39)*%
X235052500Y-105780000D03*
D23*
%TO.N,unconnected-(A1-VSYS-Pad39)_1*%
X235052500Y-106580000D03*
D24*
%TO.P,A1,40,VBUS_40*%
%TO.N,unconnected-(A1-VBUS-Pad40)*%
X237592500Y-105780000D03*
D23*
%TO.N,unconnected-(A1-VBUS-Pad40)_1*%
X237592500Y-106580000D03*
%TD*%
D14*
%TO.P,TP15,1,1_1*%
%TO.N,GND*%
X227400000Y-24200000D03*
%TD*%
D13*
%TO.P,C30,1*%
%TO.N,GND*%
X207537500Y-39700000D03*
%TO.P,C30,2*%
%TO.N,Net-(C10-Pad2)*%
X205462500Y-39700000D03*
%TD*%
D28*
%TO.P,J6,1,Pin_1_1*%
%TO.N,GND*%
X221340000Y-24540000D03*
X221340000Y-19460000D03*
X216260000Y-24540000D03*
X216260000Y-19460000D03*
%TD*%
D16*
%TO.P,J19,1,1_1*%
%TO.N,/3V3*%
X165200000Y-112400000D03*
%TO.P,J19,2,2_2*%
%TO.N,/VG4*%
X165200000Y-109860000D03*
%TO.P,J19,3,3_3*%
%TO.N,/pico_vg4*%
X165200000Y-107320000D03*
%TD*%
D15*
%TO.P,R18,1*%
%TO.N,/VARIABLE_LOAD*%
X179600000Y-60140000D03*
%TO.P,R18,2*%
%TO.N,/VD2*%
X179600000Y-62140000D03*
%TD*%
D11*
%TO.P,C21,1*%
%TO.N,Net-(C21-Pad1)*%
X227762500Y-47600000D03*
%TO.P,C21,2*%
%TO.N,Net-(C21-Pad2)*%
X229837500Y-47600000D03*
%TD*%
D13*
%TO.P,C3,1*%
%TO.N,Net-(A1-GND-Pad13)*%
X229550000Y-110100000D03*
%TO.P,C3,2*%
%TO.N,/3V3_PICO*%
X227475000Y-110100000D03*
%TD*%
D15*
%TO.P,R19,1*%
%TO.N,/VARIABLE_LOAD*%
X177500000Y-60090000D03*
%TO.P,R19,2*%
%TO.N,/VD3*%
X177500000Y-62090000D03*
%TD*%
D16*
%TO.P,J2,1,1_1*%
%TO.N,/c1_vin_jump*%
X171500000Y-55060000D03*
%TO.P,J2,2,2_2*%
%TO.N,Net-(C18-Pad1)*%
X171500000Y-57600000D03*
%TD*%
D29*
%TO.P,R62,1*%
%TO.N,/VSIG_BUF*%
X190592893Y-26507107D03*
%TO.P,R62,2*%
%TO.N,Net-(J15-Pad1)*%
X192007107Y-25092893D03*
%TD*%
D16*
%TO.P,J24,1,1_1*%
%TO.N,/LDO_VOUT*%
X225000000Y-55700000D03*
%TO.P,J24,2,2_2*%
%TO.N,Net-(C25-Pad1)*%
X227540000Y-55700000D03*
%TD*%
D18*
%TO.P,R64,1*%
%TO.N,/AIN0_SIGNAL*%
X209300000Y-70600000D03*
%TO.P,R64,2*%
%TO.N,/LDO_VOUT*%
X209300000Y-68600000D03*
%TD*%
D30*
%TO.P,R56,1*%
%TO.N,/1V8*%
X155250000Y-34450000D03*
%TO.P,R56,2*%
%TO.N,/c1_vin_jump*%
X161350000Y-34450000D03*
%TD*%
D31*
%TO.P,R49,1*%
%TO.N,Net-(R49-Pad1)*%
X210414214Y-55514214D03*
%TO.P,R49,2*%
%TO.N,Net-(U2-OTA_OUT)*%
X209000000Y-54100000D03*
%TD*%
D17*
%TO.P,R1,1*%
%TO.N,Net-(U3-\u002ACS)*%
X233075449Y-63900000D03*
%TO.P,R1,2*%
%TO.N,/pico_spi_cs*%
X235075449Y-63900000D03*
%TD*%
D28*
%TO.P,J3,1,Pin_1_1*%
%TO.N,GND*%
X147730000Y-74110000D03*
X142650000Y-74110000D03*
X147730000Y-79190000D03*
X142650000Y-79190000D03*
%TD*%
D14*
%TO.P,TP10,1,1_1*%
%TO.N,/3V3_EXTERNAL*%
X149900000Y-99600000D03*
%TD*%
D32*
%TO.P,TP9,1,1_1*%
%TO.N,GND*%
X193500000Y-73700000D03*
%TD*%
D33*
%TO.P,C29,1*%
%TO.N,GND*%
X203067246Y-50317246D03*
%TO.P,C29,2*%
%TO.N,Net-(C10-Pad2)*%
X201600000Y-48850000D03*
%TD*%
D34*
%TO.P,Q3,1*%
%TO.N,/VG2*%
X182500000Y-67200000D03*
%TO.P,Q3,2*%
%TO.N,GND*%
X184400000Y-67200000D03*
%TO.P,Q3,3*%
%TO.N,/VD2*%
X183450000Y-65080000D03*
%TD*%
D17*
%TO.P,R8,1*%
%TO.N,/AIN1_SIGNAL*%
X222212949Y-73600000D03*
%TO.P,R8,2*%
%TO.N,/AIN1_ADC*%
X224212949Y-73600000D03*
%TD*%
D14*
%TO.P,TP12,1,1_1*%
%TO.N,GND*%
X177850000Y-54200000D03*
%TD*%
%TO.P,TP14,1,1_1*%
%TO.N,GND*%
X149900000Y-104500000D03*
%TD*%
D35*
%TO.P,R14,1*%
%TO.N,/VG2*%
X181907107Y-69892893D03*
%TO.P,R14,2*%
%TO.N,GND*%
X180492893Y-71307107D03*
%TD*%
D36*
%TO.P,R50,1*%
%TO.N,/LDO_VOUT*%
X192727382Y-51006308D03*
%TO.P,R50,2*%
%TO.N,Net-(R50-Pad2)*%
X193572618Y-49193692D03*
%TD*%
D37*
%TO.P,R59,1*%
%TO.N,/LDO_VOUT*%
X198285761Y-57461014D03*
%TO.P,R59,2*%
%TO.N,/VOUT*%
X203814239Y-60038986D03*
%TD*%
D12*
%TO.P,R4,1*%
%TO.N,/pico_irq*%
X235075449Y-67950000D03*
%TO.P,R4,2*%
%TO.N,Net-(U3-\u002ADRDY)*%
X233075449Y-67950000D03*
%TD*%
D17*
%TO.P,R46,1*%
%TO.N,/AIN3_LDO_GND*%
X228250000Y-63600000D03*
%TO.P,R46,2*%
%TO.N,GND*%
X230250000Y-63600000D03*
%TD*%
D14*
%TO.P,TP6,1,1_1*%
%TO.N,GND*%
X161400000Y-51400000D03*
%TD*%
D15*
%TO.P,R16,1*%
%TO.N,/VARIABLE_LOAD*%
X181700000Y-60140000D03*
%TO.P,R16,2*%
%TO.N,/VD2*%
X181700000Y-62140000D03*
%TD*%
D11*
%TO.P,C25,1*%
%TO.N,Net-(C25-Pad1)*%
X227962500Y-58400000D03*
%TO.P,C25,2*%
%TO.N,Net-(C25-Pad2)*%
X230037500Y-58400000D03*
%TD*%
D13*
%TO.P,C1,1*%
%TO.N,/3V3*%
X227125449Y-76100000D03*
%TO.P,C1,2*%
%TO.N,GND*%
X225050449Y-76100000D03*
%TD*%
D38*
%TO.P,U3,1,SCLK_1*%
%TO.N,Net-(U3-SCLK)*%
X230575448Y-68030600D03*
%TO.P,U3,2,\u002ACS_2*%
%TO.N,Net-(U3-\u002ACS)*%
X229925450Y-68030600D03*
%TO.P,U3,3,CLK_3*%
%TO.N,GND*%
X229275448Y-68030600D03*
%TO.P,U3,4,DGND_4*%
X228625450Y-68030600D03*
%TO.P,U3,5,AVSS_5*%
X227975451Y-68030600D03*
%TO.P,U3,6,AIN3/REFN1_6*%
%TO.N,/AIN3_LDO_GND*%
X227325450Y-68030600D03*
%TO.P,U3,7,AIN2_7*%
%TO.N,/AIN2_ADC*%
X226675451Y-68030600D03*
%TO.P,U3,8,REFN0_8*%
%TO.N,unconnected-(U3-REFN0-Pad8)*%
X226025450Y-68030600D03*
%TO.P,U3,9,REFP0_9*%
%TO.N,unconnected-(U3-REFP0-Pad9)*%
X226025450Y-73669400D03*
%TO.P,U3,10,AIN1_10*%
%TO.N,/AIN1_ADC*%
X226675448Y-73669400D03*
%TO.P,U3,11,AIN0/REFP1_11*%
%TO.N,/AIN0_ADC*%
X227325450Y-73669400D03*
%TO.P,U3,12,AVDD_12*%
%TO.N,/3V3*%
X227975448Y-73669400D03*
%TO.P,U3,13,DVDD_13*%
X228625447Y-73669400D03*
%TO.P,U3,14,\u002ADRDY_14*%
%TO.N,Net-(U3-\u002ADRDY)*%
X229275448Y-73669400D03*
%TO.P,U3,15,DOUT/\u002ADRDY_15*%
%TO.N,Net-(U3-DOUT{slash}\u002ADRDY)*%
X229925447Y-73669400D03*
%TO.P,U3,16,DIN_16*%
%TO.N,Net-(U3-DIN)*%
X230575448Y-73669400D03*
%TD*%
D16*
%TO.P,J18,1,1_1*%
%TO.N,/3V3*%
X169100000Y-112340000D03*
%TO.P,J18,2,2_2*%
%TO.N,/VG3*%
X169100000Y-109800000D03*
%TO.P,J18,3,3_3*%
%TO.N,/pico_vg3*%
X169100000Y-107260000D03*
%TD*%
D39*
%TO.P,U1,1,CATHODE_1*%
%TO.N,/1V8*%
X145729212Y-27970788D03*
%TO.P,U1,2,ANODE_2*%
%TO.N,GND*%
X148100000Y-25600000D03*
%TD*%
D12*
%TO.P,R54,1*%
%TO.N,GND*%
X175150000Y-33500000D03*
%TO.P,R54,2*%
%TO.N,Net-(JP3-Pad1)*%
X173150000Y-33500000D03*
%TD*%
D33*
%TO.P,C10,1*%
%TO.N,GND*%
X207617246Y-47217246D03*
%TO.P,C10,2*%
%TO.N,Net-(C10-Pad2)*%
X206150000Y-45750000D03*
%TD*%
D11*
%TO.P,C20,1*%
%TO.N,Net-(C20-Pad1)*%
X227662500Y-42500000D03*
%TO.P,C20,2*%
%TO.N,Net-(C20-Pad2)*%
X229737500Y-42500000D03*
%TD*%
D12*
%TO.P,R55,1*%
%TO.N,/VSIG_BUF*%
X175300000Y-36200000D03*
%TO.P,R55,2*%
%TO.N,/1V8*%
X173300000Y-36200000D03*
%TD*%
D28*
%TO.P,J11,1,Pin_1_1*%
%TO.N,/VOUT*%
X206000000Y-24380000D03*
X206000000Y-19300000D03*
X200920000Y-24380000D03*
X200920000Y-19300000D03*
%TD*%
D10*
%TO.P,J13,1*%
%TO.N,/VSIG*%
X164860000Y-21760000D03*
%TO.P,J13,G1*%
%TO.N,GND*%
X162320000Y-19220000D03*
%TO.P,J13,G2*%
X167400000Y-19220000D03*
%TO.P,J13,G3*%
X162320000Y-24300000D03*
%TO.P,J13,G4*%
X167400000Y-24300000D03*
%TD*%
D40*
%TO.P,U4,1,BW_1*%
%TO.N,Net-(U4-BW)*%
X177780000Y-28845000D03*
%TO.P,U4,2*%
%TO.N,N/C*%
X177780000Y-30115000D03*
%TO.P,U4,3,VIN_3*%
%TO.N,/VSIG*%
X177780000Y-31385000D03*
%TO.P,U4,4,V__4*%
%TO.N,GND*%
X177780000Y-32655000D03*
%TO.P,U4,5*%
%TO.N,N/C*%
X182720000Y-32655000D03*
%TO.P,U4,6,VO_6*%
%TO.N,/VSIG_BUF*%
X182720000Y-31385000D03*
%TO.P,U4,7,V+_7*%
%TO.N,/VDD_BUF*%
X182720000Y-30115000D03*
%TO.P,U4,8*%
%TO.N,N/C*%
X182720000Y-28845000D03*
%TD*%
D16*
%TO.P,J1,1,1_1*%
%TO.N,/c1_vin_jump*%
X167450000Y-55110000D03*
%TO.P,J1,2,2_2*%
%TO.N,Net-(C19-Pad1)*%
X167450000Y-57650000D03*
%TD*%
D13*
%TO.P,C16,1*%
%TO.N,/AIN1_ADC*%
X224200449Y-71550000D03*
%TO.P,C16,2*%
%TO.N,GND*%
X222125449Y-71550000D03*
%TD*%
D41*
%TO.P,U2,1,VSS_1*%
%TO.N,GND*%
X197362500Y-41062500D03*
%TO.P,U2,2,VDD_2*%
%TO.N,Net-(C10-Pad2)*%
X197362500Y-41712500D03*
%TO.P,U2,3,VSS_3*%
%TO.N,GND*%
X197362500Y-42362500D03*
%TO.P,U2,4,VSS_4*%
X197362500Y-43012500D03*
%TO.P,U2,5,BGR_VREF_5*%
%TO.N,Net-(U2-BGR_VREF)*%
X197362500Y-43662500D03*
%TO.P,U2,6,VSS_6*%
%TO.N,GND*%
X197362500Y-44312500D03*
%TO.P,U2,7,VSS_7*%
X197362500Y-44962500D03*
%TO.P,U2,8,VDD_8*%
%TO.N,Net-(C10-Pad2)*%
X197362500Y-45612500D03*
D42*
%TO.P,U2,9,VOUT_9*%
%TO.N,Net-(R50-Pad2)*%
X198587500Y-46837500D03*
%TO.P,U2,10,VOUT_10*%
%TO.N,Net-(R51-Pad2)*%
X199237500Y-46837500D03*
%TO.P,U2,11,VOUT_11*%
%TO.N,Net-(R52-Pad2)*%
X199887500Y-46837500D03*
%TO.P,U2,12,VOUT_12*%
%TO.N,Net-(R53-Pad2)*%
X200537500Y-46837500D03*
%TO.P,U2,13,VSS_13*%
%TO.N,GND*%
X201187500Y-46837500D03*
%TO.P,U2,14,VDD_14*%
%TO.N,Net-(C10-Pad2)*%
X201837500Y-46837500D03*
%TO.P,U2,15,OTA_OUT_15*%
%TO.N,Net-(U2-OTA_OUT)*%
X202487500Y-46837500D03*
%TO.P,U2,16,VDD_16*%
%TO.N,Net-(C10-Pad2)*%
X203137500Y-46837500D03*
D41*
%TO.P,U2,17,VDD_17*%
X204362500Y-45612500D03*
%TO.P,U2,18,VSS_18*%
%TO.N,GND*%
X204362500Y-44962500D03*
%TO.P,U2,19,OTA_VREF_19*%
%TO.N,/BGR_VREF*%
X204362500Y-44312500D03*
%TO.P,U2,20,VSS_20*%
%TO.N,GND*%
X204362500Y-43662500D03*
%TO.P,U2,21,VDD_21*%
%TO.N,Net-(C10-Pad2)*%
X204362500Y-43012500D03*
%TO.P,U2,22,VSS_22*%
%TO.N,GND*%
X204362500Y-42362500D03*
%TO.P,U2,23,VSS_23*%
X204362500Y-41712500D03*
%TO.P,U2,24,VDD_24*%
%TO.N,Net-(C10-Pad2)*%
X204362500Y-41062500D03*
D42*
%TO.P,U2,25,VSS_25*%
%TO.N,GND*%
X203137500Y-39837500D03*
%TO.P,U2,26,VSS_26*%
X202487500Y-39837500D03*
%TO.P,U2,27,VDD_27*%
%TO.N,Net-(C10-Pad2)*%
X201837500Y-39837500D03*
%TO.P,U2,28,VSS_28*%
%TO.N,GND*%
X201187500Y-39837500D03*
%TO.P,U2,29,VSS_29*%
X200537500Y-39837500D03*
%TO.P,U2,30,VSS_30*%
X199887500Y-39837500D03*
%TO.P,U2,31,VSS_31*%
X199237500Y-39837500D03*
%TO.P,U2,32,VDD_32*%
%TO.N,Net-(C10-Pad2)*%
X198587500Y-39837500D03*
D43*
%TO.P,U2,33,EP_33*%
%TO.N,Net-(U2-EP)*%
X199587500Y-42062500D03*
X199587500Y-43337500D03*
X199587500Y-44612500D03*
X200862500Y-42062500D03*
X200862500Y-43337500D03*
D44*
X200862500Y-43337500D03*
D43*
X200862500Y-44612500D03*
X202137500Y-42062500D03*
X202137500Y-43337500D03*
X202137500Y-44612500D03*
%TD*%
D20*
%TO.P,TP5,1,1_1*%
%TO.N,Net-(R49-Pad1)*%
X216900000Y-59900000D03*
%TD*%
D35*
%TO.P,R15,1*%
%TO.N,/VG3*%
X177800000Y-69800000D03*
%TO.P,R15,2*%
%TO.N,GND*%
X176385786Y-71214214D03*
%TD*%
D10*
%TO.P,J15,1*%
%TO.N,Net-(J15-Pad1)*%
X176560000Y-21840000D03*
%TO.P,J15,G1*%
%TO.N,GND*%
X174020000Y-19300000D03*
%TO.P,J15,G2*%
X179100000Y-19300000D03*
%TO.P,J15,G3*%
X174020000Y-24380000D03*
%TO.P,J15,G4*%
X179100000Y-24380000D03*
%TD*%
D35*
%TO.P,R12,1*%
%TO.N,/VG1*%
X185707107Y-69992893D03*
%TO.P,R12,2*%
%TO.N,GND*%
X184292893Y-71407107D03*
%TD*%
D16*
%TO.P,J25,1,1_1*%
%TO.N,/3V3_EXTERNAL*%
X217440000Y-80058000D03*
%TO.P,J25,2,2_2*%
%TO.N,/3V3*%
X214900000Y-80058000D03*
%TO.P,J25,3,3_3*%
%TO.N,Net-(J25-Pad3)*%
X212360000Y-80058000D03*
%TD*%
D35*
%TO.P,R10,1*%
%TO.N,/VG0*%
X189500000Y-70100000D03*
%TO.P,R10,2*%
%TO.N,GND*%
X188085786Y-71514214D03*
%TD*%
D12*
%TO.P,R61,1*%
%TO.N,GND*%
X236700000Y-46600000D03*
%TO.P,R61,2*%
%TO.N,Net-(C20-Pad2)*%
X234700000Y-46600000D03*
%TD*%
D11*
%TO.P,C22,1*%
%TO.N,Net-(C22-Pad1)*%
X227862500Y-53100000D03*
%TO.P,C22,2*%
%TO.N,Net-(C22-Pad2)*%
X229937500Y-53100000D03*
%TD*%
D19*
%TO.P,C24,1*%
%TO.N,GND*%
X198700000Y-36300000D03*
%TO.P,C24,2*%
%TO.N,Net-(C10-Pad2)*%
X198700000Y-38375000D03*
%TD*%
D35*
%TO.P,R17,1*%
%TO.N,/VG4*%
X173807107Y-69692893D03*
%TO.P,R17,2*%
%TO.N,GND*%
X172392893Y-71107107D03*
%TD*%
D10*
%TO.P,J20,1*%
%TO.N,Net-(J20-Pad1)*%
X235300000Y-38400000D03*
%TO.P,J20,G1*%
%TO.N,GND*%
X232760000Y-35860000D03*
%TO.P,J20,G2*%
X237840000Y-35860000D03*
%TO.P,J20,G3*%
X232760000Y-40940000D03*
%TO.P,J20,G4*%
X237840000Y-40940000D03*
%TD*%
D17*
%TO.P,R6,1*%
%TO.N,/AIN0_SIGNAL*%
X222175449Y-69500000D03*
%TO.P,R6,2*%
%TO.N,/AIN0_ADC*%
X224175449Y-69500000D03*
%TD*%
D13*
%TO.P,C17,1*%
%TO.N,GND*%
X207932500Y-42115000D03*
%TO.P,C17,2*%
%TO.N,Net-(C10-Pad2)*%
X205857500Y-42115000D03*
%TD*%
D16*
%TO.P,J16,1,1_1*%
%TO.N,/3V3*%
X177000000Y-112280000D03*
%TO.P,J16,2,2_2*%
%TO.N,/VG1*%
X177000000Y-109740000D03*
%TO.P,J16,3,3_3*%
%TO.N,/pico_vg1*%
X177000000Y-107200000D03*
%TD*%
D18*
%TO.P,R48,1*%
%TO.N,/BGR_VREF*%
X214700000Y-36575000D03*
%TO.P,R48,2*%
%TO.N,Net-(U2-BGR_VREF)*%
X214700000Y-34575000D03*
%TD*%
D11*
%TO.P,C4,1*%
%TO.N,GND*%
X193725000Y-41800000D03*
%TO.P,C4,2*%
%TO.N,Net-(C10-Pad2)*%
X195800000Y-41800000D03*
%TD*%
D28*
%TO.P,J4,1,Pin_1_1*%
%TO.N,Net-(J4-Pin_1)*%
X147680000Y-44210000D03*
X142600000Y-44210000D03*
X147680000Y-49290000D03*
X142600000Y-49290000D03*
%TD*%
D16*
%TO.P,JP3,1,1_1*%
%TO.N,Net-(JP3-Pad1)*%
X169720000Y-30655000D03*
%TO.P,JP3,2,2_2*%
%TO.N,Net-(U4-BW)*%
X172260000Y-30655000D03*
%TD*%
D12*
%TO.P,R42,1*%
%TO.N,GND*%
X236800000Y-57900000D03*
%TO.P,R42,2*%
%TO.N,Net-(C25-Pad2)*%
X234800000Y-57900000D03*
%TD*%
D34*
%TO.P,Q5,1*%
%TO.N,/VG4*%
X174550000Y-67240000D03*
%TO.P,Q5,2*%
%TO.N,GND*%
X176450000Y-67240000D03*
%TO.P,Q5,3*%
%TO.N,/VD4*%
X175500000Y-65120000D03*
%TD*%
D10*
%TO.P,J9,1*%
%TO.N,/1V8*%
X145750000Y-33500000D03*
%TO.P,J9,G1*%
%TO.N,GND*%
X143210000Y-30960000D03*
%TO.P,J9,G2*%
X148290000Y-30960000D03*
%TO.P,J9,G3*%
X143210000Y-36040000D03*
%TO.P,J9,G4*%
X148290000Y-36040000D03*
%TD*%
D16*
%TO.P,J22,1,1_1*%
%TO.N,/LDO_VOUT*%
X224960000Y-45100000D03*
%TO.P,J22,2,2_2*%
%TO.N,Net-(C21-Pad1)*%
X227500000Y-45100000D03*
%TD*%
D14*
%TO.P,TP2,1,1_1*%
%TO.N,/c1_vin_jump*%
X161250000Y-45700000D03*
%TD*%
D16*
%TO.P,J17,1,1_1*%
%TO.N,/3V3*%
X173000000Y-112440000D03*
%TO.P,J17,2,2_2*%
%TO.N,/VG2*%
X173000000Y-109900000D03*
%TO.P,J17,3,3_3*%
%TO.N,/pico_vg2*%
X173000000Y-107360000D03*
%TD*%
D12*
%TO.P,R40,1*%
%TO.N,GND*%
X236700000Y-53600000D03*
%TO.P,R40,2*%
%TO.N,Net-(C22-Pad2)*%
X234700000Y-53600000D03*
%TD*%
D15*
%TO.P,R63,1*%
%TO.N,/VARIABLE_LOAD*%
X208250000Y-60100000D03*
%TO.P,R63,2*%
%TO.N,/VOUT*%
X208250000Y-62100000D03*
%TD*%
D31*
%TO.P,R58,1*%
%TO.N,/AIN2_SIGNAL*%
X208407107Y-57407107D03*
%TO.P,R58,2*%
%TO.N,Net-(U2-OTA_OUT)*%
X206992893Y-55992893D03*
%TD*%
D12*
%TO.P,R5,1*%
%TO.N,/pico_spi_tx*%
X235075449Y-71950000D03*
%TO.P,R5,2*%
%TO.N,Net-(U3-DIN)*%
X233075449Y-71950000D03*
%TD*%
D15*
%TO.P,R20,1*%
%TO.N,/VARIABLE_LOAD*%
X175350000Y-60140000D03*
%TO.P,R20,2*%
%TO.N,/VD4*%
X175350000Y-62140000D03*
%TD*%
D12*
%TO.P,R2,1*%
%TO.N,/pico_spi_clk*%
X235075449Y-65900000D03*
%TO.P,R2,2*%
%TO.N,Net-(U3-SCLK)*%
X233075449Y-65900000D03*
%TD*%
D13*
%TO.P,C14,1*%
%TO.N,/AIN0_ADC*%
X224175449Y-67450000D03*
%TO.P,C14,2*%
%TO.N,GND*%
X222100449Y-67450000D03*
%TD*%
D28*
%TO.P,J12,1,Pin_1_1*%
%TO.N,/VDD_BUF*%
X147680000Y-59210000D03*
X142600000Y-59210000D03*
X147680000Y-64290000D03*
X142600000Y-64290000D03*
%TD*%
D33*
%TO.P,C7,1*%
%TO.N,GND*%
X205967246Y-49367246D03*
%TO.P,C7,2*%
%TO.N,Net-(C10-Pad2)*%
X204500000Y-47900000D03*
%TD*%
D16*
%TO.P,J14,1,1_1*%
%TO.N,/3V3*%
X181000000Y-112280000D03*
%TO.P,J14,2,2_2*%
%TO.N,/VG0*%
X181000000Y-109740000D03*
%TO.P,J14,3,3_3*%
%TO.N,/pico_vg0*%
X181000000Y-107200000D03*
%TD*%
D45*
%TO.P,R47,1*%
%TO.N,GND*%
X193800000Y-36500000D03*
%TO.P,R47,2*%
%TO.N,Net-(U2-EP)*%
X195214214Y-37914214D03*
%TD*%
D13*
%TO.P,C12,1*%
%TO.N,/3V3*%
X227125449Y-78150000D03*
%TO.P,C12,2*%
%TO.N,GND*%
X225050449Y-78150000D03*
%TD*%
D15*
%TO.P,R13,1*%
%TO.N,/VARIABLE_LOAD*%
X183900000Y-60190000D03*
%TO.P,R13,2*%
%TO.N,/VD1*%
X183900000Y-62190000D03*
%TD*%
D13*
%TO.P,C26,1*%
%TO.N,Net-(J4-Pin_1)*%
X148287500Y-52250000D03*
%TO.P,C26,2*%
%TO.N,GND*%
X146212500Y-52250000D03*
%TD*%
D36*
%TO.P,R51,1*%
%TO.N,/LDO_VOUT*%
X194500000Y-51850000D03*
%TO.P,R51,2*%
%TO.N,Net-(R51-Pad2)*%
X195345236Y-50037384D03*
%TD*%
D34*
%TO.P,Q2,1*%
%TO.N,/VG1*%
X186300000Y-67100000D03*
%TO.P,Q2,2*%
%TO.N,GND*%
X188200000Y-67100000D03*
%TO.P,Q2,3*%
%TO.N,/VD1*%
X187250000Y-64980000D03*
%TD*%
D18*
%TO.P,R65,1*%
%TO.N,/AIN0_SIGNAL*%
X213150000Y-70750000D03*
%TO.P,R65,2*%
%TO.N,/VOUT*%
X213150000Y-68750000D03*
%TD*%
D19*
%TO.P,C18,1*%
%TO.N,Net-(C18-Pad1)*%
X171750000Y-60450000D03*
%TO.P,C18,2*%
%TO.N,GND*%
X171750000Y-62525000D03*
%TD*%
D15*
%TO.P,R37,1*%
%TO.N,Net-(J20-Pad1)*%
X219800000Y-34500000D03*
%TO.P,R37,2*%
%TO.N,/BGR_VREF*%
X219800000Y-36500000D03*
%TD*%
D32*
%TO.P,TP8,1,1_1*%
%TO.N,/VARIABLE_LOAD*%
X196200000Y-70400000D03*
%TD*%
D17*
%TO.P,R45,1*%
%TO.N,/c1_vin_jump*%
X168100000Y-39750000D03*
%TO.P,R45,2*%
%TO.N,Net-(C10-Pad2)*%
X170100000Y-39750000D03*
%TD*%
D32*
%TO.P,TP1,1,1_1*%
%TO.N,/1V8*%
X153500000Y-42500000D03*
%TD*%
D46*
%TO.P,C11,N*%
%TO.N,GND*%
X156250000Y-25250000D03*
D47*
%TO.P,C11,P*%
%TO.N,/1V8*%
X152750000Y-25250000D03*
%TD*%
D36*
%TO.P,R52,1*%
%TO.N,/LDO_VOUT*%
X196277382Y-52706308D03*
%TO.P,R52,2*%
%TO.N,Net-(R52-Pad2)*%
X197122618Y-50893692D03*
%TD*%
%TO.P,R53,1*%
%TO.N,/LDO_VOUT*%
X198077382Y-53506308D03*
%TO.P,R53,2*%
%TO.N,Net-(R53-Pad2)*%
X198922618Y-51693692D03*
%TD*%
D32*
%TO.P,TP4,1,1_1*%
%TO.N,/LDO_VOUT*%
X202300000Y-74900000D03*
%TD*%
D19*
%TO.P,C23,1*%
%TO.N,GND*%
X202107500Y-36312500D03*
%TO.P,C23,2*%
%TO.N,Net-(C10-Pad2)*%
X202107500Y-38387500D03*
%TD*%
D34*
%TO.P,Q1,1*%
%TO.N,/VG0*%
X190100000Y-67100000D03*
%TO.P,Q1,2*%
%TO.N,GND*%
X192000000Y-67100000D03*
%TO.P,Q1,3*%
%TO.N,/VD0*%
X191050000Y-64980000D03*
%TD*%
%TO.P,Q4,1*%
%TO.N,/VG3*%
X178400000Y-67200000D03*
%TO.P,Q4,2*%
%TO.N,GND*%
X180300000Y-67200000D03*
%TO.P,Q4,3*%
%TO.N,/VD3*%
X179350000Y-65080000D03*
%TD*%
D14*
%TO.P,TP11,1,1_1*%
%TO.N,GND*%
X155650000Y-61950000D03*
%TD*%
D28*
%TO.P,J5,1,Pin_1_1*%
%TO.N,/3V3_EXTERNAL*%
X147845000Y-89035000D03*
X142765000Y-89035000D03*
X147845000Y-94115000D03*
X142765000Y-94115000D03*
%TD*%
D16*
%TO.P,J23,1,1_1*%
%TO.N,/LDO_VOUT*%
X224960000Y-50300000D03*
%TO.P,J23,2,2_2*%
%TO.N,Net-(C22-Pad1)*%
X227500000Y-50300000D03*
%TD*%
D14*
%TO.P,TP3,1,1_1*%
%TO.N,/VOUT*%
X175650000Y-48400000D03*
%TD*%
D13*
%TO.P,C13,1*%
%TO.N,GND*%
X187627500Y-30310000D03*
%TO.P,C13,2*%
%TO.N,/VDD_BUF*%
X185552500Y-30310000D03*
%TD*%
D15*
%TO.P,R11,1*%
%TO.N,/VARIABLE_LOAD*%
X185950000Y-60190000D03*
%TO.P,R11,2*%
%TO.N,/VD0*%
X185950000Y-62190000D03*
%TD*%
D48*
%TO.N,GND*%
X226800000Y-27300000D03*
X209027697Y-49327697D03*
X192150000Y-41560000D03*
X149000000Y-107700000D03*
D49*
X229475449Y-65650000D03*
D50*
X196535264Y-44489736D03*
D48*
X169300000Y-63400000D03*
X196300000Y-76600000D03*
D50*
X196500000Y-42900000D03*
D49*
X223875449Y-78550000D03*
D48*
X209300000Y-41200000D03*
D49*
X220900000Y-72100000D03*
D48*
X151950000Y-63650000D03*
D49*
X199715592Y-37499194D03*
D51*
X192000000Y-68400000D03*
D48*
X143400000Y-84500000D03*
X180300000Y-51350000D03*
X188950000Y-30800000D03*
D51*
X238600000Y-57000000D03*
D48*
X201800000Y-51650000D03*
D49*
X203600000Y-38200000D03*
D48*
X201625000Y-35175000D03*
D49*
X223725449Y-76800000D03*
X232125449Y-76400000D03*
D51*
X238400000Y-49200000D03*
D49*
X175350000Y-31950000D03*
D51*
X175100000Y-72500000D03*
D48*
X209000000Y-39100000D03*
X157950000Y-51600000D03*
X191900000Y-46385000D03*
D49*
X205150000Y-44950000D03*
D51*
X187100000Y-72500000D03*
D48*
X199300000Y-35100000D03*
X207900000Y-50350000D03*
D49*
X220700000Y-66800000D03*
D51*
X171100000Y-72400000D03*
D49*
X228575449Y-65150000D03*
D51*
X237500000Y-45300000D03*
X188200000Y-68500000D03*
D49*
X227875449Y-66450000D03*
X176445000Y-32655000D03*
X200500000Y-38000000D03*
D51*
X183200000Y-72500000D03*
D48*
X173200000Y-63300000D03*
X191837500Y-44600000D03*
D50*
X196600000Y-40400000D03*
D51*
X238100000Y-52700000D03*
D49*
X206050000Y-43450000D03*
D51*
X184400000Y-68400000D03*
D49*
X200600000Y-37200000D03*
X232125449Y-78350000D03*
D51*
X180300000Y-68500000D03*
D48*
X144900000Y-53050000D03*
X221400000Y-113900000D03*
D49*
X220700000Y-64100000D03*
X204000000Y-38900000D03*
D48*
X218600000Y-53700000D03*
D51*
X175900000Y-68600000D03*
D52*
X200250000Y-38800000D03*
D48*
X148900000Y-23600000D03*
D49*
X200200000Y-48850000D03*
D51*
X179300000Y-72500000D03*
D53*
X206300000Y-40800000D03*
D49*
X194500000Y-35200000D03*
D48*
%TO.N,Net-(C10-Pad2)*%
X184250000Y-38950000D03*
X194750000Y-40150000D03*
D49*
X203700000Y-37200000D03*
X209500000Y-40200000D03*
X206000000Y-47400000D03*
X205200000Y-38300000D03*
X196700000Y-47000000D03*
X197000000Y-37300000D03*
X200700000Y-50100000D03*
X207400000Y-45000000D03*
D48*
%TO.N,/3V3*%
X187700000Y-82000000D03*
X226594730Y-82040664D03*
X225650544Y-79552279D03*
%TO.N,/3V3_PICO*%
X217000000Y-83000000D03*
%TO.N,/LDO_VOUT*%
X201800000Y-55500000D03*
X199300000Y-62900000D03*
X204500000Y-72700000D03*
X206600000Y-68600000D03*
D49*
%TO.N,/pico_spi_rx*%
X236750000Y-70700000D03*
%TO.N,/pico_spi_cs*%
X236900000Y-64600000D03*
%TO.N,/pico_spi_clk*%
X236850000Y-66800000D03*
%TO.N,/pico_spi_tx*%
X235100000Y-73400000D03*
%TO.N,/pico_irq*%
X236650000Y-68600000D03*
D51*
%TO.N,/pico_vg1*%
X179870600Y-113442800D03*
%TO.N,/pico_vg2*%
X176900000Y-114171400D03*
%TO.N,/pico_vg3*%
X172900000Y-114871400D03*
%TO.N,/pico_vg4*%
X170300000Y-115600000D03*
D48*
%TO.N,/VG4*%
X162600000Y-102800000D03*
%TO.N,/VARIABLE_LOAD*%
X198500000Y-73100000D03*
X209350000Y-60250000D03*
%TO.N,/c1_vin_jump*%
X159500000Y-40800000D03*
%TO.N,/1V8*%
X157200000Y-40800000D03*
%TO.N,/VG2*%
X170500000Y-96800000D03*
%TO.N,/VOUT*%
X201200000Y-63600000D03*
X215200000Y-66400000D03*
X176050000Y-45800000D03*
X221500000Y-57100000D03*
X205300000Y-62100000D03*
%TO.N,/VG3*%
X166600000Y-99500000D03*
%TO.N,/VSIG*%
X174775880Y-30274120D03*
%TO.N,/VDD_BUF*%
X185552500Y-32852500D03*
%TO.N,/VG1*%
X174800000Y-92500000D03*
%TO.N,/VG0*%
X178900000Y-87700000D03*
%TO.N,Net-(J20-Pad1)*%
X221900000Y-33200000D03*
%TD*%
%TO.N,GND*%
D54*
X227400000Y-26700000D02*
X226800000Y-27300000D01*
D55*
X197362500Y-41062500D02*
X197262500Y-41062500D01*
D54*
X161400000Y-51400000D02*
X158150000Y-51400000D01*
X149900000Y-106900000D02*
X149100000Y-107700000D01*
D56*
X236800000Y-57900000D02*
X237700000Y-57900000D01*
D55*
X231012949Y-78150000D02*
X231925449Y-78150000D01*
X228625450Y-65200001D02*
X228575449Y-65150000D01*
X204362500Y-43662500D02*
X205837500Y-43662500D01*
X220925449Y-72100000D02*
X221475449Y-71550000D01*
X202487500Y-39647454D02*
X202487500Y-39837500D01*
X199800000Y-37583602D02*
X199800000Y-38914954D01*
D56*
X183200000Y-72500000D02*
X184292893Y-71407107D01*
D55*
X205137500Y-44962500D02*
X205150000Y-44950000D01*
D57*
X180300000Y-68500000D02*
X180300000Y-67200000D01*
D54*
X199300000Y-35100000D02*
X199250000Y-35100000D01*
D55*
X231012949Y-76100000D02*
X231825449Y-76100000D01*
X194500000Y-35800000D02*
X194500000Y-35200000D01*
D54*
X149900000Y-104500000D02*
X149900000Y-106900000D01*
D57*
X176000000Y-68600000D02*
X176450000Y-68150000D01*
D55*
X197037500Y-42362500D02*
X197362500Y-42362500D01*
X196500000Y-42900000D02*
X196700000Y-42700000D01*
D54*
X201800000Y-51650000D02*
X203067246Y-50382754D01*
D57*
X175900000Y-68600000D02*
X176000000Y-68600000D01*
D55*
X228625450Y-68030600D02*
X228625450Y-65200001D01*
D56*
X237600000Y-50000000D02*
X238400000Y-49200000D01*
D55*
X204000000Y-38900000D02*
X203137500Y-39762500D01*
D54*
X230250000Y-63600000D02*
X230250000Y-64875449D01*
D58*
X206300000Y-40900000D02*
X206200000Y-41000000D01*
D57*
X176450000Y-68150000D02*
X176450000Y-67240000D01*
D56*
X236700000Y-53600000D02*
X237200000Y-53600000D01*
D55*
X220700000Y-64100000D02*
X220700000Y-64075449D01*
D54*
X155650000Y-61950000D02*
X153550000Y-61950000D01*
X201625000Y-35175000D02*
X202107500Y-35657500D01*
D56*
X175100000Y-72500000D02*
X176385786Y-71214214D01*
D58*
X200537500Y-39562500D02*
X200537500Y-39837500D01*
D54*
X222325000Y-112975000D02*
X221400000Y-113900000D01*
D55*
X200250000Y-38800000D02*
X200250000Y-39050000D01*
X197012500Y-43012500D02*
X197362500Y-43012500D01*
D54*
X208200000Y-47800000D02*
X207617246Y-47217246D01*
X143950000Y-85050000D02*
X143400000Y-84500000D01*
X168525000Y-62625000D02*
X167750000Y-62625000D01*
D55*
X222100449Y-67450000D02*
X221350000Y-67450000D01*
D54*
X193262500Y-44600000D02*
X191837500Y-44600000D01*
D55*
X200200000Y-48544625D02*
X200200000Y-48850000D01*
D58*
X204537500Y-42362500D02*
X204900000Y-42000000D01*
D55*
X221475449Y-71550000D02*
X222125449Y-71550000D01*
D54*
X208385000Y-42115000D02*
X209300000Y-41200000D01*
X193225000Y-46900000D02*
X192215000Y-46900000D01*
X177850000Y-54200000D02*
X177850000Y-53800000D01*
X173200000Y-63300000D02*
X172425000Y-62525000D01*
X177850000Y-53800000D02*
X180300000Y-51350000D01*
X227400000Y-24200000D02*
X227400000Y-26700000D01*
D58*
X204362500Y-41712500D02*
X204634000Y-41712500D01*
D55*
X205837500Y-43662500D02*
X206050000Y-43450000D01*
X227975451Y-66550002D02*
X227875449Y-66450000D01*
D58*
X204900000Y-42000000D02*
X204900000Y-41446500D01*
X204634000Y-41712500D02*
X204900000Y-41446500D01*
D55*
X220700000Y-64075449D02*
X221425449Y-63350000D01*
D54*
X207400000Y-49850000D02*
X206450000Y-49850000D01*
X208400000Y-39700000D02*
X209000000Y-39100000D01*
X202107500Y-35657500D02*
X202107500Y-36312500D01*
D55*
X221425449Y-63350000D02*
X222100449Y-63350000D01*
D56*
X188460000Y-30310000D02*
X188950000Y-30800000D01*
D55*
X193800000Y-36500000D02*
X194500000Y-35800000D01*
D56*
X171100000Y-72400000D02*
X172392893Y-71107107D01*
X179300000Y-72500000D02*
X180492893Y-71307107D01*
D54*
X230250000Y-64875449D02*
X229475449Y-65650000D01*
D58*
X201052300Y-38972254D02*
X201187500Y-39107454D01*
X206200000Y-41000000D02*
X205346500Y-41000000D01*
D55*
X201187500Y-47557125D02*
X200200000Y-48544625D01*
D58*
X205346500Y-41000000D02*
X204900000Y-41446500D01*
D55*
X224275449Y-78150000D02*
X223875449Y-78550000D01*
D54*
X206450000Y-49850000D02*
X205967246Y-49367246D01*
D55*
X175150000Y-32150000D02*
X175350000Y-31950000D01*
D57*
X188200000Y-68500000D02*
X188200000Y-67100000D01*
D56*
X237700000Y-57900000D02*
X238600000Y-57000000D01*
D54*
X207900000Y-50350000D02*
X207400000Y-49850000D01*
X153550000Y-61950000D02*
X151950000Y-63550000D01*
D58*
X200500000Y-38400000D02*
X200700000Y-38600000D01*
D54*
X192390000Y-41800000D02*
X193725000Y-41800000D01*
D55*
X199715592Y-37499194D02*
X199800000Y-37583602D01*
D56*
X237200000Y-53600000D02*
X238100000Y-52700000D01*
D54*
X208200000Y-48500000D02*
X208200000Y-47800000D01*
D55*
X196710264Y-44489736D02*
X196887500Y-44312500D01*
D58*
X200500000Y-38000000D02*
X200500000Y-38400000D01*
D54*
X148900000Y-24800000D02*
X148900000Y-23600000D01*
D55*
X229275448Y-65850001D02*
X229475449Y-65650000D01*
X225050449Y-76100000D02*
X224425449Y-76100000D01*
X225050449Y-78150000D02*
X224275449Y-78150000D01*
X196700000Y-42700000D02*
X197012500Y-43012500D01*
D57*
X192000000Y-68400000D02*
X192000000Y-67100000D01*
D54*
X198700000Y-35650000D02*
X198700000Y-36300000D01*
D55*
X227975451Y-68030600D02*
X227975451Y-66550002D01*
X231012949Y-76100000D02*
X231012949Y-75662500D01*
D58*
X200700000Y-39400000D02*
X200537500Y-39562500D01*
D56*
X237500000Y-45800000D02*
X237500000Y-45300000D01*
D55*
X229275448Y-68030600D02*
X229275448Y-65850001D01*
D58*
X201187500Y-39107454D02*
X201187500Y-39837500D01*
D55*
X197062500Y-44962500D02*
X197362500Y-44962500D01*
X200250000Y-39050000D02*
X199887500Y-39412500D01*
X197262500Y-41062500D02*
X196600000Y-40400000D01*
X231012949Y-78150000D02*
X231012949Y-78537500D01*
D54*
X172425000Y-62525000D02*
X171750000Y-62525000D01*
D58*
X206300000Y-40800000D02*
X206300000Y-40900000D01*
D55*
X196589736Y-44489736D02*
X197062500Y-44962500D01*
X196887500Y-44312500D02*
X197362500Y-44312500D01*
X203600000Y-38200000D02*
X203162700Y-38637300D01*
X199237500Y-39477454D02*
X199237500Y-39837500D01*
D56*
X236700000Y-50000000D02*
X237600000Y-50000000D01*
D54*
X158150000Y-51400000D02*
X157950000Y-51600000D01*
D55*
X177780000Y-32655000D02*
X176445000Y-32655000D01*
D54*
X148100000Y-25600000D02*
X148900000Y-24800000D01*
D58*
X200700000Y-38600000D02*
X200700000Y-39400000D01*
D56*
X236700000Y-46600000D02*
X237500000Y-45800000D01*
D55*
X231925449Y-78150000D02*
X232125449Y-78350000D01*
X221350000Y-67450000D02*
X220700000Y-66800000D01*
X199887500Y-39412500D02*
X199887500Y-39837500D01*
D54*
X196300000Y-76500000D02*
X196300000Y-76600000D01*
D56*
X187100000Y-72500000D02*
X188085786Y-71514214D01*
D54*
X218600000Y-52800000D02*
X218600000Y-53700000D01*
X192215000Y-46700000D02*
X191900000Y-46385000D01*
D55*
X199800000Y-38914954D02*
X199237500Y-39477454D01*
D54*
X144775000Y-85050000D02*
X143950000Y-85050000D01*
X146212500Y-52250000D02*
X145700000Y-52250000D01*
D55*
X196500000Y-42900000D02*
X197037500Y-42362500D01*
D54*
X145700000Y-52250000D02*
X144900000Y-53050000D01*
D55*
X175150000Y-33500000D02*
X175150000Y-32150000D01*
D54*
X207932500Y-42115000D02*
X208385000Y-42115000D01*
D55*
X231825449Y-76100000D02*
X232125449Y-76400000D01*
D58*
X204362500Y-42362500D02*
X204537500Y-42362500D01*
D57*
X184400000Y-68400000D02*
X184400000Y-67200000D01*
D54*
X207537500Y-39700000D02*
X208400000Y-39700000D01*
X199250000Y-35100000D02*
X198700000Y-35650000D01*
D58*
X200600000Y-37200000D02*
X201052300Y-37652300D01*
D55*
X224425449Y-76100000D02*
X223725449Y-76800000D01*
X196535264Y-44489736D02*
X196589736Y-44489736D01*
D54*
X192150000Y-41560000D02*
X192390000Y-41800000D01*
D55*
X220900000Y-72100000D02*
X220925449Y-72100000D01*
X203162700Y-38637300D02*
X203162700Y-38972254D01*
D56*
X187627500Y-30310000D02*
X188460000Y-30310000D01*
D55*
X203137500Y-39762500D02*
X203137500Y-39837500D01*
D54*
X193500000Y-73700000D02*
X196300000Y-76500000D01*
X217100000Y-51300000D02*
X218600000Y-52800000D01*
D55*
X203162700Y-38972254D02*
X202487500Y-39647454D01*
D58*
X201052300Y-37652300D02*
X201052300Y-38972254D01*
D55*
X204362500Y-44962500D02*
X205137500Y-44962500D01*
D54*
X169300000Y-63400000D02*
X168525000Y-62625000D01*
D55*
X201187500Y-46837500D02*
X201187500Y-47557125D01*
D54*
X209027697Y-49327697D02*
X208200000Y-48500000D01*
X203067246Y-50382754D02*
X203067246Y-50317246D01*
D55*
X196535264Y-44489736D02*
X196710264Y-44489736D01*
D54*
X222475000Y-112975000D02*
X222325000Y-112975000D01*
%TO.N,Net-(C10-Pad2)*%
D55*
X204362500Y-41062500D02*
X204700000Y-40725000D01*
D54*
X195800000Y-41200000D02*
X194750000Y-40150000D01*
D55*
X205462500Y-38562500D02*
X205200000Y-38300000D01*
X197000000Y-45850000D02*
X195850000Y-44700000D01*
X204700000Y-40462500D02*
X205462500Y-39700000D01*
X201837500Y-39837500D02*
X201837500Y-38657500D01*
X205000000Y-47400000D02*
X204500000Y-47900000D01*
X198587500Y-39837500D02*
X198587500Y-38487500D01*
X197362500Y-45612500D02*
X197102500Y-45612500D01*
X196310000Y-41712500D02*
X197362500Y-41712500D01*
X203137500Y-47437500D02*
X203600000Y-47900000D01*
X203030000Y-37465000D02*
X203435000Y-37465000D01*
X195857500Y-42245000D02*
X195817500Y-42205000D01*
X203435000Y-37465000D02*
X203700000Y-37200000D01*
X206012500Y-45612500D02*
X206150000Y-45750000D01*
X201837500Y-38657500D02*
X202107500Y-38387500D01*
D59*
X197000000Y-45975000D02*
X197362500Y-45612500D01*
D55*
X203600000Y-47900000D02*
X204500000Y-47900000D01*
X205905527Y-42115000D02*
X205857500Y-42115000D01*
X200700000Y-49750000D02*
X200700000Y-50100000D01*
X208314606Y-41000000D02*
X207020527Y-41000000D01*
X198700000Y-38375000D02*
X198075000Y-38375000D01*
X196700000Y-47000000D02*
X197000000Y-46700000D01*
X198587500Y-38487500D02*
X198700000Y-38375000D01*
X204700000Y-40725000D02*
X204700000Y-40462500D01*
X197000000Y-46700000D02*
X197000000Y-45850000D01*
X209114606Y-40200000D02*
X208314606Y-41000000D01*
D54*
X183450000Y-39750000D02*
X170100000Y-39750000D01*
X184250000Y-38950000D02*
X183450000Y-39750000D01*
D55*
X204362500Y-43012500D02*
X204960000Y-43012500D01*
X197102500Y-45612500D02*
X195850000Y-46865000D01*
X207020527Y-41000000D02*
X205905527Y-42115000D01*
X201837500Y-48612500D02*
X201837500Y-46837500D01*
X206000000Y-47400000D02*
X205000000Y-47400000D01*
X209500000Y-40200000D02*
X209114606Y-40200000D01*
X198075000Y-38375000D02*
X197000000Y-37300000D01*
X207300000Y-45100000D02*
X206800000Y-45100000D01*
X201600000Y-48850000D02*
X201837500Y-48612500D01*
X204362500Y-45612500D02*
X206012500Y-45612500D01*
X201837500Y-38635000D02*
X202107500Y-38365000D01*
X207400000Y-45000000D02*
X207300000Y-45100000D01*
X206800000Y-45100000D02*
X206150000Y-45750000D01*
D54*
X195800000Y-41800000D02*
X195800000Y-41200000D01*
D55*
X201600000Y-48850000D02*
X200700000Y-49750000D01*
X203137500Y-46837500D02*
X203137500Y-47437500D01*
X196222500Y-41800000D02*
X196310000Y-41712500D01*
X205462500Y-39700000D02*
X205462500Y-38562500D01*
X202107500Y-38387500D02*
X203030000Y-37465000D01*
X195800000Y-41800000D02*
X196222500Y-41800000D01*
X204960000Y-43012500D02*
X205857500Y-42115000D01*
%TO.N,Net-(C21-Pad2)*%
D56*
X233300000Y-50000000D02*
X234700000Y-50000000D01*
X229837500Y-47600000D02*
X230900000Y-47600000D01*
X230900000Y-47600000D02*
X233300000Y-50000000D01*
%TO.N,/3V3*%
D54*
X227125449Y-78629109D02*
X226202279Y-79552279D01*
X171300000Y-110740000D02*
X171300000Y-98800000D01*
X228937949Y-78150000D02*
X228937949Y-79697445D01*
X171100000Y-98600000D02*
X174700000Y-95000000D01*
X226202279Y-79552279D02*
X225650544Y-79552279D01*
X228937949Y-76100000D02*
X228937949Y-78150000D01*
D55*
X228625447Y-75787498D02*
X228937949Y-76100000D01*
D54*
X227125449Y-76100000D02*
X227125449Y-78150000D01*
X177000000Y-112240000D02*
X174700000Y-109940000D01*
X162700000Y-107000000D02*
X162700000Y-110000000D01*
X174700000Y-95000000D02*
X178500000Y-91200000D01*
D55*
X227975448Y-75250001D02*
X227125449Y-76100000D01*
D54*
X171300000Y-98800000D02*
X171100000Y-98600000D01*
D55*
X226709336Y-82040664D02*
X226750000Y-82000000D01*
D54*
X167500000Y-102200000D02*
X171100000Y-98600000D01*
D55*
X226700000Y-81935394D02*
X226594730Y-82040664D01*
X225650000Y-79325000D02*
X225650000Y-79551735D01*
X228625447Y-73669400D02*
X228625447Y-75787498D01*
D54*
X167500000Y-110740000D02*
X167500000Y-102200000D01*
X227125449Y-78150000D02*
X227125449Y-78629109D01*
X178500000Y-109780000D02*
X178500000Y-91200000D01*
X173000000Y-112440000D02*
X171300000Y-110740000D01*
X162700000Y-110000000D02*
X165100000Y-112400000D01*
X228937949Y-79697445D02*
X226594730Y-82040664D01*
X181000000Y-112280000D02*
X178500000Y-109780000D01*
X174700000Y-109940000D02*
X174700000Y-95000000D01*
D55*
X226594730Y-82040664D02*
X226709336Y-82040664D01*
X225650000Y-79551735D02*
X225650544Y-79552279D01*
D54*
X169100000Y-112340000D02*
X167500000Y-110740000D01*
D55*
X227125449Y-78150000D02*
X226825000Y-78150000D01*
D54*
X165100000Y-112400000D02*
X165200000Y-112400000D01*
D55*
X227975448Y-73669400D02*
X227975448Y-75250001D01*
D54*
X187700000Y-82000000D02*
X178500000Y-91200000D01*
D55*
X226700000Y-81600000D02*
X226700000Y-81935394D01*
D54*
X162700000Y-107000000D02*
X167500000Y-102200000D01*
%TO.N,/AIN2_ADC*%
D55*
X226675451Y-68030600D02*
X226675451Y-66938400D01*
X224175449Y-63350000D02*
X224450000Y-63350000D01*
X224450000Y-63350000D02*
X226540449Y-65440449D01*
X226540449Y-65440449D02*
X226540449Y-66803398D01*
X225137051Y-65400000D02*
X224162949Y-65400000D01*
X226675451Y-66938400D02*
X225137051Y-65400000D01*
X226540449Y-66803398D02*
X226675451Y-66938400D01*
%TO.N,Net-(J4-Pin_1)*%
D54*
X147680000Y-49290000D02*
X148890000Y-49290000D01*
X156400000Y-53900000D02*
X155450000Y-54850000D01*
X155450000Y-55850000D02*
X155450000Y-56000000D01*
X144490000Y-46100000D02*
X148600000Y-46100000D01*
X144790000Y-47100000D02*
X148100000Y-47100000D01*
X155450000Y-54450000D02*
X155450000Y-56000000D01*
X148600000Y-46100000D02*
X156400000Y-53900000D01*
X142600000Y-44210000D02*
X144490000Y-46100000D01*
X148210000Y-44210000D02*
X156900000Y-52900000D01*
X148287500Y-52250000D02*
X148287500Y-49897500D01*
X156900000Y-52900000D02*
X156900000Y-54550000D01*
X148287500Y-49897500D02*
X147680000Y-49290000D01*
X155450000Y-54850000D02*
X155450000Y-56000000D01*
X148890000Y-49290000D02*
X155450000Y-55850000D01*
X148100000Y-47100000D02*
X155450000Y-54450000D01*
X147680000Y-44210000D02*
X148210000Y-44210000D01*
X156900000Y-54550000D02*
X155450000Y-56000000D01*
X142600000Y-49290000D02*
X144790000Y-47100000D01*
%TO.N,Net-(J25-Pad3)*%
X220382000Y-78700000D02*
X213718000Y-78700000D01*
X213718000Y-78700000D02*
X212360000Y-80058000D01*
X220390000Y-78708000D02*
X220382000Y-78700000D01*
%TO.N,/3V3_PICO*%
D56*
X219292000Y-80708000D02*
X220390000Y-80708000D01*
D55*
X227475000Y-106622500D02*
X227432500Y-106580000D01*
D54*
X227475000Y-110100000D02*
X227475000Y-106622500D01*
D56*
X217000000Y-83000000D02*
X219292000Y-80708000D01*
%TO.N,/LDO_VOUT*%
D54*
X197600000Y-53983690D02*
X197600000Y-56775253D01*
D60*
X204800000Y-68600000D02*
X203600000Y-69800000D01*
D54*
X192727382Y-53527382D02*
X192727382Y-51006308D01*
D56*
X200246775Y-55500000D02*
X198285761Y-57461014D01*
X192727382Y-51006308D02*
X193000000Y-51278926D01*
D60*
X197243000Y-58503775D02*
X198285761Y-57461014D01*
D54*
X196661014Y-57461014D02*
X192727382Y-53527382D01*
X198077382Y-53506308D02*
X197600000Y-53983690D01*
X196277382Y-55777382D02*
X197961014Y-57461014D01*
X198285761Y-57461014D02*
X196661014Y-57461014D01*
D60*
X197243000Y-65043000D02*
X197243000Y-58503775D01*
X203600000Y-69800000D02*
X202000000Y-69800000D01*
X202000000Y-69800000D02*
X197243000Y-65043000D01*
X206600000Y-68600000D02*
X204800000Y-68600000D01*
D54*
X197100000Y-57900000D02*
X197846775Y-57900000D01*
X204500000Y-72700000D02*
X202300000Y-74900000D01*
X197600000Y-56775253D02*
X198285761Y-57461014D01*
X197961014Y-57461014D02*
X198285761Y-57461014D01*
D60*
X197600000Y-58146775D02*
X198285761Y-57461014D01*
D54*
X197846775Y-57900000D02*
X198285761Y-57461014D01*
X194500000Y-51850000D02*
X194500000Y-55300000D01*
D56*
X198161014Y-57461014D02*
X198285761Y-57461014D01*
X201800000Y-55500000D02*
X200246775Y-55500000D01*
D57*
X199300000Y-58475253D02*
X198285761Y-57461014D01*
D54*
X194500000Y-55300000D02*
X197100000Y-57900000D01*
X196277382Y-52706308D02*
X196277382Y-55777382D01*
D60*
X206600000Y-68600000D02*
X209300000Y-68600000D01*
D57*
X199300000Y-62900000D02*
X199300000Y-58475253D01*
%TO.N,Net-(C20-Pad1)*%
D56*
X227640000Y-42477500D02*
X227662500Y-42500000D01*
X227640000Y-40000000D02*
X227640000Y-42477500D01*
%TO.N,Net-(A1-GND-Pad13)*%
D54*
X232512500Y-108237500D02*
X232512500Y-106580000D01*
X229550000Y-110850000D02*
X229550000Y-110100000D01*
X229550000Y-110100000D02*
X230650000Y-110100000D01*
X227425000Y-112975000D02*
X229550000Y-110850000D01*
X230650000Y-110100000D02*
X232512500Y-108237500D01*
X224475000Y-112975000D02*
X227425000Y-112975000D01*
%TO.N,/AIN1_SIGNAL*%
X207140079Y-73800000D02*
X204540079Y-71200000D01*
X195600000Y-63700000D02*
X182400000Y-50500000D01*
X222012949Y-73800000D02*
X207140079Y-73800000D01*
X222212949Y-73600000D02*
X222012949Y-73800000D01*
X204540079Y-71200000D02*
X200800000Y-71200000D01*
X200800000Y-71200000D02*
X195600000Y-66000000D01*
X195600000Y-66000000D02*
X195600000Y-63700000D01*
X182400000Y-50500000D02*
X182400000Y-43500000D01*
%TO.N,Net-(U2-BGR_VREF)*%
D55*
X196044800Y-43644800D02*
X197090740Y-43644800D01*
D54*
X189000000Y-40194800D02*
X189000000Y-37000000D01*
D55*
X188900000Y-41500000D02*
X188975000Y-41425000D01*
X195700000Y-43300000D02*
X196044800Y-43644800D01*
D54*
X189000000Y-37000000D02*
X192250000Y-33750000D01*
X192250000Y-33750000D02*
X213050000Y-33750000D01*
X213050000Y-33750000D02*
X213875000Y-34575000D01*
X182400000Y-41500000D02*
X182500000Y-41400000D01*
X195200000Y-43300000D02*
X192105200Y-43300000D01*
X190700000Y-41894800D02*
X190700000Y-41900000D01*
D55*
X197073040Y-43662500D02*
X197362500Y-43662500D01*
X195200000Y-43300000D02*
X195700000Y-43300000D01*
X182400000Y-41500000D02*
X188900000Y-41500000D01*
D54*
X182500000Y-41400000D02*
X190205200Y-41400000D01*
X192105200Y-43300000D02*
X189000000Y-40194800D01*
D55*
X197090740Y-43644800D02*
X197073040Y-43662500D01*
D54*
X190205200Y-41400000D02*
X190700000Y-41894800D01*
%TO.N,/3V3_EXTERNAL*%
D60*
X149900000Y-96170000D02*
X147845000Y-94115000D01*
D54*
X147845000Y-89035000D02*
X147845000Y-86045000D01*
D60*
X149900000Y-99600000D02*
X149900000Y-96170000D01*
D54*
X147845000Y-86045000D02*
X146850000Y-85050000D01*
%TO.N,Net-(U3-DOUT{slash}\u002ADRDY)*%
D55*
X229925447Y-73669400D02*
X229925447Y-72700002D01*
X229925447Y-72700002D02*
X232675449Y-69950000D01*
X232675449Y-69950000D02*
X233075449Y-69950000D01*
%TO.N,/pico_spi_rx*%
X236000000Y-69950000D02*
X236750000Y-70700000D01*
X235075449Y-69950000D02*
X236000000Y-69950000D01*
%TO.N,Net-(C19-Pad1)*%
D54*
X167450000Y-57650000D02*
X167450000Y-60250000D01*
X167450000Y-60250000D02*
X167750000Y-60550000D01*
%TO.N,/AIN2_SIGNAL*%
X208707107Y-57407107D02*
X216700000Y-65400000D01*
X208407107Y-57407107D02*
X208707107Y-57407107D01*
X216700000Y-65400000D02*
X222162949Y-65400000D01*
%TO.N,/pico_spi_cs*%
D55*
X236200000Y-63900000D02*
X236900000Y-64600000D01*
X235075449Y-63900000D02*
X236200000Y-63900000D01*
%TO.N,/pico_spi_clk*%
X235950000Y-65900000D02*
X236850000Y-66800000D01*
X235075449Y-65900000D02*
X235950000Y-65900000D01*
%TO.N,/pico_spi_tx*%
X235100000Y-71974551D02*
X235075449Y-71950000D01*
X235100000Y-73400000D02*
X235100000Y-71974551D01*
%TO.N,/pico_irq*%
X235075449Y-67950000D02*
X236000000Y-67950000D01*
X236000000Y-67950000D02*
X236650000Y-68600000D01*
%TO.N,/pico_vg0*%
D56*
X181000000Y-107200000D02*
X182420000Y-105780000D01*
X182420000Y-105780000D02*
X189332500Y-105780000D01*
%TO.N,/pico_vg1*%
D61*
X179870600Y-113442800D02*
X179898400Y-113470600D01*
X186581900Y-113470600D02*
X191872500Y-108180000D01*
X191872500Y-108180000D02*
X191872500Y-106580000D01*
X179898400Y-113470600D02*
X186581900Y-113470600D01*
%TO.N,/pico_vg2*%
X176900000Y-114171400D02*
X190961100Y-114171400D01*
X190961100Y-114171400D02*
X196952500Y-108180000D01*
X196952500Y-108180000D02*
X196952500Y-106580000D01*
%TO.N,/pico_vg3*%
X172900000Y-114871400D02*
X172928600Y-114900000D01*
X172928600Y-114900000D02*
X192400000Y-114900000D01*
X192400000Y-114900000D02*
X199492500Y-107807500D01*
X199492500Y-107807500D02*
X199492500Y-106580000D01*
%TO.N,/pico_vg4*%
X202032500Y-107967500D02*
X202032500Y-106580000D01*
X170300000Y-115600000D02*
X194400000Y-115600000D01*
X194400000Y-115600000D02*
X202032500Y-107967500D01*
%TO.N,/VG4*%
D56*
X174550000Y-67240000D02*
X174550000Y-68950000D01*
X162600000Y-102800000D02*
X162600000Y-78000000D01*
X162600000Y-78000000D02*
X170907107Y-69692893D01*
X170907107Y-69692893D02*
X173807107Y-69692893D01*
X174550000Y-68950000D02*
X173807107Y-69692893D01*
X173907107Y-69692893D02*
X173807107Y-69692893D01*
%TO.N,/VARIABLE_LOAD*%
D54*
X181700000Y-58950000D02*
X182550000Y-58100000D01*
D62*
X187200000Y-58100000D02*
X193800000Y-64700000D01*
D55*
X208250000Y-60100000D02*
X208400000Y-60250000D01*
D62*
X175900000Y-58100000D02*
X178050000Y-58100000D01*
D54*
X175350000Y-60140000D02*
X175350000Y-58650000D01*
X185950000Y-58750000D02*
X186600000Y-58100000D01*
D62*
X182550000Y-58100000D02*
X184450000Y-58100000D01*
X186600000Y-58100000D02*
X187200000Y-58100000D01*
D54*
X177500000Y-58650000D02*
X178050000Y-58100000D01*
D62*
X178050000Y-58100000D02*
X180150000Y-58100000D01*
D54*
X208400000Y-60250000D02*
X209350000Y-60250000D01*
X179600000Y-60140000D02*
X179600000Y-58650000D01*
X198500000Y-73100000D02*
X196900000Y-71500000D01*
X177500000Y-60090000D02*
X177500000Y-58650000D01*
D62*
X193800000Y-68000000D02*
X196200000Y-70400000D01*
D54*
X185950000Y-60190000D02*
X185950000Y-58750000D01*
D62*
X184450000Y-58100000D02*
X186600000Y-58100000D01*
D54*
X183900000Y-58650000D02*
X184450000Y-58100000D01*
X179600000Y-58650000D02*
X180150000Y-58100000D01*
X183900000Y-60190000D02*
X183900000Y-58650000D01*
X181700000Y-60140000D02*
X181700000Y-58950000D01*
D62*
X193800000Y-64700000D02*
X193800000Y-68000000D01*
D54*
X175350000Y-58650000D02*
X175900000Y-58100000D01*
X196900000Y-71500000D02*
X196900000Y-69650000D01*
D62*
X180150000Y-58100000D02*
X182550000Y-58100000D01*
%TO.N,/VD2*%
D54*
X182770000Y-64400000D02*
X183450000Y-65080000D01*
X181700000Y-62140000D02*
X181700000Y-63330000D01*
X181000000Y-64400000D02*
X182770000Y-64400000D01*
X181700000Y-63330000D02*
X182770000Y-64400000D01*
D55*
X179500000Y-62240000D02*
X179600000Y-62140000D01*
D54*
X179600000Y-63000000D02*
X181000000Y-64400000D01*
X179600000Y-62140000D02*
X179600000Y-63000000D01*
%TO.N,Net-(C21-Pad1)*%
D56*
X227500000Y-47337500D02*
X227762500Y-47600000D01*
X227500000Y-45100000D02*
X227500000Y-47337500D01*
%TO.N,/VD3*%
D54*
X178780000Y-65080000D02*
X179350000Y-65080000D01*
X177500000Y-62090000D02*
X177500000Y-63800000D01*
X177500000Y-63800000D02*
X178780000Y-65080000D01*
%TO.N,/c1_vin_jump*%
X161350000Y-34450000D02*
X166650000Y-39750000D01*
X171500000Y-55060000D02*
X171500000Y-44400000D01*
X161250000Y-45700000D02*
X167200000Y-39750000D01*
X167200000Y-39750000D02*
X168100000Y-39750000D01*
X168100000Y-41000000D02*
X168100000Y-39750000D01*
D57*
X159500000Y-40800000D02*
X159400000Y-40700000D01*
D54*
X166650000Y-39750000D02*
X168100000Y-39750000D01*
D57*
X161350000Y-35450000D02*
X161350000Y-34450000D01*
D54*
X171500000Y-44400000D02*
X168100000Y-41000000D01*
X167450000Y-55110000D02*
X167450000Y-40400000D01*
D57*
X159400000Y-40700000D02*
X159400000Y-37400000D01*
D54*
X167450000Y-40400000D02*
X168100000Y-39750000D01*
D57*
X159400000Y-37400000D02*
X161350000Y-35450000D01*
%TO.N,Net-(C18-Pad1)*%
D54*
X171500000Y-60200000D02*
X171750000Y-60450000D01*
X171500000Y-57600000D02*
X171500000Y-60200000D01*
%TO.N,/VSIG_BUF*%
D56*
X175300000Y-36200000D02*
X176370000Y-36200000D01*
X180400000Y-27900000D02*
X182100000Y-26200000D01*
X180400000Y-30500000D02*
X180400000Y-27900000D01*
X190285786Y-26200000D02*
X190592893Y-26507107D01*
X176370000Y-36200000D02*
X181185000Y-31385000D01*
X181185000Y-31385000D02*
X182720000Y-31385000D01*
X182720000Y-31385000D02*
X181285000Y-31385000D01*
D55*
X182650000Y-31455000D02*
X182720000Y-31385000D01*
D56*
X181285000Y-31385000D02*
X180400000Y-30500000D01*
X182100000Y-26200000D02*
X190285786Y-26200000D01*
%TO.N,Net-(J15-Pad1)*%
X191114214Y-24200000D02*
X192007107Y-25092893D01*
X180340000Y-21840000D02*
X182700000Y-24200000D01*
X182700000Y-24200000D02*
X191114214Y-24200000D01*
X176560000Y-21840000D02*
X180340000Y-21840000D01*
%TO.N,Net-(C25-Pad1)*%
X227540000Y-57977500D02*
X227962500Y-58400000D01*
X227540000Y-55700000D02*
X227540000Y-57977500D01*
%TO.N,/AIN0_SIGNAL*%
D54*
X221100000Y-69700000D02*
X221100000Y-69500000D01*
X210188000Y-72638000D02*
X218162000Y-72638000D01*
X219200000Y-69500000D02*
X222175449Y-69500000D01*
X218162000Y-72638000D02*
X221100000Y-69700000D01*
X217900000Y-70800000D02*
X219200000Y-69500000D01*
X213200000Y-70800000D02*
X217900000Y-70800000D01*
X213150000Y-70750000D02*
X213200000Y-70800000D01*
X209300000Y-71750000D02*
X210188000Y-72638000D01*
X209300000Y-70600000D02*
X209300000Y-71750000D01*
%TO.N,/1V8*%
D56*
X155750000Y-28250000D02*
X161050000Y-28250000D01*
D57*
X157200000Y-37500000D02*
X155250000Y-35550000D01*
D56*
X152750000Y-25250000D02*
X155750000Y-28250000D01*
D60*
X154300000Y-33500000D02*
X152300000Y-33500000D01*
D54*
X152750000Y-25250000D02*
X152750000Y-31950000D01*
D60*
X149000000Y-41600000D02*
X153600000Y-41600000D01*
X149223600Y-33500000D02*
X145750000Y-33500000D01*
X152300000Y-33500000D02*
X149223600Y-33500000D01*
X155250000Y-34450000D02*
X154300000Y-33500000D01*
D54*
X161050000Y-28250000D02*
X169000000Y-36200000D01*
D60*
X145750000Y-33500000D02*
X145750000Y-38350000D01*
D57*
X155250000Y-35550000D02*
X155250000Y-34450000D01*
D60*
X145750000Y-38350000D02*
X149000000Y-41600000D01*
D54*
X152750000Y-31950000D02*
X155250000Y-34450000D01*
X145750000Y-27991576D02*
X145729212Y-27970788D01*
D57*
X157200000Y-40800000D02*
X157200000Y-37500000D01*
D54*
X145750000Y-33500000D02*
X145750000Y-27991576D01*
X169000000Y-36200000D02*
X173300000Y-36200000D01*
%TO.N,Net-(R49-Pad1)*%
X214900000Y-60200000D02*
X217600000Y-60200000D01*
X210414214Y-55714214D02*
X214900000Y-60200000D01*
X217600000Y-60200000D02*
X217700000Y-60100000D01*
X210414214Y-55514214D02*
X210414214Y-55714214D01*
%TO.N,Net-(U2-OTA_OUT)*%
X206800000Y-51900000D02*
X209000000Y-54100000D01*
X205600000Y-51900000D02*
X206800000Y-51900000D01*
X204480868Y-50780868D02*
X204480868Y-50119132D01*
X204480868Y-50780868D02*
X204480868Y-49879380D01*
X205200000Y-51500000D02*
X205200000Y-54200000D01*
X204480868Y-50780868D02*
X205600000Y-51900000D01*
D55*
X202487500Y-47787500D02*
X202487500Y-46837500D01*
X204500000Y-49800000D02*
X202487500Y-47787500D01*
D54*
X205200000Y-54200000D02*
X206992893Y-55992893D01*
%TO.N,Net-(U3-\u002ACS)*%
D55*
X229925450Y-68030600D02*
X229925450Y-66449999D01*
X229925450Y-66449999D02*
X232575449Y-63800000D01*
X232975449Y-63800000D02*
X233075449Y-63900000D01*
X232575449Y-63800000D02*
X232975449Y-63800000D01*
%TO.N,/VG2*%
D56*
X170500000Y-79200000D02*
X179807107Y-69892893D01*
X170500000Y-96800000D02*
X170500000Y-79200000D01*
X182500000Y-67200000D02*
X182500000Y-69300000D01*
X182500000Y-69300000D02*
X181907107Y-69892893D01*
X179807107Y-69892893D02*
X181907107Y-69892893D01*
%TO.N,/AIN1_ADC*%
D55*
X225582450Y-71550000D02*
X226353950Y-72321499D01*
X224212949Y-73600000D02*
X225716450Y-72096499D01*
X225716450Y-72096499D02*
X226128950Y-72096499D01*
X224200449Y-71550000D02*
X225582450Y-71550000D01*
X226128950Y-72096499D02*
X226353950Y-72321499D01*
X226353950Y-72321499D02*
X226675448Y-72642998D01*
X226675448Y-72642998D02*
X226675448Y-73669400D01*
%TO.N,Net-(R50-Pad2)*%
X198600000Y-47153422D02*
X198303422Y-47450000D01*
X198600000Y-46850000D02*
X198600000Y-47153422D01*
X197500000Y-48250000D02*
X194516310Y-48250000D01*
X198587500Y-46837500D02*
X198600000Y-46850000D01*
X198303422Y-47450000D02*
X198300000Y-47450000D01*
X194516310Y-48250000D02*
X193572618Y-49193692D01*
X198300000Y-47450000D02*
X197500000Y-48250000D01*
%TO.N,/VOUT*%
D63*
X213150000Y-65250000D02*
X214300000Y-66400000D01*
X213150000Y-68000000D02*
X213150000Y-65250000D01*
D54*
X175650000Y-46200000D02*
X176050000Y-45800000D01*
D63*
X203814239Y-60038986D02*
X205361014Y-60038986D01*
D60*
X235400000Y-29400000D02*
X230000000Y-29400000D01*
D63*
X210000000Y-62100000D02*
X208250000Y-62100000D01*
D57*
X201200000Y-63600000D02*
X201200000Y-60600000D01*
X201761014Y-60038986D02*
X203814239Y-60038986D01*
D60*
X230000000Y-29400000D02*
X221500000Y-37900000D01*
D63*
X213150000Y-65250000D02*
X210000000Y-62100000D01*
D54*
X203814239Y-60614239D02*
X203814239Y-60038986D01*
X175650000Y-48400000D02*
X175650000Y-46200000D01*
D63*
X207422028Y-62100000D02*
X208250000Y-62100000D01*
D54*
X205300000Y-62100000D02*
X203814239Y-60614239D01*
D63*
X214300000Y-66400000D02*
X215200000Y-66400000D01*
X205361014Y-60038986D02*
X207422028Y-62100000D01*
D57*
X201200000Y-60600000D02*
X201761014Y-60038986D01*
D60*
X221500000Y-37900000D02*
X221500000Y-57100000D01*
%TO.N,Net-(U3-\u002ADRDY)*%
D55*
X229275448Y-73669400D02*
X229275448Y-72700001D01*
X232375449Y-67950000D02*
X233075449Y-67950000D01*
X231425449Y-68900000D02*
X232375449Y-67950000D01*
X231425449Y-70550000D02*
X231425449Y-68900000D01*
X229275448Y-72700001D02*
X231425449Y-70550000D01*
%TO.N,/AIN3_LDO_GND*%
D54*
X227251649Y-64598351D02*
X227251649Y-65523800D01*
D55*
X227175449Y-66862200D02*
X227325450Y-67012201D01*
D54*
X228250000Y-63600000D02*
X227251649Y-64598351D01*
D55*
X227325450Y-67012201D02*
X227325450Y-68030600D01*
X227175449Y-65600000D02*
X227175449Y-66862200D01*
%TO.N,Net-(C25-Pad2)*%
D56*
X230037500Y-58400000D02*
X234300000Y-58400000D01*
X234300000Y-58400000D02*
X234800000Y-57900000D01*
%TO.N,Net-(U3-SCLK)*%
D55*
X231725449Y-65900000D02*
X233075449Y-65900000D01*
X230575448Y-67050001D02*
X231725449Y-65900000D01*
X230575448Y-68030600D02*
X230575448Y-67050001D01*
%TO.N,/AIN0_ADC*%
X227325450Y-70900001D02*
X227325450Y-71650000D01*
X227325450Y-71650000D02*
X227325450Y-73669400D01*
X224175449Y-67750000D02*
X227325450Y-70900001D01*
X225175450Y-69500000D02*
X227325450Y-71650000D01*
X224175449Y-67450000D02*
X224175449Y-67750000D01*
X224175449Y-69500000D02*
X225175450Y-69500000D01*
%TO.N,Net-(U3-DIN)*%
X230575448Y-73669400D02*
X230575448Y-72750001D01*
X230575448Y-72750001D02*
X231375449Y-71950000D01*
X231375449Y-71950000D02*
X233075449Y-71950000D01*
%TO.N,/VG3*%
D56*
X178400000Y-69200000D02*
X177800000Y-69800000D01*
X178400000Y-67200000D02*
X178400000Y-69200000D01*
X166600000Y-78900000D02*
X175700000Y-69800000D01*
X175700000Y-69800000D02*
X177800000Y-69800000D01*
X166600000Y-99500000D02*
X166600000Y-78900000D01*
%TO.N,Net-(JP3-Pad1)*%
D54*
X169720000Y-31970000D02*
X169720000Y-30655000D01*
X171250000Y-33500000D02*
X169720000Y-31970000D01*
X173150000Y-33500000D02*
X171250000Y-33500000D01*
%TO.N,Net-(C20-Pad2)*%
D56*
X234400000Y-46600000D02*
X234700000Y-46600000D01*
X229737500Y-42500000D02*
X230300000Y-42500000D01*
X230300000Y-42500000D02*
X234400000Y-46600000D01*
%TO.N,/VSIG*%
X174775880Y-30274120D02*
X175374120Y-30274120D01*
X175374120Y-30274120D02*
X176485000Y-31385000D01*
X176485000Y-31385000D02*
X177780000Y-31385000D01*
%TO.N,Net-(U4-BW)*%
X177780000Y-28845000D02*
X174070000Y-28845000D01*
X174070000Y-28845000D02*
X172260000Y-30655000D01*
%TO.N,/VDD_BUF*%
X182720000Y-30115000D02*
X185357500Y-30115000D01*
D55*
X185357500Y-30115000D02*
X185552500Y-30310000D01*
D54*
X185552500Y-32852500D02*
X185552500Y-30310000D01*
%TO.N,Net-(R51-Pad2)*%
D55*
X197689378Y-48707200D02*
X198489378Y-47907200D01*
X198492800Y-47907200D02*
X199237500Y-47162500D01*
X198489378Y-47907200D02*
X198492800Y-47907200D01*
X196542800Y-48707200D02*
X197689378Y-48707200D01*
X199237500Y-47126961D02*
X199237500Y-46837500D01*
X195345236Y-49904764D02*
X196542800Y-48707200D01*
X199237500Y-47162500D02*
X199237500Y-46837500D01*
X195345236Y-50037384D02*
X195345236Y-49904764D01*
%TO.N,Net-(R52-Pad2)*%
X197256308Y-50893692D02*
X197122618Y-50893692D01*
X199887500Y-47312500D02*
X197500000Y-49700000D01*
X199887500Y-46837500D02*
X199887500Y-47312500D01*
X197500000Y-50650000D02*
X197256308Y-50893692D01*
X197500000Y-49700000D02*
X197500000Y-50650000D01*
%TO.N,Net-(R53-Pad2)*%
X198450000Y-51221074D02*
X198922618Y-51693692D01*
X198450000Y-49600000D02*
X198450000Y-51221074D01*
X200537500Y-47512500D02*
X198450000Y-49600000D01*
X200537500Y-46837500D02*
X200537500Y-47491500D01*
%TO.N,/BGR_VREF*%
X204362500Y-44312500D02*
X205232546Y-44312500D01*
D54*
X207400000Y-43550000D02*
X208950000Y-43550000D01*
D55*
X220300000Y-36600000D02*
X220325000Y-36625000D01*
X205235246Y-44309800D02*
X206450000Y-44309800D01*
X205232546Y-44312500D02*
X205235246Y-44309800D01*
D54*
X210690200Y-44309800D02*
X218500000Y-36500000D01*
X214700000Y-37800000D02*
X214700000Y-36575000D01*
X218500000Y-36500000D02*
X219800000Y-36500000D01*
X207400000Y-43550000D02*
X208159800Y-44309800D01*
D55*
X207400000Y-43550000D02*
X207209800Y-43550000D01*
D54*
X208159800Y-44309800D02*
X210690200Y-44309800D01*
X207209800Y-43550000D02*
X206450000Y-44309800D01*
X208950000Y-43550000D02*
X214700000Y-37800000D01*
%TO.N,Net-(U2-EP)*%
D55*
X195214214Y-37914214D02*
X199362500Y-42062500D01*
X199362500Y-42062500D02*
X199587500Y-42062500D01*
%TO.N,/VG1*%
D56*
X174800000Y-92500000D02*
X174800000Y-78900000D01*
X174800000Y-78900000D02*
X183707107Y-69992893D01*
X186300000Y-69400000D02*
X185707107Y-69992893D01*
X186300000Y-67100000D02*
X186300000Y-69400000D01*
X183707107Y-69992893D02*
X185707107Y-69992893D01*
%TO.N,/VG0*%
X178900000Y-87700000D02*
X178900000Y-78700000D01*
X178900000Y-78700000D02*
X187500000Y-70100000D01*
X190100000Y-69500000D02*
X189500000Y-70100000D01*
X187500000Y-70100000D02*
X189500000Y-70100000D01*
X190100000Y-67100000D02*
X190100000Y-69500000D01*
%TO.N,Net-(C22-Pad1)*%
X227500000Y-52737500D02*
X227862500Y-53100000D01*
X227500000Y-50300000D02*
X227500000Y-52737500D01*
%TO.N,Net-(C22-Pad2)*%
X231900000Y-53600000D02*
X231400000Y-53100000D01*
X234700000Y-53600000D02*
X231900000Y-53600000D01*
X231400000Y-53100000D02*
X229937500Y-53100000D01*
%TO.N,Net-(J20-Pad1)*%
D54*
X219800000Y-34500000D02*
X221100000Y-33200000D01*
X221100000Y-33200000D02*
X221900000Y-33200000D01*
%TO.N,/VD4*%
X175350000Y-62140000D02*
X175500000Y-62290000D01*
X175500000Y-62290000D02*
X175500000Y-65120000D01*
%TO.N,/VD1*%
X185700000Y-64900000D02*
X187170000Y-64900000D01*
X183900000Y-62190000D02*
X183900000Y-63100000D01*
X187170000Y-64900000D02*
X187250000Y-64980000D01*
X183900000Y-63100000D02*
X185700000Y-64900000D01*
%TO.N,/VD0*%
X185950000Y-62650000D02*
X186800000Y-63500000D01*
X188300000Y-63500000D02*
X189780000Y-64980000D01*
X186800000Y-63500000D02*
X188300000Y-63500000D01*
X185950000Y-62190000D02*
X185950000Y-62650000D01*
X189780000Y-64980000D02*
X191050000Y-64980000D01*
%TD*%
M02*
