%TF.GenerationSoftware,KiCad,Pcbnew,10.0.6*%
%TF.CreationDate,2026-10-06T12:18:15-07:00*%
%TF.ProjectId,ee372b-ldo-testbench,65653337-3262-42d6-9c64-6f2d74657374,rev?*%
%TF.SameCoordinates,Original*%
%TF.FileFunction,Soldermask,Bot*%
%TF.FilePolarity,Negative*%
%FSLAX46Y46*%
G04 Gerber Fmt 4.6, Leading zero omitted, Abs format (unit mm)*
G04 Created by KiCad (PCBNEW 10.0.6) date 2026-10-06 12:18:15*
%MOMM*%
%LPD*%
G01*
G04 APERTURE LIST*
G04 Aperture macros list*
%AMRoundRect*
0 Rectangle with rounded corners*
0 $1 Rounding radius*
0 $2 $3 $4 $5 $6 $7 $8 $9 X,Y pos of 4 corners*
0 Add a 4 corners polygon primitive as box body*
4,1,4,$2,$3,$4,$5,$6,$7,$8,$9,$2,$3,0*
0 Add four circle primitives for the rounded corners*
1,1,$1+$1,$2,$3*
1,1,$1+$1,$4,$5*
1,1,$1+$1,$6,$7*
1,1,$1+$1,$8,$9*
0 Add four rect primitives between the rounded corners*
20,1,$1+$1,$2,$3,$4,$5,0*
20,1,$1+$1,$4,$5,$6,$7,0*
20,1,$1+$1,$6,$7,$8,$9,0*
20,1,$1+$1,$8,$9,$2,$3,0*%
%AMFreePoly0*
4,1,37,0.603843,0.796157,0.639018,0.796157,0.711114,0.766294,0.766294,0.711114,0.796157,0.639018,0.796157,0.603843,0.800000,0.600000,0.800000,-0.600000,0.796157,-0.603843,0.796157,-0.639018,0.766294,-0.711114,0.711114,-0.766294,0.639018,-0.796157,0.603843,-0.796157,0.600000,-0.800000,0.000000,-0.800000,0.000000,-0.796148,-0.078414,-0.796148,-0.232228,-0.765552,-0.377117,-0.705537,
-0.507515,-0.618408,-0.618408,-0.507515,-0.705537,-0.377117,-0.765552,-0.232228,-0.796148,-0.078414,-0.796148,0.078414,-0.765552,0.232228,-0.705537,0.377117,-0.618408,0.507515,-0.507515,0.618408,-0.377117,0.705537,-0.232228,0.765552,-0.078414,0.796148,0.000000,0.796148,0.000000,0.800000,0.600000,0.800000,0.603843,0.796157,0.603843,0.796157,$1*%
%AMFreePoly1*
4,1,37,0.000000,0.796148,0.078414,0.796148,0.232228,0.765552,0.377117,0.705537,0.507515,0.618408,0.618408,0.507515,0.705537,0.377117,0.765552,0.232228,0.796148,0.078414,0.796148,-0.078414,0.765552,-0.232228,0.705537,-0.377117,0.618408,-0.507515,0.507515,-0.618408,0.377117,-0.705537,0.232228,-0.765552,0.078414,-0.796148,0.000000,-0.796148,0.000000,-0.800000,-0.600000,-0.800000,
-0.603843,-0.796157,-0.639018,-0.796157,-0.711114,-0.766294,-0.766294,-0.711114,-0.796157,-0.639018,-0.796157,-0.603843,-0.800000,-0.600000,-0.800000,0.600000,-0.796157,0.603843,-0.796157,0.639018,-0.766294,0.711114,-0.711114,0.766294,-0.639018,0.796157,-0.603843,0.796157,-0.600000,0.800000,0.000000,0.800000,0.000000,0.796148,0.000000,0.796148,$1*%
G04 Aperture macros list end*
%ADD10C,2.200000*%
%ADD11C,1.850000*%
%ADD12RoundRect,0.200000X-0.600000X0.600000X-0.600000X-0.600000X0.600000X-0.600000X0.600000X0.600000X0*%
%ADD13C,1.600000*%
%ADD14FreePoly0,270.000000*%
%ADD15FreePoly1,270.000000*%
%ADD16C,2.550000*%
%ADD17C,1.524000*%
%ADD18C,2.500000*%
%ADD19C,2.604000*%
%ADD20C,0.637500*%
%ADD21C,1.404000*%
%ADD22RoundRect,0.102000X-0.600000X-0.600000X0.600000X-0.600000X0.600000X0.600000X-0.600000X0.600000X0*%
G04 APERTURE END LIST*
D10*
%TO.C,A1*%
X237462500Y-94165000D03*
D11*
X234432500Y-94465000D03*
X234432500Y-99315000D03*
D10*
X237462500Y-99615000D03*
D12*
X237592500Y-88000000D03*
D13*
X235052500Y-88000000D03*
D14*
X232512500Y-88000000D03*
D13*
X229972500Y-88000000D03*
X227432500Y-88000000D03*
X224892500Y-88000000D03*
X222352500Y-88000000D03*
D14*
X219812500Y-88000000D03*
D13*
X217272500Y-88000000D03*
X214732500Y-88000000D03*
X212192500Y-88000000D03*
X209652500Y-88000000D03*
D14*
X207112500Y-88000000D03*
D13*
X204572500Y-88000000D03*
X202032500Y-88000000D03*
X199492500Y-88000000D03*
X196952500Y-88000000D03*
D14*
X194412500Y-88000000D03*
D13*
X191872500Y-88000000D03*
X189332500Y-88000000D03*
X189332500Y-105780000D03*
X191872500Y-105780000D03*
D15*
X194412500Y-105780000D03*
D13*
X196952500Y-105780000D03*
X199492500Y-105780000D03*
X202032500Y-105780000D03*
X204572500Y-105780000D03*
D15*
X207112500Y-105780000D03*
D13*
X209652500Y-105780000D03*
X212192500Y-105780000D03*
X214732500Y-105780000D03*
X217272500Y-105780000D03*
D15*
X219812500Y-105780000D03*
D13*
X222352500Y-105780000D03*
X224892500Y-105780000D03*
X227432500Y-105780000D03*
X229972500Y-105780000D03*
D15*
X232512500Y-105780000D03*
D13*
X235052500Y-105780000D03*
X237592500Y-105780000D03*
%TD*%
D16*
%TO.C,J6*%
X232910000Y-48790000D03*
X237990000Y-48790000D03*
X232910000Y-43710000D03*
X237990000Y-43710000D03*
%TD*%
D17*
%TO.C,J19*%
X169742000Y-79650000D03*
X169742000Y-77110000D03*
X169742000Y-74570000D03*
%TD*%
%TO.C,J24*%
X236360200Y-54529800D03*
X236360200Y-57069800D03*
%TD*%
%TO.C,J22*%
X227530100Y-54534900D03*
X227530100Y-57074900D03*
%TD*%
%TO.C,J2*%
X171500000Y-55060000D03*
X171500000Y-57600000D03*
%TD*%
D16*
%TO.C,J3*%
X147730000Y-74110000D03*
X142650000Y-74110000D03*
X147730000Y-79190000D03*
X142650000Y-79190000D03*
%TD*%
D18*
%TO.C,H3*%
X235000000Y-22000000D03*
%TD*%
%TO.C,H1*%
X145000000Y-112000000D03*
%TD*%
D17*
%TO.C,J18*%
X174642000Y-79690000D03*
X174642000Y-77150000D03*
X174642000Y-74610000D03*
%TD*%
D19*
%TO.C,J10*%
X223650000Y-22200000D03*
X221110000Y-19660000D03*
X226190000Y-19660000D03*
X221110000Y-24740000D03*
X226190000Y-24740000D03*
%TD*%
D17*
%TO.C,J23*%
X223050000Y-54310000D03*
X223050000Y-56850000D03*
%TD*%
D16*
%TO.C,J11*%
X232910000Y-33690000D03*
X237990000Y-33690000D03*
X232910000Y-28610000D03*
X237990000Y-28610000D03*
%TD*%
D19*
%TO.C,J13*%
X169180000Y-22155000D03*
X166640000Y-19615000D03*
X171720000Y-19615000D03*
X166640000Y-24695000D03*
X171720000Y-24695000D03*
%TD*%
D18*
%TO.C,H2*%
X235000000Y-112000000D03*
%TD*%
D17*
%TO.C,J1*%
X167450000Y-55110000D03*
X167450000Y-57650000D03*
%TD*%
D20*
%TO.C,U2*%
X199587500Y-42062500D03*
X199587500Y-43337500D03*
X199587500Y-44612500D03*
X200862500Y-42062500D03*
X200862500Y-43337500D03*
X200862500Y-44612500D03*
X202137500Y-42062500D03*
X202137500Y-43337500D03*
X202137500Y-44612500D03*
%TD*%
D19*
%TO.C,J15*%
X191180000Y-22155000D03*
X188640000Y-19615000D03*
X193720000Y-19615000D03*
X188640000Y-24695000D03*
X193720000Y-24695000D03*
%TD*%
D17*
%TO.C,J25*%
X217440000Y-80058000D03*
X214900000Y-80058000D03*
X212360000Y-80058000D03*
%TD*%
%TO.C,J21*%
X231960200Y-54529800D03*
X231960200Y-57069800D03*
%TD*%
D19*
%TO.C,J20*%
X208760000Y-21910000D03*
X206220000Y-19370000D03*
X211300000Y-19370000D03*
X206220000Y-24450000D03*
X211300000Y-24450000D03*
%TD*%
D17*
%TO.C,J16*%
X184450000Y-79580000D03*
X184450000Y-77040000D03*
X184450000Y-74500000D03*
%TD*%
D16*
%TO.C,J4*%
X147680000Y-44210000D03*
X142600000Y-44210000D03*
X147680000Y-49290000D03*
X142600000Y-49290000D03*
%TD*%
D17*
%TO.C,JP3*%
X169720000Y-30655000D03*
X172260000Y-30655000D03*
%TD*%
D19*
%TO.C,J9*%
X145750000Y-33500000D03*
X143210000Y-30960000D03*
X148290000Y-30960000D03*
X143210000Y-36040000D03*
X148290000Y-36040000D03*
%TD*%
D17*
%TO.C,J17*%
X179642000Y-79690000D03*
X179642000Y-77150000D03*
X179642000Y-74610000D03*
%TD*%
D18*
%TO.C,H4*%
X145000000Y-22000000D03*
%TD*%
D16*
%TO.C,J12*%
X147680000Y-59210000D03*
X142600000Y-59210000D03*
X147680000Y-64290000D03*
X142600000Y-64290000D03*
%TD*%
D17*
%TO.C,J14*%
X189300000Y-79630000D03*
X189300000Y-77090000D03*
X189300000Y-74550000D03*
%TD*%
D21*
%TO.C,C11*%
X156250000Y-25250000D03*
D22*
X152750000Y-25250000D03*
%TD*%
D16*
%TO.C,J5*%
X147845000Y-89035000D03*
X142765000Y-89035000D03*
X147845000Y-94115000D03*
X142765000Y-94115000D03*
%TD*%
M02*
