%TF.GenerationSoftware,KiCad,Pcbnew,10.0.6*%
%TF.CreationDate,2026-10-08T18:15:12-07:00*%
%TF.ProjectId,ee372b-ldo-testbench,65653337-3262-42d6-9c64-6f2d74657374,rev?*%
%TF.SameCoordinates,Original*%
%TF.FileFunction,Soldermask,Top*%
%TF.FilePolarity,Negative*%
%FSLAX46Y46*%
G04 Gerber Fmt 4.6, Leading zero omitted, Abs format (unit mm)*
G04 Created by KiCad (PCBNEW 10.0.6) date 2026-10-08 18:15:12*
%MOMM*%
%LPD*%
G01*
G04 APERTURE LIST*
G04 Aperture macros list*
%AMRoundRect*
0 Rectangle with rounded corners*
0 $1 Rounding radius*
0 $2 $3 $4 $5 $6 $7 $8 $9 X,Y pos of 4 corners*
0 Add a 4 corners polygon primitive as box body*
4,1,4,$2,$3,$4,$5,$6,$7,$8,$9,$2,$3,0*
0 Add four circle primitives for the rounded corners*
1,1,$1+$1,$2,$3*
1,1,$1+$1,$4,$5*
1,1,$1+$1,$6,$7*
1,1,$1+$1,$8,$9*
0 Add four rect primitives between the rounded corners*
20,1,$1+$1,$2,$3,$4,$5,0*
20,1,$1+$1,$4,$5,$6,$7,0*
20,1,$1+$1,$6,$7,$8,$9,0*
20,1,$1+$1,$8,$9,$2,$3,0*%
%AMRotRect*
0 Rectangle, with rotation*
0 The origin of the aperture is its center*
0 $1 length*
0 $2 width*
0 $3 Rotation angle, in degrees counterclockwise*
0 Add horizontal line*
21,1,$1,$2,0,0,$3*%
%AMFreePoly0*
4,1,37,0.800000,0.796148,0.878414,0.796148,1.032228,0.765552,1.177117,0.705537,1.307515,0.618408,1.418408,0.507515,1.505537,0.377117,1.565552,0.232228,1.596148,0.078414,1.596148,-0.078414,1.565552,-0.232228,1.505537,-0.377117,1.418408,-0.507515,1.307515,-0.618408,1.177117,-0.705537,1.032228,-0.765552,0.878414,-0.796148,0.800000,-0.796148,0.800000,-0.800000,-1.400000,-0.800000,
-1.403843,-0.796157,-1.439018,-0.796157,-1.511114,-0.766294,-1.566294,-0.711114,-1.596157,-0.639018,-1.596157,-0.603843,-1.600000,-0.600000,-1.600000,0.600000,-1.596157,0.603843,-1.596157,0.639018,-1.566294,0.711114,-1.511114,0.766294,-1.439018,0.796157,-1.403843,0.796157,-1.400000,0.800000,0.800000,0.800000,0.800000,0.796148,0.800000,0.796148,$1*%
%AMFreePoly1*
4,1,37,1.403843,0.796157,1.439018,0.796157,1.511114,0.766294,1.566294,0.711114,1.596157,0.639018,1.596157,0.603843,1.600000,0.600000,1.600000,-0.600000,1.596157,-0.603843,1.596157,-0.639018,1.566294,-0.711114,1.511114,-0.766294,1.439018,-0.796157,1.403843,-0.796157,1.400000,-0.800000,-0.800000,-0.800000,-0.800000,-0.796148,-0.878414,-0.796148,-1.032228,-0.765552,-1.177117,-0.705537,
-1.307515,-0.618408,-1.418408,-0.507515,-1.505537,-0.377117,-1.565552,-0.232228,-1.596148,-0.078414,-1.596148,0.078414,-1.565552,0.232228,-1.505537,0.377117,-1.418408,0.507515,-1.307515,0.618408,-1.177117,0.705537,-1.032228,0.765552,-0.878414,0.796148,-0.800000,0.796148,-0.800000,0.800000,1.400000,0.800000,1.403843,0.796157,1.403843,0.796157,$1*%
%AMFreePoly2*
4,1,37,0.603843,0.796157,0.639018,0.796157,0.711114,0.766294,0.766294,0.711114,0.796157,0.639018,0.796157,0.603843,0.800000,0.600000,0.800000,-0.600000,0.796157,-0.603843,0.796157,-0.639018,0.766294,-0.711114,0.711114,-0.766294,0.639018,-0.796157,0.603843,-0.796157,0.600000,-0.800000,0.000000,-0.800000,0.000000,-0.796148,-0.078414,-0.796148,-0.232228,-0.765552,-0.377117,-0.705537,
-0.507515,-0.618408,-0.618408,-0.507515,-0.705537,-0.377117,-0.765552,-0.232228,-0.796148,-0.078414,-0.796148,0.078414,-0.765552,0.232228,-0.705537,0.377117,-0.618408,0.507515,-0.507515,0.618408,-0.377117,0.705537,-0.232228,0.765552,-0.078414,0.796148,0.000000,0.796148,0.000000,0.800000,0.600000,0.800000,0.603843,0.796157,0.603843,0.796157,$1*%
%AMFreePoly3*
4,1,37,0.000000,0.796148,0.078414,0.796148,0.232228,0.765552,0.377117,0.705537,0.507515,0.618408,0.618408,0.507515,0.705537,0.377117,0.765552,0.232228,0.796148,0.078414,0.796148,-0.078414,0.765552,-0.232228,0.705537,-0.377117,0.618408,-0.507515,0.507515,-0.618408,0.377117,-0.705537,0.232228,-0.765552,0.078414,-0.796148,0.000000,-0.796148,0.000000,-0.800000,-0.600000,-0.800000,
-0.603843,-0.796157,-0.639018,-0.796157,-0.711114,-0.766294,-0.766294,-0.711114,-0.796157,-0.639018,-0.796157,-0.603843,-0.800000,-0.600000,-0.800000,0.600000,-0.796157,0.603843,-0.796157,0.639018,-0.766294,0.711114,-0.711114,0.766294,-0.639018,0.796157,-0.603843,0.796157,-0.600000,0.800000,0.000000,0.800000,0.000000,0.796148,0.000000,0.796148,$1*%
G04 Aperture macros list end*
%ADD10C,1.000000*%
%ADD11RoundRect,0.250000X-0.337500X-0.475000X0.337500X-0.475000X0.337500X0.475000X-0.337500X0.475000X0*%
%ADD12RoundRect,0.250000X0.350000X0.450000X-0.350000X0.450000X-0.350000X-0.450000X0.350000X-0.450000X0*%
%ADD13RoundRect,0.250000X0.337500X0.475000X-0.337500X0.475000X-0.337500X-0.475000X0.337500X-0.475000X0*%
%ADD14RoundRect,0.102000X2.350000X1.715000X-2.350000X1.715000X-2.350000X-1.715000X2.350000X-1.715000X0*%
%ADD15RoundRect,0.250000X-0.450000X0.350000X-0.450000X-0.350000X0.450000X-0.350000X0.450000X0.350000X0*%
%ADD16C,1.524000*%
%ADD17RoundRect,0.250000X-0.350000X-0.450000X0.350000X-0.450000X0.350000X0.450000X-0.350000X0.450000X0*%
%ADD18RoundRect,0.250000X0.450000X-0.350000X0.450000X0.350000X-0.450000X0.350000X-0.450000X-0.350000X0*%
%ADD19RoundRect,0.250000X-0.475000X0.337500X-0.475000X-0.337500X0.475000X-0.337500X0.475000X0.337500X0*%
%ADD20RoundRect,0.102000X-0.449013X-2.874389X2.874389X0.449013X0.449013X2.874389X-2.874389X-0.449013X0*%
%ADD21C,2.200000*%
%ADD22C,1.850000*%
%ADD23FreePoly0,270.000000*%
%ADD24RoundRect,0.200000X-0.600000X0.600000X-0.600000X-0.600000X0.600000X-0.600000X0.600000X0.600000X0*%
%ADD25RoundRect,0.800000X-0.000010X0.800000X-0.000010X-0.800000X0.000010X-0.800000X0.000010X0.800000X0*%
%ADD26C,1.600000*%
%ADD27FreePoly1,270.000000*%
%ADD28FreePoly2,270.000000*%
%ADD29FreePoly3,270.000000*%
%ADD30RoundRect,0.102000X-2.350000X-1.715000X2.350000X-1.715000X2.350000X1.715000X-2.350000X1.715000X0*%
%ADD31C,2.550000*%
%ADD32RoundRect,0.250000X0.070711X-0.565685X0.565685X-0.070711X-0.070711X0.565685X-0.565685X0.070711X0*%
%ADD33RoundRect,0.249999X-0.450001X-1.425001X0.450001X-1.425001X0.450001X1.425001X-0.450001X1.425001X0*%
%ADD34RoundRect,0.250000X0.565685X0.070711X0.070711X0.565685X-0.565685X-0.070711X-0.070711X-0.565685X0*%
%ADD35C,2.500000*%
%ADD36RoundRect,0.102000X2.874389X-0.449013X-0.449013X2.874389X-2.874389X0.449013X0.449013X-2.874389X0*%
%ADD37RoundRect,0.250000X0.574524X0.097227X0.097227X0.574524X-0.574524X-0.097227X-0.097227X-0.574524X0*%
%ADD38RoundRect,0.177000X0.225000X-0.540000X0.225000X0.540000X-0.225000X0.540000X-0.225000X-0.540000X0*%
%ADD39RoundRect,0.250000X-0.070711X0.565685X-0.565685X0.070711X0.070711X-0.565685X0.565685X-0.070711X0*%
%ADD40RoundRect,0.250000X0.259922X-0.507386X0.555755X0.127030X-0.259922X0.507386X-0.555755X-0.127030X0*%
%ADD41RoundRect,0.249999X-1.010071X-1.101311X-0.194392X-1.481668X1.010071X1.101311X0.194392X1.481668X0*%
%ADD42R,0.355600X1.676400*%
%ADD43C,2.604000*%
%ADD44RotRect,1.219200X0.762000X45.000000*%
%ADD45RoundRect,0.177000X-0.910000X-0.225000X0.910000X-0.225000X0.910000X0.225000X-0.910000X0.225000X0*%
%ADD46O,0.800000X0.350000*%
%ADD47O,0.350000X0.800000*%
%ADD48C,0.637500*%
%ADD49R,5.100000X5.100000*%
%ADD50RoundRect,0.102000X1.715000X-2.350000X1.715000X2.350000X-1.715000X2.350000X-1.715000X-2.350000X0*%
%ADD51RoundRect,0.250000X-0.565685X-0.070711X-0.070711X-0.565685X0.565685X0.070711X0.070711X0.565685X0*%
%ADD52C,1.404000*%
%ADD53RoundRect,0.102000X-0.600000X-0.600000X0.600000X-0.600000X0.600000X0.600000X-0.600000X0.600000X0*%
G04 APERTURE END LIST*
D10*
%TO.C,TP18*%
X199300000Y-64500000D03*
%TD*%
%TO.C,TP19*%
X201400000Y-65200000D03*
%TD*%
%TO.C,TP17*%
X160300000Y-42900000D03*
%TD*%
%TO.C,TP14*%
X158100000Y-43200000D03*
%TD*%
D11*
%TO.C,C6*%
X193225000Y-46900000D03*
X195300000Y-46900000D03*
%TD*%
D12*
%TO.C,R43*%
X236700000Y-50000000D03*
X234700000Y-50000000D03*
%TD*%
D11*
%TO.C,C2*%
X228937949Y-76100000D03*
X231012949Y-76100000D03*
%TD*%
D13*
%TO.C,C15*%
X224175449Y-63350000D03*
X222100449Y-63350000D03*
%TD*%
D11*
%TO.C,C8*%
X228937949Y-78150000D03*
X231012949Y-78150000D03*
%TD*%
D14*
%TO.C,TP7*%
X155450000Y-56000000D03*
%TD*%
D15*
%TO.C,R44*%
X220390000Y-78708000D03*
X220390000Y-80708000D03*
%TD*%
D16*
%TO.C,J21*%
X225100000Y-40000000D03*
X227640000Y-40000000D03*
%TD*%
D17*
%TO.C,R57*%
X222500000Y-112900000D03*
X224500000Y-112900000D03*
%TD*%
D18*
%TO.C,R60*%
X182400000Y-43500000D03*
X182400000Y-41500000D03*
%TD*%
D13*
%TO.C,C28*%
X146850000Y-85050000D03*
X144775000Y-85050000D03*
%TD*%
D17*
%TO.C,R3*%
X233075449Y-69950000D03*
X235075449Y-69950000D03*
%TD*%
D11*
%TO.C,C5*%
X193262500Y-44800000D03*
X195337500Y-44800000D03*
%TD*%
D19*
%TO.C,C19*%
X167750000Y-60550000D03*
X167750000Y-62625000D03*
%TD*%
D20*
%TO.C,TP13*%
X217100000Y-51300000D03*
%TD*%
D17*
%TO.C,R7*%
X222162949Y-65400000D03*
X224162949Y-65400000D03*
%TD*%
D21*
%TO.C,A1*%
X237462500Y-94165000D03*
D22*
X234432500Y-94465000D03*
X234432500Y-99315000D03*
D21*
X237462500Y-99615000D03*
D23*
X237592500Y-87200000D03*
D24*
X237592500Y-88000000D03*
D25*
X235052500Y-87200000D03*
D26*
X235052500Y-88000000D03*
D27*
X232512500Y-87200000D03*
D28*
X232512500Y-88000000D03*
D25*
X229972500Y-87200000D03*
D26*
X229972500Y-88000000D03*
D25*
X227432500Y-87200000D03*
D26*
X227432500Y-88000000D03*
D25*
X224892500Y-87200000D03*
D26*
X224892500Y-88000000D03*
D25*
X222352500Y-87200000D03*
D26*
X222352500Y-88000000D03*
D27*
X219812500Y-87200000D03*
D28*
X219812500Y-88000000D03*
D25*
X217272500Y-87200000D03*
D26*
X217272500Y-88000000D03*
D25*
X214732500Y-87200000D03*
D26*
X214732500Y-88000000D03*
D25*
X212192500Y-87200000D03*
D26*
X212192500Y-88000000D03*
D25*
X209652500Y-87200000D03*
D26*
X209652500Y-88000000D03*
D27*
X207112500Y-87200000D03*
D28*
X207112500Y-88000000D03*
D25*
X204572500Y-87200000D03*
D26*
X204572500Y-88000000D03*
D25*
X202032500Y-87200000D03*
D26*
X202032500Y-88000000D03*
D25*
X199492500Y-87200000D03*
D26*
X199492500Y-88000000D03*
D25*
X196952500Y-87200000D03*
D26*
X196952500Y-88000000D03*
D27*
X194412500Y-87200000D03*
D28*
X194412500Y-88000000D03*
D25*
X191872500Y-87200000D03*
D26*
X191872500Y-88000000D03*
D25*
X189332500Y-87200000D03*
D26*
X189332500Y-88000000D03*
X189332500Y-105780000D03*
D25*
X189332500Y-106580000D03*
D26*
X191872500Y-105780000D03*
D25*
X191872500Y-106580000D03*
D29*
X194412500Y-105780000D03*
D23*
X194412500Y-106580000D03*
D26*
X196952500Y-105780000D03*
D25*
X196952500Y-106580000D03*
D26*
X199492500Y-105780000D03*
D25*
X199492500Y-106580000D03*
D26*
X202032500Y-105780000D03*
D25*
X202032500Y-106580000D03*
D26*
X204572500Y-105780000D03*
D25*
X204572500Y-106580000D03*
D29*
X207112500Y-105780000D03*
D23*
X207112500Y-106580000D03*
D26*
X209652500Y-105780000D03*
D25*
X209652500Y-106580000D03*
D26*
X212192500Y-105780000D03*
D25*
X212192500Y-106580000D03*
D26*
X214732500Y-105780000D03*
D25*
X214732500Y-106580000D03*
D26*
X217272500Y-105780000D03*
D25*
X217272500Y-106580000D03*
D29*
X219812500Y-105780000D03*
D23*
X219812500Y-106580000D03*
D26*
X222352500Y-105780000D03*
D25*
X222352500Y-106580000D03*
D26*
X224892500Y-105780000D03*
D25*
X224892500Y-106580000D03*
D26*
X227432500Y-105780000D03*
D25*
X227432500Y-106580000D03*
D26*
X229972500Y-105780000D03*
D25*
X229972500Y-106580000D03*
D29*
X232512500Y-105780000D03*
D23*
X232512500Y-106580000D03*
D26*
X235052500Y-105780000D03*
D25*
X235052500Y-106580000D03*
D26*
X237592500Y-105780000D03*
D25*
X237592500Y-106580000D03*
%TD*%
D30*
%TO.C,TP15*%
X227400000Y-24200000D03*
%TD*%
D13*
%TO.C,C30*%
X207537500Y-39700000D03*
X205462500Y-39700000D03*
%TD*%
D31*
%TO.C,J6*%
X221340000Y-24540000D03*
X221340000Y-19460000D03*
X216260000Y-24540000D03*
X216260000Y-19460000D03*
%TD*%
D16*
%TO.C,J19*%
X165200000Y-112400000D03*
X165200000Y-109860000D03*
X165200000Y-107320000D03*
%TD*%
D15*
%TO.C,R18*%
X179600000Y-60140000D03*
X179600000Y-62140000D03*
%TD*%
D11*
%TO.C,C21*%
X227762500Y-47600000D03*
X229837500Y-47600000D03*
%TD*%
D13*
%TO.C,C3*%
X229550000Y-110100000D03*
X227475000Y-110100000D03*
%TD*%
D15*
%TO.C,R19*%
X177500000Y-60090000D03*
X177500000Y-62090000D03*
%TD*%
D16*
%TO.C,J2*%
X171500000Y-55060000D03*
X171500000Y-57600000D03*
%TD*%
D32*
%TO.C,R62*%
X190592893Y-26507107D03*
X192007107Y-25092893D03*
%TD*%
D16*
%TO.C,J24*%
X225000000Y-55700000D03*
X227540000Y-55700000D03*
%TD*%
D18*
%TO.C,R64*%
X209300000Y-70600000D03*
X209300000Y-68600000D03*
%TD*%
D33*
%TO.C,R56*%
X155250000Y-34450000D03*
X161350000Y-34450000D03*
%TD*%
D34*
%TO.C,R49*%
X210414214Y-55514214D03*
X209000000Y-54100000D03*
%TD*%
D17*
%TO.C,R1*%
X233075449Y-63900000D03*
X235075449Y-63900000D03*
%TD*%
D31*
%TO.C,J3*%
X147730000Y-74110000D03*
X142650000Y-74110000D03*
X147730000Y-79190000D03*
X142650000Y-79190000D03*
%TD*%
D14*
%TO.C,TP10*%
X149900000Y-99600000D03*
%TD*%
D35*
%TO.C,H3*%
X235000000Y-22000000D03*
%TD*%
D36*
%TO.C,TP9*%
X193500000Y-73700000D03*
%TD*%
D37*
%TO.C,C29*%
X203067246Y-50317246D03*
X201600000Y-48850000D03*
%TD*%
D38*
%TO.C,Q3*%
X182500000Y-67200000D03*
X184400000Y-67200000D03*
X183450000Y-65080000D03*
%TD*%
D17*
%TO.C,R8*%
X222212949Y-73600000D03*
X224212949Y-73600000D03*
%TD*%
D30*
%TO.C,TP12*%
X177850000Y-54200000D03*
%TD*%
%TO.C,TP14*%
X149900000Y-104500000D03*
%TD*%
D39*
%TO.C,R14*%
X181907107Y-69892893D03*
X180492893Y-71307107D03*
%TD*%
D40*
%TO.C,R50*%
X192727382Y-51006308D03*
X193572618Y-49193692D03*
%TD*%
D41*
%TO.C,R59*%
X198285761Y-57461014D03*
X203814239Y-60038986D03*
%TD*%
D12*
%TO.C,R4*%
X235075449Y-67950000D03*
X233075449Y-67950000D03*
%TD*%
D17*
%TO.C,R46*%
X228250000Y-63600000D03*
X230250000Y-63600000D03*
%TD*%
D30*
%TO.C,TP6*%
X161400000Y-51400000D03*
%TD*%
D35*
%TO.C,H1*%
X145000000Y-112000000D03*
%TD*%
D15*
%TO.C,R16*%
X181700000Y-60140000D03*
X181700000Y-62140000D03*
%TD*%
D11*
%TO.C,C25*%
X227962500Y-58400000D03*
X230037500Y-58400000D03*
%TD*%
D13*
%TO.C,C1*%
X227125449Y-76100000D03*
X225050449Y-76100000D03*
%TD*%
D42*
%TO.C,U3*%
X230575448Y-68030600D03*
X229925450Y-68030600D03*
X229275448Y-68030600D03*
X228625450Y-68030600D03*
X227975451Y-68030600D03*
X227325450Y-68030600D03*
X226675451Y-68030600D03*
X226025450Y-68030600D03*
X226025450Y-73669400D03*
X226675448Y-73669400D03*
X227325450Y-73669400D03*
X227975448Y-73669400D03*
X228625447Y-73669400D03*
X229275448Y-73669400D03*
X229925447Y-73669400D03*
X230575448Y-73669400D03*
%TD*%
D16*
%TO.C,J18*%
X169100000Y-112340000D03*
X169100000Y-109800000D03*
X169100000Y-107260000D03*
%TD*%
D43*
%TO.C,J10*%
X235400000Y-29400000D03*
X232860000Y-26860000D03*
X237940000Y-26860000D03*
X232860000Y-31940000D03*
X237940000Y-31940000D03*
%TD*%
D44*
%TO.C,U1*%
X145729212Y-27970788D03*
X148100000Y-25600000D03*
%TD*%
D12*
%TO.C,R54*%
X175150000Y-33500000D03*
X173150000Y-33500000D03*
%TD*%
D37*
%TO.C,C10*%
X207617246Y-47217246D03*
X206150000Y-45750000D03*
%TD*%
D11*
%TO.C,C20*%
X227662500Y-42500000D03*
X229737500Y-42500000D03*
%TD*%
D12*
%TO.C,R55*%
X175300000Y-36200000D03*
X173300000Y-36200000D03*
%TD*%
D31*
%TO.C,J11*%
X206000000Y-24380000D03*
X206000000Y-19300000D03*
X200920000Y-24380000D03*
X200920000Y-19300000D03*
%TD*%
D43*
%TO.C,J13*%
X164860000Y-21760000D03*
X162320000Y-19220000D03*
X167400000Y-19220000D03*
X162320000Y-24300000D03*
X167400000Y-24300000D03*
%TD*%
D35*
%TO.C,H2*%
X235000000Y-112000000D03*
%TD*%
D45*
%TO.C,U4*%
X177780000Y-28845000D03*
X177780000Y-30115000D03*
X177780000Y-31385000D03*
X177780000Y-32655000D03*
X182720000Y-32655000D03*
X182720000Y-31385000D03*
X182720000Y-30115000D03*
X182720000Y-28845000D03*
%TD*%
D16*
%TO.C,J1*%
X167450000Y-55110000D03*
X167450000Y-57650000D03*
%TD*%
D13*
%TO.C,C16*%
X224200449Y-71550000D03*
X222125449Y-71550000D03*
%TD*%
D46*
%TO.C,U2*%
X197362500Y-41062500D03*
X197362500Y-41712500D03*
X197362500Y-42362500D03*
X197362500Y-43012500D03*
X197362500Y-43662500D03*
X197362500Y-44312500D03*
X197362500Y-44962500D03*
X197362500Y-45612500D03*
D47*
X198587500Y-46837500D03*
X199237500Y-46837500D03*
X199887500Y-46837500D03*
X200537500Y-46837500D03*
X201187500Y-46837500D03*
X201837500Y-46837500D03*
X202487500Y-46837500D03*
X203137500Y-46837500D03*
D46*
X204362500Y-45612500D03*
X204362500Y-44962500D03*
X204362500Y-44312500D03*
X204362500Y-43662500D03*
X204362500Y-43012500D03*
X204362500Y-42362500D03*
X204362500Y-41712500D03*
X204362500Y-41062500D03*
D47*
X203137500Y-39837500D03*
X202487500Y-39837500D03*
X201837500Y-39837500D03*
X201187500Y-39837500D03*
X200537500Y-39837500D03*
X199887500Y-39837500D03*
X199237500Y-39837500D03*
X198587500Y-39837500D03*
D48*
X199587500Y-42062500D03*
X199587500Y-43337500D03*
X199587500Y-44612500D03*
X200862500Y-42062500D03*
X200862500Y-43337500D03*
D49*
X200862500Y-43337500D03*
D48*
X200862500Y-44612500D03*
X202137500Y-42062500D03*
X202137500Y-43337500D03*
X202137500Y-44612500D03*
%TD*%
D20*
%TO.C,TP5*%
X216900000Y-59900000D03*
%TD*%
D39*
%TO.C,R15*%
X177800000Y-69800000D03*
X176385786Y-71214214D03*
%TD*%
D43*
%TO.C,J15*%
X176560000Y-21840000D03*
X174020000Y-19300000D03*
X179100000Y-19300000D03*
X174020000Y-24380000D03*
X179100000Y-24380000D03*
%TD*%
D39*
%TO.C,R12*%
X185707107Y-69992893D03*
X184292893Y-71407107D03*
%TD*%
D16*
%TO.C,J25*%
X217440000Y-80058000D03*
X214900000Y-80058000D03*
X212360000Y-80058000D03*
%TD*%
D39*
%TO.C,R10*%
X189500000Y-70100000D03*
X188085786Y-71514214D03*
%TD*%
D12*
%TO.C,R61*%
X236700000Y-46600000D03*
X234700000Y-46600000D03*
%TD*%
D11*
%TO.C,C22*%
X227862500Y-53100000D03*
X229937500Y-53100000D03*
%TD*%
D19*
%TO.C,C24*%
X198700000Y-36300000D03*
X198700000Y-38375000D03*
%TD*%
D39*
%TO.C,R17*%
X173807107Y-69692893D03*
X172392893Y-71107107D03*
%TD*%
D43*
%TO.C,J20*%
X235300000Y-38400000D03*
X232760000Y-35860000D03*
X237840000Y-35860000D03*
X232760000Y-40940000D03*
X237840000Y-40940000D03*
%TD*%
D17*
%TO.C,R6*%
X222175449Y-69500000D03*
X224175449Y-69500000D03*
%TD*%
D13*
%TO.C,C17*%
X207932500Y-42115000D03*
X205857500Y-42115000D03*
%TD*%
D16*
%TO.C,J16*%
X177000000Y-112240000D03*
X177000000Y-109700000D03*
X177000000Y-107160000D03*
%TD*%
D18*
%TO.C,R48*%
X214700000Y-36575000D03*
X214700000Y-34575000D03*
%TD*%
D11*
%TO.C,C4*%
X193725000Y-41800000D03*
X195800000Y-41800000D03*
%TD*%
D31*
%TO.C,J4*%
X147680000Y-44210000D03*
X142600000Y-44210000D03*
X147680000Y-49290000D03*
X142600000Y-49290000D03*
%TD*%
D16*
%TO.C,JP3*%
X169720000Y-30655000D03*
X172260000Y-30655000D03*
%TD*%
D12*
%TO.C,R42*%
X236800000Y-57900000D03*
X234800000Y-57900000D03*
%TD*%
D38*
%TO.C,Q5*%
X174550000Y-67240000D03*
X176450000Y-67240000D03*
X175500000Y-65120000D03*
%TD*%
D43*
%TO.C,J9*%
X145750000Y-33500000D03*
X143210000Y-30960000D03*
X148290000Y-30960000D03*
X143210000Y-36040000D03*
X148290000Y-36040000D03*
%TD*%
D16*
%TO.C,J22*%
X224960000Y-45100000D03*
X227500000Y-45100000D03*
%TD*%
D50*
%TO.C,TP2*%
X164000000Y-45900000D03*
%TD*%
D16*
%TO.C,J17*%
X173000000Y-112440000D03*
X173000000Y-109900000D03*
X173000000Y-107360000D03*
%TD*%
D12*
%TO.C,R40*%
X236700000Y-53600000D03*
X234700000Y-53600000D03*
%TD*%
D35*
%TO.C,H4*%
X145000000Y-22000000D03*
%TD*%
D15*
%TO.C,R63*%
X208250000Y-60100000D03*
X208250000Y-62100000D03*
%TD*%
D34*
%TO.C,R58*%
X208407107Y-57407107D03*
X206992893Y-55992893D03*
%TD*%
D12*
%TO.C,R5*%
X235075449Y-71950000D03*
X233075449Y-71950000D03*
%TD*%
D15*
%TO.C,R20*%
X175350000Y-60140000D03*
X175350000Y-62140000D03*
%TD*%
D12*
%TO.C,R2*%
X235075449Y-65900000D03*
X233075449Y-65900000D03*
%TD*%
D13*
%TO.C,C14*%
X224175449Y-67450000D03*
X222100449Y-67450000D03*
%TD*%
D31*
%TO.C,J12*%
X147680000Y-59210000D03*
X142600000Y-59210000D03*
X147680000Y-64290000D03*
X142600000Y-64290000D03*
%TD*%
D37*
%TO.C,C7*%
X205967246Y-49367246D03*
X204500000Y-47900000D03*
%TD*%
D16*
%TO.C,J14*%
X181000000Y-112280000D03*
X181000000Y-109740000D03*
X181000000Y-107200000D03*
%TD*%
D51*
%TO.C,R47*%
X193800000Y-36500000D03*
X195214214Y-37914214D03*
%TD*%
D13*
%TO.C,C12*%
X227125449Y-78150000D03*
X225050449Y-78150000D03*
%TD*%
D15*
%TO.C,R13*%
X183900000Y-60190000D03*
X183900000Y-62190000D03*
%TD*%
D13*
%TO.C,C26*%
X148287500Y-52250000D03*
X146212500Y-52250000D03*
%TD*%
D40*
%TO.C,R51*%
X194500000Y-51850000D03*
X195345236Y-50037384D03*
%TD*%
D38*
%TO.C,Q2*%
X186300000Y-67100000D03*
X188200000Y-67100000D03*
X187250000Y-64980000D03*
%TD*%
D18*
%TO.C,R65*%
X213150000Y-70750000D03*
X213150000Y-68750000D03*
%TD*%
D19*
%TO.C,C18*%
X171750000Y-60450000D03*
X171750000Y-62525000D03*
%TD*%
D15*
%TO.C,R37*%
X219800000Y-34500000D03*
X219800000Y-36500000D03*
%TD*%
D36*
%TO.C,TP8*%
X196200000Y-70400000D03*
%TD*%
D17*
%TO.C,R45*%
X168100000Y-39750000D03*
X170100000Y-39750000D03*
%TD*%
D36*
%TO.C,TP1*%
X153500000Y-42500000D03*
%TD*%
D52*
%TO.C,C11*%
X156250000Y-25250000D03*
D53*
X152750000Y-25250000D03*
%TD*%
D40*
%TO.C,R52*%
X196277382Y-52706308D03*
X197122618Y-50893692D03*
%TD*%
%TO.C,R53*%
X198077382Y-53506308D03*
X198922618Y-51693692D03*
%TD*%
D36*
%TO.C,TP4*%
X202300000Y-74900000D03*
%TD*%
D19*
%TO.C,C23*%
X202107500Y-36312500D03*
X202107500Y-38387500D03*
%TD*%
D38*
%TO.C,Q1*%
X190100000Y-67100000D03*
X192000000Y-67100000D03*
X191050000Y-64980000D03*
%TD*%
%TO.C,Q4*%
X178400000Y-67200000D03*
X180300000Y-67200000D03*
X179350000Y-65080000D03*
%TD*%
D30*
%TO.C,TP11*%
X155650000Y-61950000D03*
%TD*%
D31*
%TO.C,J5*%
X147845000Y-89035000D03*
X142765000Y-89035000D03*
X147845000Y-94115000D03*
X142765000Y-94115000D03*
%TD*%
D16*
%TO.C,J23*%
X224960000Y-50300000D03*
X227500000Y-50300000D03*
%TD*%
D30*
%TO.C,TP3*%
X175650000Y-48400000D03*
%TD*%
D13*
%TO.C,C13*%
X187627500Y-30310000D03*
X185552500Y-30310000D03*
%TD*%
D15*
%TO.C,R11*%
X185950000Y-60190000D03*
X185950000Y-62190000D03*
%TD*%
M02*
