%TF.GenerationSoftware,KiCad,Pcbnew,10.0.6*%
%TF.CreationDate,2026-10-06T12:18:15-07:00*%
%TF.ProjectId,ee372b-ldo-testbench,65653337-3262-42d6-9c64-6f2d74657374,rev?*%
%TF.SameCoordinates,Original*%
%TF.FileFunction,Copper,L4,Bot*%
%TF.FilePolarity,Positive*%
%FSLAX46Y46*%
G04 Gerber Fmt 4.6, Leading zero omitted, Abs format (unit mm)*
G04 Created by KiCad (PCBNEW 10.0.6) date 2026-10-06 12:18:15*
%MOMM*%
%LPD*%
G01*
G04 APERTURE LIST*
G04 Aperture macros list*
%AMRoundRect*
0 Rectangle with rounded corners*
0 $1 Rounding radius*
0 $2 $3 $4 $5 $6 $7 $8 $9 X,Y pos of 4 corners*
0 Add a 4 corners polygon primitive as box body*
4,1,4,$2,$3,$4,$5,$6,$7,$8,$9,$2,$3,0*
0 Add four circle primitives for the rounded corners*
1,1,$1+$1,$2,$3*
1,1,$1+$1,$4,$5*
1,1,$1+$1,$6,$7*
1,1,$1+$1,$8,$9*
0 Add four rect primitives between the rounded corners*
20,1,$1+$1,$2,$3,$4,$5,0*
20,1,$1+$1,$4,$5,$6,$7,0*
20,1,$1+$1,$6,$7,$8,$9,0*
20,1,$1+$1,$8,$9,$2,$3,0*%
%AMFreePoly0*
4,1,37,0.603843,0.796157,0.639018,0.796157,0.711114,0.766294,0.766294,0.711114,0.796157,0.639018,0.796157,0.603843,0.800000,0.600000,0.800000,-0.600000,0.796157,-0.603843,0.796157,-0.639018,0.766294,-0.711114,0.711114,-0.766294,0.639018,-0.796157,0.603843,-0.796157,0.600000,-0.800000,0.000000,-0.800000,0.000000,-0.796148,-0.078414,-0.796148,-0.232228,-0.765552,-0.377117,-0.705537,
-0.507515,-0.618408,-0.618408,-0.507515,-0.705537,-0.377117,-0.765552,-0.232228,-0.796148,-0.078414,-0.796148,0.078414,-0.765552,0.232228,-0.705537,0.377117,-0.618408,0.507515,-0.507515,0.618408,-0.377117,0.705537,-0.232228,0.765552,-0.078414,0.796148,0.000000,0.796148,0.000000,0.800000,0.600000,0.800000,0.603843,0.796157,0.603843,0.796157,$1*%
%AMFreePoly1*
4,1,37,0.000000,0.796148,0.078414,0.796148,0.232228,0.765552,0.377117,0.705537,0.507515,0.618408,0.618408,0.507515,0.705537,0.377117,0.765552,0.232228,0.796148,0.078414,0.796148,-0.078414,0.765552,-0.232228,0.705537,-0.377117,0.618408,-0.507515,0.507515,-0.618408,0.377117,-0.705537,0.232228,-0.765552,0.078414,-0.796148,0.000000,-0.796148,0.000000,-0.800000,-0.600000,-0.800000,
-0.603843,-0.796157,-0.639018,-0.796157,-0.711114,-0.766294,-0.766294,-0.711114,-0.796157,-0.639018,-0.796157,-0.603843,-0.800000,-0.600000,-0.800000,0.600000,-0.796157,0.603843,-0.796157,0.639018,-0.766294,0.711114,-0.711114,0.766294,-0.639018,0.796157,-0.603843,0.796157,-0.600000,0.800000,0.000000,0.800000,0.000000,0.796148,0.000000,0.796148,$1*%
G04 Aperture macros list end*
%TA.AperFunction,ComponentPad*%
%ADD10RoundRect,0.200000X-0.600000X0.600000X-0.600000X-0.600000X0.600000X-0.600000X0.600000X0.600000X0*%
%TD*%
%TA.AperFunction,ComponentPad*%
%ADD11C,1.600000*%
%TD*%
%TA.AperFunction,ComponentPad*%
%ADD12FreePoly0,270.000000*%
%TD*%
%TA.AperFunction,ComponentPad*%
%ADD13FreePoly1,270.000000*%
%TD*%
%TA.AperFunction,ComponentPad*%
%ADD14C,2.550000*%
%TD*%
%TA.AperFunction,ComponentPad*%
%ADD15C,1.524000*%
%TD*%
%TA.AperFunction,ComponentPad*%
%ADD16C,2.400000*%
%TD*%
%TA.AperFunction,HeatsinkPad*%
%ADD17C,0.637500*%
%TD*%
%TA.AperFunction,ComponentPad*%
%ADD18C,1.200000*%
%TD*%
%TA.AperFunction,ComponentPad*%
%ADD19R,1.200000X1.200000*%
%TD*%
%TA.AperFunction,ViaPad*%
%ADD20C,1.016000*%
%TD*%
%TA.AperFunction,ViaPad*%
%ADD21C,0.609600*%
%TD*%
%TA.AperFunction,ViaPad*%
%ADD22C,0.500000*%
%TD*%
%TA.AperFunction,Conductor*%
%ADD23C,0.762000*%
%TD*%
%TA.AperFunction,Conductor*%
%ADD24C,0.254000*%
%TD*%
%TA.AperFunction,Conductor*%
%ADD25C,1.270000*%
%TD*%
%TA.AperFunction,Conductor*%
%ADD26C,1.524000*%
%TD*%
G04 APERTURE END LIST*
D10*
%TO.P,A1,1,GPIO0_1*%
%TO.N,unconnected-(A1-GPIO0-Pad1)_1*%
X237592500Y-88000000D03*
D11*
%TO.P,A1,2,GPIO1_2*%
%TO.N,/pico_spi_cs*%
X235052500Y-88000000D03*
D12*
%TO.P,A1,3,GND_3*%
%TO.N,Net-(A1-GND-Pad13)*%
X232512500Y-88000000D03*
D11*
%TO.P,A1,4,GPIO2_4*%
%TO.N,/pico_spi_clk*%
X229972500Y-88000000D03*
%TO.P,A1,5,GPIO3_5*%
%TO.N,/pico_spi_tx*%
X227432500Y-88000000D03*
%TO.P,A1,6,GPIO4_6*%
%TO.N,/pico_spi_rx*%
X224892500Y-88000000D03*
%TO.P,A1,7,GPIO5_7*%
%TO.N,unconnected-(A1-GPIO5-Pad7)_1*%
X222352500Y-88000000D03*
D12*
%TO.P,A1,8,GND_8*%
%TO.N,Net-(A1-GND-Pad13)*%
X219812500Y-88000000D03*
D11*
%TO.P,A1,9,GPIO6_9*%
%TO.N,/pico_irq*%
X217272500Y-88000000D03*
%TO.P,A1,10,GPIO7_10*%
%TO.N,unconnected-(A1-GPIO7-Pad10)*%
X214732500Y-88000000D03*
%TO.P,A1,11,GPIO8_11*%
%TO.N,unconnected-(A1-GPIO8-Pad11)_1*%
X212192500Y-88000000D03*
%TO.P,A1,12,GPIO9_12*%
%TO.N,unconnected-(A1-GPIO9-Pad12)_1*%
X209652500Y-88000000D03*
D12*
%TO.P,A1,13,GND_13*%
%TO.N,Net-(A1-GND-Pad13)*%
X207112500Y-88000000D03*
D11*
%TO.P,A1,14,GPIO10_14*%
%TO.N,/pico_vg0*%
X204572500Y-88000000D03*
%TO.P,A1,15,GPIO11_15*%
%TO.N,/pico_vg1*%
X202032500Y-88000000D03*
%TO.P,A1,16,GPIO12_16*%
%TO.N,/pico_vg2*%
X199492500Y-88000000D03*
%TO.P,A1,17,GPIO13_17*%
%TO.N,/pico_vg3*%
X196952500Y-88000000D03*
D12*
%TO.P,A1,18,GND_18*%
%TO.N,Net-(A1-GND-Pad13)*%
X194412500Y-88000000D03*
D11*
%TO.P,A1,19,GPIO14_19*%
%TO.N,/pico_vg4*%
X191872500Y-88000000D03*
%TO.P,A1,20,GPIO15_20*%
%TO.N,unconnected-(A1-GPIO15-Pad20)*%
X189332500Y-88000000D03*
%TO.P,A1,21,GPIO16_21*%
%TO.N,unconnected-(A1-GPIO16-Pad21)*%
X189332500Y-105780000D03*
%TO.P,A1,22,GPIO17_22*%
%TO.N,unconnected-(A1-GPIO17-Pad22)_1*%
X191872500Y-105780000D03*
D13*
%TO.P,A1,23,GND_23*%
%TO.N,Net-(A1-GND-Pad13)*%
X194412500Y-105780000D03*
D11*
%TO.P,A1,24,GPIO18_24*%
%TO.N,unconnected-(A1-GPIO18-Pad24)_1*%
X196952500Y-105780000D03*
%TO.P,A1,25,GPIO19_25*%
%TO.N,unconnected-(A1-GPIO19-Pad25)*%
X199492500Y-105780000D03*
%TO.P,A1,26,GPIO20_26*%
%TO.N,unconnected-(A1-GPIO20-Pad26)*%
X202032500Y-105780000D03*
%TO.P,A1,27,GPIO21_27*%
%TO.N,unconnected-(A1-GPIO21-Pad27)_1*%
X204572500Y-105780000D03*
D13*
%TO.P,A1,28,GND_28*%
%TO.N,Net-(A1-GND-Pad13)*%
X207112500Y-105780000D03*
D11*
%TO.P,A1,29,GPIO22_29*%
%TO.N,unconnected-(A1-GPIO22-Pad29)_1*%
X209652500Y-105780000D03*
%TO.P,A1,30,RUN_30*%
%TO.N,unconnected-(A1-RUN-Pad30)*%
X212192500Y-105780000D03*
%TO.P,A1,31,GPIO26_ADC0_31*%
%TO.N,unconnected-(A1-GPIO26_ADC0-Pad31)*%
X214732500Y-105780000D03*
%TO.P,A1,32,GPIO27_ADC1_32*%
%TO.N,unconnected-(A1-GPIO27_ADC1-Pad32)*%
X217272500Y-105780000D03*
D13*
%TO.P,A1,33,AGND_33*%
%TO.N,unconnected-(A1-AGND-Pad33)*%
X219812500Y-105780000D03*
D11*
%TO.P,A1,34,GPIO28_ADC2_34*%
%TO.N,unconnected-(A1-GPIO28_ADC2-Pad34)*%
X222352500Y-105780000D03*
%TO.P,A1,35,ADC_VREF_35*%
%TO.N,unconnected-(A1-ADC_VREF-Pad35)_1*%
X224892500Y-105780000D03*
%TO.P,A1,36,3V3_36*%
%TO.N,/3V3_PICO*%
X227432500Y-105780000D03*
%TO.P,A1,37,3V3_EN_37*%
%TO.N,unconnected-(A1-3V3_EN-Pad37)*%
X229972500Y-105780000D03*
D13*
%TO.P,A1,38,GND_38*%
%TO.N,Net-(A1-GND-Pad13)*%
X232512500Y-105780000D03*
D11*
%TO.P,A1,39,VSYS_39*%
%TO.N,unconnected-(A1-VSYS-Pad39)*%
X235052500Y-105780000D03*
%TO.P,A1,40,VBUS_40*%
%TO.N,unconnected-(A1-VBUS-Pad40)*%
X237592500Y-105780000D03*
%TD*%
D14*
%TO.P,J6,1,Pin_1_1*%
%TO.N,GND*%
X232910000Y-48790000D03*
X237990000Y-48790000D03*
X232910000Y-43710000D03*
X237990000Y-43710000D03*
%TD*%
D15*
%TO.P,J19,1,1_1*%
%TO.N,/3V3*%
X169742000Y-79650000D03*
%TO.P,J19,2,2_2*%
%TO.N,/VG4*%
X169742000Y-77110000D03*
%TO.P,J19,3,3_3*%
%TO.N,/pico_vg4*%
X169742000Y-74570000D03*
%TD*%
%TO.P,J24,1,1_1*%
%TO.N,Net-(J24-Pad1)*%
X236360200Y-54529800D03*
%TO.P,J24,2,2_2*%
%TO.N,Net-(C25-Pad1)*%
X236360200Y-57069800D03*
%TD*%
%TO.P,J22,1,1_1*%
%TO.N,Net-(J22-Pad1)*%
X227530100Y-54534900D03*
%TO.P,J22,2,2_2*%
%TO.N,Net-(C21-Pad1)*%
X227530100Y-57074900D03*
%TD*%
%TO.P,J2,1,1_1*%
%TO.N,/c1_vin_jump*%
X171500000Y-55060000D03*
%TO.P,J2,2,2_2*%
%TO.N,Net-(C18-Pad1)*%
X171500000Y-57600000D03*
%TD*%
D14*
%TO.P,J3,1,Pin_1_1*%
%TO.N,GND*%
X147730000Y-74110000D03*
X142650000Y-74110000D03*
X147730000Y-79190000D03*
X142650000Y-79190000D03*
%TD*%
D15*
%TO.P,J18,1,1_1*%
%TO.N,/3V3*%
X174642000Y-79690000D03*
%TO.P,J18,2,2_2*%
%TO.N,/VG3*%
X174642000Y-77150000D03*
%TO.P,J18,3,3_3*%
%TO.N,/pico_vg3*%
X174642000Y-74610000D03*
%TD*%
D16*
%TO.P,J10,1*%
%TO.N,/VOUT*%
X223650000Y-22200000D03*
%TO.P,J10,G1*%
%TO.N,GND*%
X221110000Y-19660000D03*
%TO.P,J10,G2*%
X226190000Y-19660000D03*
%TO.P,J10,G3*%
X221110000Y-24740000D03*
%TO.P,J10,G4*%
X226190000Y-24740000D03*
%TD*%
D15*
%TO.P,J23,1,1_1*%
%TO.N,Net-(J23-Pad1)*%
X223050000Y-54310000D03*
%TO.P,J23,2,2_2*%
%TO.N,Net-(C22-Pad1)*%
X223050000Y-56850000D03*
%TD*%
D14*
%TO.P,J11,1,Pin_1_1*%
%TO.N,/VOUT*%
X232910000Y-33690000D03*
X237990000Y-33690000D03*
X232910000Y-28610000D03*
X237990000Y-28610000D03*
%TD*%
D16*
%TO.P,J13,1*%
%TO.N,/VSIG*%
X169180000Y-22155000D03*
%TO.P,J13,G1*%
%TO.N,GND*%
X166640000Y-19615000D03*
%TO.P,J13,G2*%
X171720000Y-19615000D03*
%TO.P,J13,G3*%
X166640000Y-24695000D03*
%TO.P,J13,G4*%
X171720000Y-24695000D03*
%TD*%
D15*
%TO.P,J1,1,1_1*%
%TO.N,/c1_vin_jump*%
X167450000Y-55110000D03*
%TO.P,J1,2,2_2*%
%TO.N,Net-(C19-Pad1)*%
X167450000Y-57650000D03*
%TD*%
D17*
%TO.P,U2,33,EP_33*%
%TO.N,Net-(U2-EP)*%
X199587500Y-42062500D03*
X199587500Y-43337500D03*
X199587500Y-44612500D03*
X200862500Y-42062500D03*
X200862500Y-43337500D03*
X200862500Y-44612500D03*
X202137500Y-42062500D03*
X202137500Y-43337500D03*
X202137500Y-44612500D03*
%TD*%
D16*
%TO.P,J15,1*%
%TO.N,Net-(J15-Pad1)*%
X191180000Y-22155000D03*
%TO.P,J15,G1*%
%TO.N,GND*%
X188640000Y-19615000D03*
%TO.P,J15,G2*%
X193720000Y-19615000D03*
%TO.P,J15,G3*%
X188640000Y-24695000D03*
%TO.P,J15,G4*%
X193720000Y-24695000D03*
%TD*%
D15*
%TO.P,J25,1,1_1*%
%TO.N,/3V3_EXTERNAL*%
X217440000Y-80058000D03*
%TO.P,J25,2,2_2*%
%TO.N,/3V3*%
X214900000Y-80058000D03*
%TO.P,J25,3,3_3*%
%TO.N,Net-(J25-Pad3)*%
X212360000Y-80058000D03*
%TD*%
%TO.P,J21,1,1_1*%
%TO.N,Net-(J21-Pad1)*%
X231960200Y-54529800D03*
%TO.P,J21,2,2_2*%
%TO.N,Net-(C20-Pad1)*%
X231960200Y-57069800D03*
%TD*%
D16*
%TO.P,J20,1*%
%TO.N,Net-(J20-Pad1)*%
X208760000Y-21910000D03*
%TO.P,J20,G1*%
%TO.N,GND*%
X206220000Y-19370000D03*
%TO.P,J20,G2*%
X211300000Y-19370000D03*
%TO.P,J20,G3*%
X206220000Y-24450000D03*
%TO.P,J20,G4*%
X211300000Y-24450000D03*
%TD*%
D15*
%TO.P,J16,1,1_1*%
%TO.N,/3V3*%
X184450000Y-79580000D03*
%TO.P,J16,2,2_2*%
%TO.N,/VG1*%
X184450000Y-77040000D03*
%TO.P,J16,3,3_3*%
%TO.N,/pico_vg1*%
X184450000Y-74500000D03*
%TD*%
D14*
%TO.P,J4,1,Pin_1_1*%
%TO.N,Net-(J4-Pin_1)*%
X147680000Y-44210000D03*
X142600000Y-44210000D03*
X147680000Y-49290000D03*
X142600000Y-49290000D03*
%TD*%
D15*
%TO.P,JP3,1,1_1*%
%TO.N,Net-(JP3-Pad1)*%
X169720000Y-30655000D03*
%TO.P,JP3,2,2_2*%
%TO.N,Net-(U4-BW)*%
X172260000Y-30655000D03*
%TD*%
D16*
%TO.P,J9,1*%
%TO.N,/1V8*%
X145750000Y-33500000D03*
%TO.P,J9,G1*%
%TO.N,GND*%
X143210000Y-30960000D03*
%TO.P,J9,G2*%
X148290000Y-30960000D03*
%TO.P,J9,G3*%
X143210000Y-36040000D03*
%TO.P,J9,G4*%
X148290000Y-36040000D03*
%TD*%
D15*
%TO.P,J17,1,1_1*%
%TO.N,/3V3*%
X179642000Y-79690000D03*
%TO.P,J17,2,2_2*%
%TO.N,/VG2*%
X179642000Y-77150000D03*
%TO.P,J17,3,3_3*%
%TO.N,/pico_vg2*%
X179642000Y-74610000D03*
%TD*%
D14*
%TO.P,J12,1,Pin_1_1*%
%TO.N,/VDD_BUF*%
X147680000Y-59210000D03*
X142600000Y-59210000D03*
X147680000Y-64290000D03*
X142600000Y-64290000D03*
%TD*%
D15*
%TO.P,J14,1,1_1*%
%TO.N,/3V3*%
X189300000Y-79630000D03*
%TO.P,J14,2,2_2*%
%TO.N,/VG0*%
X189300000Y-77090000D03*
%TO.P,J14,3,3_3*%
%TO.N,/pico_vg0*%
X189300000Y-74550000D03*
%TD*%
D18*
%TO.P,C11,N*%
%TO.N,GND*%
X156250000Y-25250000D03*
D19*
%TO.P,C11,P*%
%TO.N,/1V8*%
X152750000Y-25250000D03*
%TD*%
D14*
%TO.P,J5,1,Pin_1_1*%
%TO.N,/3V3_EXTERNAL*%
X147845000Y-89035000D03*
X142765000Y-89035000D03*
X147845000Y-94115000D03*
X142765000Y-94115000D03*
%TD*%
D20*
%TO.N,GND*%
X209027697Y-49327697D03*
X197500000Y-28000000D03*
X192150000Y-41560000D03*
D21*
X230300000Y-47500000D03*
D20*
X154800000Y-111200000D03*
D21*
X229475449Y-65650000D03*
X175700000Y-88800000D03*
D22*
X196535264Y-44564736D03*
D21*
X230300000Y-45550000D03*
D20*
X166225000Y-63675000D03*
D22*
X196500000Y-43064600D03*
D21*
X223875449Y-78550000D03*
D20*
X209300000Y-41200000D03*
D21*
X221225449Y-71800000D03*
D20*
X151950000Y-63650000D03*
D21*
X199715592Y-37499194D03*
D20*
X160600000Y-40000000D03*
D21*
X184450000Y-88750000D03*
X222500000Y-47350000D03*
D20*
X143400000Y-84500000D03*
X180300000Y-51350000D03*
X188950000Y-30800000D03*
D21*
X177775000Y-88775000D03*
D20*
X201800000Y-51650000D03*
D21*
X203600000Y-38100000D03*
X182000000Y-88900000D03*
X179950000Y-88850000D03*
D20*
X201625000Y-35175000D03*
D21*
X223725449Y-76800000D03*
X232125449Y-76400000D03*
X175350000Y-31950000D03*
X177650000Y-68150000D03*
D20*
X209000000Y-39100000D03*
D21*
X222500000Y-49050000D03*
D20*
X157950000Y-51600000D03*
D21*
X172900000Y-68050000D03*
D20*
X191900000Y-46385000D03*
D21*
X205150000Y-44950000D03*
D20*
X199300000Y-35100000D03*
X207900000Y-50350000D03*
D21*
X221275449Y-67450000D03*
X228575449Y-65150000D03*
X227875449Y-66450000D03*
X176445000Y-32655000D03*
X182600000Y-68150000D03*
X200300000Y-37950000D03*
D20*
X170150000Y-63750000D03*
D21*
X200200000Y-48850000D03*
D20*
X191837500Y-44600000D03*
D22*
X196600000Y-40400000D03*
D20*
X201300000Y-77050000D03*
D21*
X206050000Y-43450000D03*
X229300000Y-35800000D03*
X187250000Y-69500000D03*
X200450000Y-37250000D03*
X232125449Y-78350000D03*
D20*
X144900000Y-53050000D03*
X221400000Y-113900000D03*
D21*
X221175449Y-63100000D03*
X203700000Y-38800000D03*
X217850000Y-49450000D03*
X191850000Y-69700000D03*
X217850000Y-48050000D03*
X200250000Y-38750000D03*
X229300000Y-37350000D03*
X200200000Y-48850000D03*
D22*
X206300000Y-40900000D03*
D21*
X194500000Y-35200000D03*
D20*
%TO.N,Net-(C10-Pad2)*%
X184250000Y-38950000D03*
X194750000Y-40150000D03*
D21*
X203700000Y-37200000D03*
X209500000Y-40200000D03*
X205600000Y-47400000D03*
X205200000Y-38300000D03*
X196800000Y-47300000D03*
X197000000Y-37300000D03*
X200700000Y-50100000D03*
X207100000Y-45100000D03*
D20*
%TO.N,/3V3*%
X226594730Y-82040664D03*
X225650544Y-79552279D03*
D21*
%TO.N,/3V3_PICO*%
X217700000Y-83550000D03*
%TO.N,/pico_spi_rx*%
X236750000Y-70700000D03*
D20*
%TO.N,/LDO_VOUT*%
X215850000Y-45400000D03*
X205850000Y-74700000D03*
X228550000Y-43550000D03*
X206100000Y-69800000D03*
X220650000Y-45450000D03*
X224281424Y-43568576D03*
X201800000Y-55500000D03*
D21*
%TO.N,/pico_spi_cs*%
X236900000Y-64600000D03*
%TO.N,/pico_spi_clk*%
X236850000Y-66800000D03*
%TO.N,/pico_spi_tx*%
X235100000Y-73400000D03*
%TO.N,/pico_irq*%
X236650000Y-68600000D03*
%TO.N,/pico_vg0*%
X191450000Y-76750000D03*
%TO.N,/pico_vg1*%
X186200000Y-76300000D03*
%TO.N,/pico_vg2*%
X180400000Y-81850000D03*
%TO.N,/pico_vg3*%
X176900000Y-81850000D03*
%TO.N,/pico_vg4*%
X171900000Y-82000000D03*
%TO.N,/VG4*%
X173200000Y-71150000D03*
X175600000Y-84500000D03*
%TO.N,Net-(J24-Pad1)*%
X220900000Y-39550000D03*
%TO.N,Net-(C25-Pad1)*%
X226675000Y-39325000D03*
D20*
%TO.N,/VARIABLE_LOAD*%
X200850000Y-69650000D03*
X209350000Y-60250000D03*
D21*
%TO.N,Net-(R49-Pad1)*%
X219000000Y-59500000D03*
X215100000Y-32700000D03*
%TO.N,/VG2*%
X180000000Y-84550000D03*
X183050000Y-71300000D03*
D20*
%TO.N,/VOUT*%
X176050000Y-45800000D03*
X203300000Y-62950000D03*
D21*
%TO.N,/AIN3_LDO_GND*%
X227175449Y-65600000D03*
%TO.N,/VG3*%
X177900000Y-84550000D03*
X178300000Y-71100000D03*
%TO.N,Net-(J23-Pad1)*%
X220100000Y-57400000D03*
D20*
%TO.N,/VSIG*%
X174775880Y-30274120D03*
%TO.N,/VDD_BUF*%
X185552500Y-32852500D03*
D21*
%TO.N,/VG1*%
X182200000Y-84500000D03*
X187850000Y-71100000D03*
%TO.N,/VG0*%
X192500000Y-71250000D03*
X184850000Y-84700000D03*
%TD*%
%TO.N,Net-(C10-Pad2)*%
D23*
X184250000Y-38950000D02*
X184400000Y-39100000D01*
X184400000Y-39100000D02*
X193700000Y-39100000D01*
X193700000Y-39100000D02*
X194750000Y-40150000D01*
%TO.N,/pico_spi_rx*%
D24*
X224892500Y-82557500D02*
X224892500Y-88000000D01*
X236750000Y-70700000D02*
X224892500Y-82557500D01*
%TO.N,/LDO_VOUT*%
D23*
X205850000Y-70050000D02*
X205850000Y-74700000D01*
X217307236Y-55500000D02*
X212750000Y-55500000D01*
X206100000Y-69800000D02*
X205850000Y-70050000D01*
X224281424Y-44275812D02*
X213057236Y-55500000D01*
X212750000Y-55500000D02*
X208500000Y-55500000D01*
X204400000Y-55500000D02*
X214500000Y-45400000D01*
X224281424Y-43568576D02*
X224281424Y-44275812D01*
X219050000Y-45450000D02*
X209000000Y-55500000D01*
X209000000Y-55500000D02*
X208500000Y-55500000D01*
X213057236Y-55500000D02*
X212750000Y-55500000D01*
X228550000Y-43550000D02*
X228550000Y-44257236D01*
X208500000Y-55500000D02*
X204400000Y-55500000D01*
X214500000Y-45400000D02*
X215850000Y-45400000D01*
X228550000Y-44257236D02*
X217307236Y-55500000D01*
X220650000Y-45450000D02*
X219050000Y-45450000D01*
D24*
X224281424Y-43568576D02*
X224281424Y-43968576D01*
D23*
X201800000Y-55500000D02*
X204400000Y-55500000D01*
%TO.N,Net-(A1-GND-Pad13)*%
X194412500Y-105780000D02*
X195821500Y-104371000D01*
X219812500Y-93080000D02*
X228766250Y-102033750D01*
X219812500Y-88000000D02*
X219812500Y-93080000D01*
X208521500Y-104371000D02*
X209358750Y-103533750D01*
X194412500Y-88000000D02*
X195821500Y-89409000D01*
X209358750Y-103533750D02*
X216500000Y-103533750D01*
X230266250Y-103533750D02*
X232512500Y-105780000D01*
X207112500Y-105780000D02*
X208521500Y-104371000D01*
X195821500Y-104371000D02*
X208521500Y-104371000D01*
X228766250Y-102033750D02*
X230266250Y-103533750D01*
X216500000Y-103533750D02*
X230266250Y-103533750D01*
X221146250Y-102033750D02*
X228766250Y-102033750D01*
X195821500Y-89409000D02*
X202375250Y-89409000D01*
X202375250Y-89409000D02*
X216500000Y-103533750D01*
X207112500Y-88000000D02*
X221146250Y-102033750D01*
X232512500Y-88000000D02*
X232512500Y-105780000D01*
%TO.N,/pico_spi_cs*%
D24*
X238100000Y-65800000D02*
X238100000Y-74546578D01*
X238100000Y-74546578D02*
X235052500Y-77594078D01*
X236900000Y-64600000D02*
X238100000Y-65800000D01*
X235052500Y-77594078D02*
X235052500Y-88000000D01*
%TO.N,/pico_spi_clk*%
X229972500Y-82027500D02*
X229972500Y-88000000D01*
X236850000Y-66800000D02*
X237600000Y-67550000D01*
X237600000Y-74400000D02*
X229972500Y-82027500D01*
X237600000Y-67550000D02*
X237600000Y-74400000D01*
%TO.N,/pico_spi_tx*%
X235100000Y-73400000D02*
X235100000Y-74400000D01*
X227432500Y-82067500D02*
X227432500Y-88000000D01*
X235100000Y-74400000D02*
X227432500Y-82067500D01*
%TO.N,/pico_irq*%
X236650000Y-68600000D02*
X236650000Y-69800000D01*
X220800000Y-82350000D02*
X217272500Y-85877500D01*
X236650000Y-69800000D02*
X224100000Y-82350000D01*
X224100000Y-82350000D02*
X220800000Y-82350000D01*
X217272500Y-85877500D02*
X217272500Y-88000000D01*
%TO.N,/pico_vg0*%
X191450000Y-76750000D02*
X191450000Y-76800000D01*
X191450000Y-76700000D02*
X191450000Y-76750000D01*
X189300000Y-74550000D02*
X191450000Y-76700000D01*
%TO.N,/pico_vg1*%
X184450000Y-74500000D02*
X186200000Y-76250000D01*
X186200000Y-76250000D02*
X186200000Y-76300000D01*
%TO.N,/pico_vg2*%
X180734200Y-75702200D02*
X180734200Y-81515800D01*
X179642000Y-74610000D02*
X180734200Y-75702200D01*
X180734200Y-81515800D02*
X180400000Y-81850000D01*
%TO.N,/pico_vg3*%
X176900000Y-76868000D02*
X176900000Y-81850000D01*
X174642000Y-74610000D02*
X176900000Y-76868000D01*
%TO.N,/pico_vg4*%
X171900000Y-82000000D02*
X171900000Y-82050000D01*
X171900000Y-76728000D02*
X171900000Y-82000000D01*
X169742000Y-74570000D02*
X171900000Y-76728000D01*
%TO.N,/VG4*%
X175600000Y-84500000D02*
X173200000Y-82100000D01*
X173200000Y-82100000D02*
X173200000Y-71150000D01*
%TO.N,Net-(J24-Pad1)*%
X236360200Y-54529800D02*
X230935000Y-49104600D01*
X230935000Y-49104600D02*
X230935000Y-42686974D01*
X221660000Y-38690000D02*
X220850000Y-39500000D01*
X230935000Y-42686974D02*
X226938026Y-38690000D01*
X226938026Y-38690000D02*
X221660000Y-38690000D01*
%TO.N,Net-(C25-Pad1)*%
X229665000Y-50374600D02*
X236360200Y-57069800D01*
X226675000Y-39325000D02*
X229665000Y-42315000D01*
X229665000Y-42315000D02*
X229665000Y-50374600D01*
%TO.N,/VARIABLE_LOAD*%
D25*
X209350000Y-61150000D02*
X200850000Y-69650000D01*
X209350000Y-60250000D02*
X209350000Y-61150000D01*
%TO.N,/VG2*%
D24*
X183050000Y-71300000D02*
X183050000Y-81500000D01*
X183050000Y-81500000D02*
X180000000Y-84550000D01*
%TO.N,/VOUT*%
D26*
X178300000Y-45000000D02*
X178300000Y-44000000D01*
X178300000Y-44000000D02*
X178300000Y-40950000D01*
X176050000Y-45800000D02*
X177850000Y-44000000D01*
D23*
X177850000Y-44000000D02*
X178300000Y-44000000D01*
D26*
X223650000Y-27200000D02*
X223650000Y-22200000D01*
X203300000Y-62950000D02*
X196250000Y-62950000D01*
X178300000Y-40950000D02*
X182450000Y-36800000D01*
X230670000Y-30850000D02*
X232910000Y-28610000D01*
X186800000Y-36800000D02*
X192750000Y-30850000D01*
X220000000Y-30850000D02*
X223650000Y-27200000D01*
X182450000Y-36800000D02*
X186800000Y-36800000D01*
X192750000Y-30850000D02*
X217523240Y-30850000D01*
X196250000Y-62950000D02*
X178300000Y-45000000D01*
X217523240Y-30850000D02*
X230670000Y-30850000D01*
X217523240Y-30850000D02*
X220000000Y-30850000D01*
%TO.N,/VG3*%
D24*
X178300000Y-84150000D02*
X177900000Y-84550000D01*
X178300000Y-71100000D02*
X178300000Y-84150000D01*
%TO.N,Net-(J23-Pad1)*%
X220100000Y-57260000D02*
X223050000Y-54310000D01*
X220100000Y-57400000D02*
X220100000Y-57260000D01*
%TO.N,/VSIG*%
D23*
X174775880Y-30274120D02*
X169180000Y-24678240D01*
X169180000Y-24678240D02*
X169180000Y-22155000D01*
%TO.N,/VG1*%
D24*
X187850000Y-78850000D02*
X187850000Y-71100000D01*
X182200000Y-84500000D02*
X187850000Y-78850000D01*
%TO.N,/VG0*%
X193150000Y-80550000D02*
X193150000Y-71900000D01*
X184850000Y-84700000D02*
X189000000Y-84700000D01*
X193150000Y-71900000D02*
X192500000Y-71250000D01*
X189000000Y-84700000D02*
X193150000Y-80550000D01*
%TD*%
M02*
