%TF.GenerationSoftware,KiCad,Pcbnew,10.0.6*%
%TF.CreationDate,2026-10-06T12:18:15-07:00*%
%TF.ProjectId,ee372b-ldo-testbench,65653337-3262-42d6-9c64-6f2d74657374,rev?*%
%TF.SameCoordinates,Original*%
%TF.FileFunction,Paste,Top*%
%TF.FilePolarity,Positive*%
%FSLAX46Y46*%
G04 Gerber Fmt 4.6, Leading zero omitted, Abs format (unit mm)*
G04 Created by KiCad (PCBNEW 10.0.6) date 2026-10-06 12:18:15*
%MOMM*%
%LPD*%
G01*
G04 APERTURE LIST*
G04 Aperture macros list*
%AMRoundRect*
0 Rectangle with rounded corners*
0 $1 Rounding radius*
0 $2 $3 $4 $5 $6 $7 $8 $9 X,Y pos of 4 corners*
0 Add a 4 corners polygon primitive as box body*
4,1,4,$2,$3,$4,$5,$6,$7,$8,$9,$2,$3,0*
0 Add four circle primitives for the rounded corners*
1,1,$1+$1,$2,$3*
1,1,$1+$1,$4,$5*
1,1,$1+$1,$6,$7*
1,1,$1+$1,$8,$9*
0 Add four rect primitives between the rounded corners*
20,1,$1+$1,$2,$3,$4,$5,0*
20,1,$1+$1,$4,$5,$6,$7,0*
20,1,$1+$1,$6,$7,$8,$9,0*
20,1,$1+$1,$8,$9,$2,$3,0*%
G04 Aperture macros list end*
%ADD10RoundRect,0.250000X-0.337500X-0.475000X0.337500X-0.475000X0.337500X0.475000X-0.337500X0.475000X0*%
%ADD11RoundRect,0.250000X0.337500X0.475000X-0.337500X0.475000X-0.337500X-0.475000X0.337500X-0.475000X0*%
%ADD12R,4.700000X3.430000*%
%ADD13RoundRect,0.250000X-0.450000X0.350000X-0.450000X-0.350000X0.450000X-0.350000X0.450000X0.350000X0*%
%ADD14RoundRect,0.250000X0.450000X-0.350000X0.450000X0.350000X-0.450000X0.350000X-0.450000X-0.350000X0*%
%ADD15RoundRect,0.250000X-0.350000X-0.450000X0.350000X-0.450000X0.350000X0.450000X-0.350000X0.450000X0*%
%ADD16RoundRect,0.250000X0.350000X0.450000X-0.350000X0.450000X-0.350000X-0.450000X0.350000X-0.450000X0*%
%ADD17RoundRect,0.250000X-0.475000X0.337500X-0.475000X-0.337500X0.475000X-0.337500X0.475000X0.337500X0*%
%ADD18RoundRect,0.249999X-0.450001X-1.425001X0.450001X-1.425001X0.450001X1.425001X-0.450001X1.425001X0*%
%ADD19RoundRect,0.250000X0.574524X0.097227X0.097227X0.574524X-0.574524X-0.097227X-0.097227X-0.574524X0*%
%ADD20RoundRect,0.075000X0.540000X0.225000X-0.540000X0.225000X-0.540000X-0.225000X0.540000X-0.225000X0*%
%ADD21RoundRect,0.250000X0.259922X-0.507386X0.555755X0.127030X-0.259922X0.507386X-0.555755X-0.127030X0*%
%ADD22RoundRect,0.249999X-1.010071X-1.101311X-0.194392X-1.481668X1.010071X1.101311X0.194392X1.481668X0*%
%ADD23R,0.355600X1.676400*%
%ADD24R,1.219200X0.762000*%
%ADD25RoundRect,0.075000X-0.910000X-0.225000X0.910000X-0.225000X0.910000X0.225000X-0.910000X0.225000X0*%
%ADD26R,1.055000X1.055000*%
%ADD27O,0.800000X0.350000*%
%ADD28O,0.350000X0.800000*%
%ADD29RoundRect,0.250000X-0.565685X-0.070711X-0.070711X-0.565685X0.565685X0.070711X0.070711X0.565685X0*%
G04 APERTURE END LIST*
D10*
%TO.C,C6*%
X193225000Y-46900000D03*
X195300000Y-46900000D03*
%TD*%
%TO.C,C2*%
X228937949Y-76100000D03*
X231012949Y-76100000D03*
%TD*%
%TO.C,C20*%
X227125000Y-45500000D03*
X229200000Y-45500000D03*
%TD*%
%TO.C,C22*%
X214775000Y-47600000D03*
X216850000Y-47600000D03*
%TD*%
D11*
%TO.C,C15*%
X224175449Y-63350000D03*
X222100449Y-63350000D03*
%TD*%
D10*
%TO.C,C8*%
X228937949Y-78150000D03*
X231012949Y-78150000D03*
%TD*%
D12*
%TO.C,TP7*%
X155450000Y-56000000D03*
%TD*%
D13*
%TO.C,R44*%
X220390000Y-78708000D03*
X220390000Y-80708000D03*
%TD*%
D14*
%TO.C,R60*%
X182400000Y-43500000D03*
X182400000Y-41500000D03*
%TD*%
D11*
%TO.C,C28*%
X146850000Y-85050000D03*
X144775000Y-85050000D03*
%TD*%
D15*
%TO.C,R3*%
X233075449Y-69950000D03*
X235075449Y-69950000D03*
%TD*%
D16*
%TO.C,R38*%
X221400000Y-43500000D03*
X219400000Y-43500000D03*
%TD*%
%TO.C,R41*%
X229150000Y-47900000D03*
X227150000Y-47900000D03*
%TD*%
D10*
%TO.C,C5*%
X193262500Y-44800000D03*
X195337500Y-44800000D03*
%TD*%
D17*
%TO.C,C19*%
X167750000Y-60550000D03*
X167750000Y-62625000D03*
%TD*%
D12*
%TO.C,TP13*%
X196500000Y-31000000D03*
%TD*%
D15*
%TO.C,R57*%
X222475000Y-112975000D03*
X224475000Y-112975000D03*
%TD*%
%TO.C,R7*%
X222162949Y-65400000D03*
X224162949Y-65400000D03*
%TD*%
D10*
%TO.C,C21*%
X219325000Y-47300000D03*
X221400000Y-47300000D03*
%TD*%
D11*
%TO.C,C30*%
X207537500Y-39700000D03*
X205462500Y-39700000D03*
%TD*%
D13*
%TO.C,R18*%
X179600000Y-60140000D03*
X179600000Y-62140000D03*
%TD*%
D11*
%TO.C,C3*%
X229550000Y-110100000D03*
X227475000Y-110100000D03*
%TD*%
D13*
%TO.C,R19*%
X177500000Y-60090000D03*
X177500000Y-62090000D03*
%TD*%
D14*
%TO.C,R62*%
X183180000Y-24655000D03*
X183180000Y-22655000D03*
%TD*%
%TO.C,R64*%
X209300000Y-70600000D03*
X209300000Y-68600000D03*
%TD*%
D18*
%TO.C,R56*%
X155250000Y-34450000D03*
X161350000Y-34450000D03*
%TD*%
D14*
%TO.C,R49*%
X215750000Y-60350000D03*
X215750000Y-58350000D03*
%TD*%
D15*
%TO.C,R1*%
X233075449Y-63900000D03*
X235075449Y-63900000D03*
%TD*%
D12*
%TO.C,TP10*%
X152300000Y-101600000D03*
%TD*%
%TO.C,TP9*%
X197700000Y-77050000D03*
%TD*%
D19*
%TO.C,C29*%
X203067246Y-50317246D03*
X201600000Y-48850000D03*
%TD*%
D16*
%TO.C,R40*%
X216750000Y-50050000D03*
X214750000Y-50050000D03*
%TD*%
D20*
%TO.C,Q3*%
X181620000Y-70650000D03*
X181620000Y-68750000D03*
X179500000Y-69700000D03*
%TD*%
D15*
%TO.C,R8*%
X222212949Y-73600000D03*
X224212949Y-73600000D03*
%TD*%
D12*
%TO.C,TP12*%
X177850000Y-54200000D03*
%TD*%
%TO.C,TP14*%
X152300000Y-107800000D03*
%TD*%
D13*
%TO.C,R14*%
X179550000Y-85650000D03*
X179550000Y-87650000D03*
%TD*%
D21*
%TO.C,R50*%
X192727382Y-51006308D03*
X193572618Y-49193692D03*
%TD*%
D22*
%TO.C,R59*%
X198285761Y-57461014D03*
X203814239Y-60038986D03*
%TD*%
D16*
%TO.C,R4*%
X235075449Y-67950000D03*
X233075449Y-67950000D03*
%TD*%
D15*
%TO.C,R46*%
X228250000Y-63600000D03*
X230250000Y-63600000D03*
%TD*%
D12*
%TO.C,TP6*%
X161400000Y-51400000D03*
%TD*%
D13*
%TO.C,R16*%
X181700000Y-60140000D03*
X181700000Y-62140000D03*
%TD*%
D11*
%TO.C,C1*%
X227125449Y-76100000D03*
X225050449Y-76100000D03*
%TD*%
D23*
%TO.C,U3*%
X230575448Y-68030600D03*
X229925450Y-68030600D03*
X229275448Y-68030600D03*
X228625450Y-68030600D03*
X227975451Y-68030600D03*
X227325450Y-68030600D03*
X226675451Y-68030600D03*
X226025450Y-68030600D03*
X226025450Y-73669400D03*
X226675448Y-73669400D03*
X227325450Y-73669400D03*
X227975448Y-73669400D03*
X228625447Y-73669400D03*
X229275448Y-73669400D03*
X229925447Y-73669400D03*
X230575448Y-73669400D03*
%TD*%
D24*
%TO.C,U1*%
X155373600Y-39650000D03*
X158726400Y-39650000D03*
%TD*%
D16*
%TO.C,R54*%
X175150000Y-33500000D03*
X173150000Y-33500000D03*
%TD*%
D19*
%TO.C,C10*%
X207617246Y-47217246D03*
X206150000Y-45750000D03*
%TD*%
D14*
%TO.C,R55*%
X177180000Y-24655000D03*
X177180000Y-22655000D03*
%TD*%
D16*
%TO.C,R39*%
X221450000Y-49850000D03*
X219450000Y-49850000D03*
%TD*%
D25*
%TO.C,U4*%
X177780000Y-28845000D03*
X177780000Y-30115000D03*
X177780000Y-31385000D03*
X177780000Y-32655000D03*
X182720000Y-32655000D03*
X182720000Y-31385000D03*
X182720000Y-30115000D03*
X182720000Y-28845000D03*
%TD*%
D11*
%TO.C,C16*%
X224200449Y-71550000D03*
X222125449Y-71550000D03*
%TD*%
D26*
%TO.C,U2*%
X198950000Y-41425000D03*
X198950000Y-42700000D03*
X198950000Y-43975000D03*
X198950000Y-45250000D03*
X200225000Y-41425000D03*
X200225000Y-42700000D03*
X200225000Y-43975000D03*
X200225000Y-45250000D03*
X201500000Y-41425000D03*
X201500000Y-42700000D03*
X201500000Y-43975000D03*
X201500000Y-45250000D03*
X202775000Y-41425000D03*
X202775000Y-42700000D03*
X202775000Y-43975000D03*
X202775000Y-45250000D03*
D27*
X197362500Y-41062500D03*
X197362500Y-41712500D03*
X197362500Y-42362500D03*
X197362500Y-43012500D03*
X197362500Y-43662500D03*
X197362500Y-44312500D03*
X197362500Y-44962500D03*
X197362500Y-45612500D03*
D28*
X198587500Y-46837500D03*
X199237500Y-46837500D03*
X199887500Y-46837500D03*
X200537500Y-46837500D03*
X201187500Y-46837500D03*
X201837500Y-46837500D03*
X202487500Y-46837500D03*
X203137500Y-46837500D03*
D27*
X204362500Y-45612500D03*
X204362500Y-44962500D03*
X204362500Y-44312500D03*
X204362500Y-43662500D03*
X204362500Y-43012500D03*
X204362500Y-42362500D03*
X204362500Y-41712500D03*
X204362500Y-41062500D03*
D28*
X203137500Y-39837500D03*
X202487500Y-39837500D03*
X201837500Y-39837500D03*
X201187500Y-39837500D03*
X200537500Y-39837500D03*
X199887500Y-39837500D03*
X199237500Y-39837500D03*
X198587500Y-39837500D03*
%TD*%
D12*
%TO.C,TP5*%
X208000000Y-31000000D03*
%TD*%
D13*
%TO.C,R15*%
X177450000Y-85650000D03*
X177450000Y-87650000D03*
%TD*%
%TO.C,R12*%
X181650000Y-85650000D03*
X181650000Y-87650000D03*
%TD*%
%TO.C,R10*%
X183750000Y-85650000D03*
X183750000Y-87650000D03*
%TD*%
D10*
%TO.C,C25*%
X226212500Y-35450000D03*
X228287500Y-35450000D03*
%TD*%
D17*
%TO.C,C24*%
X198700000Y-36300000D03*
X198700000Y-38375000D03*
%TD*%
D13*
%TO.C,R17*%
X175350000Y-85650000D03*
X175350000Y-87650000D03*
%TD*%
D15*
%TO.C,R6*%
X222175449Y-69500000D03*
X224175449Y-69500000D03*
%TD*%
D11*
%TO.C,C17*%
X207932500Y-42115000D03*
X205857500Y-42115000D03*
%TD*%
D14*
%TO.C,R48*%
X214700000Y-36575000D03*
X214700000Y-34575000D03*
%TD*%
D10*
%TO.C,C4*%
X193725000Y-41800000D03*
X195800000Y-41800000D03*
%TD*%
D16*
%TO.C,R43*%
X228300000Y-37850000D03*
X226300000Y-37850000D03*
%TD*%
D20*
%TO.C,Q5*%
X171935000Y-70600000D03*
X171935000Y-68700000D03*
X169815000Y-69650000D03*
%TD*%
D12*
%TO.C,TP2*%
X161250000Y-45700000D03*
%TD*%
D13*
%TO.C,R63*%
X208250000Y-60100000D03*
X208250000Y-62100000D03*
%TD*%
D14*
%TO.C,R58*%
X211600000Y-60300000D03*
X211600000Y-58300000D03*
%TD*%
D16*
%TO.C,R5*%
X235075449Y-71950000D03*
X233075449Y-71950000D03*
%TD*%
D13*
%TO.C,R20*%
X175350000Y-60140000D03*
X175350000Y-62140000D03*
%TD*%
D16*
%TO.C,R2*%
X235075449Y-65900000D03*
X233075449Y-65900000D03*
%TD*%
D11*
%TO.C,C14*%
X224175449Y-67450000D03*
X222100449Y-67450000D03*
%TD*%
D19*
%TO.C,C7*%
X205967246Y-49367246D03*
X204500000Y-47900000D03*
%TD*%
D29*
%TO.C,R47*%
X193800000Y-36500000D03*
X195214214Y-37914214D03*
%TD*%
D11*
%TO.C,C12*%
X227125449Y-78150000D03*
X225050449Y-78150000D03*
%TD*%
D13*
%TO.C,R13*%
X183900000Y-60190000D03*
X183900000Y-62190000D03*
%TD*%
D11*
%TO.C,C26*%
X148287500Y-52250000D03*
X146212500Y-52250000D03*
%TD*%
D21*
%TO.C,R51*%
X194500000Y-51850000D03*
X195345236Y-50037384D03*
%TD*%
D20*
%TO.C,Q2*%
X186520000Y-70650000D03*
X186520000Y-68750000D03*
X184400000Y-69700000D03*
%TD*%
D14*
%TO.C,R65*%
X213150000Y-70750000D03*
X213150000Y-68750000D03*
%TD*%
D17*
%TO.C,C18*%
X171750000Y-60450000D03*
X171750000Y-62525000D03*
%TD*%
D13*
%TO.C,R37*%
X220850000Y-34625000D03*
X220850000Y-36625000D03*
%TD*%
D12*
%TO.C,TP8*%
X197500000Y-69100000D03*
%TD*%
D15*
%TO.C,R45*%
X168100000Y-39750000D03*
X170100000Y-39750000D03*
%TD*%
D12*
%TO.C,TP1*%
X154500000Y-44450000D03*
%TD*%
D16*
%TO.C,R61*%
X216800000Y-43700000D03*
X214800000Y-43700000D03*
%TD*%
D21*
%TO.C,R52*%
X196277382Y-52706308D03*
X197122618Y-50893692D03*
%TD*%
%TO.C,R53*%
X198077382Y-53506308D03*
X198922618Y-51693692D03*
%TD*%
D12*
%TO.C,TP4*%
X207250000Y-78100000D03*
%TD*%
D17*
%TO.C,C23*%
X202107500Y-36312500D03*
X202107500Y-38387500D03*
%TD*%
D20*
%TO.C,Q1*%
X191285000Y-70700000D03*
X191285000Y-68800000D03*
X189165000Y-69750000D03*
%TD*%
%TO.C,Q4*%
X176805000Y-70650000D03*
X176805000Y-68750000D03*
X174685000Y-69700000D03*
%TD*%
D12*
%TO.C,TP11*%
X155650000Y-61950000D03*
%TD*%
D16*
%TO.C,R42*%
X222850000Y-40900000D03*
X220850000Y-40900000D03*
%TD*%
D12*
%TO.C,TP3*%
X175650000Y-48400000D03*
%TD*%
D11*
%TO.C,C13*%
X187627500Y-30310000D03*
X185552500Y-30310000D03*
%TD*%
D13*
%TO.C,R11*%
X185950000Y-60190000D03*
X185950000Y-62190000D03*
%TD*%
D16*
%TO.C,R9*%
X229212500Y-41800000D03*
X227212500Y-41800000D03*
%TD*%
M02*
