%TF.GenerationSoftware,KiCad,Pcbnew,10.0.6*%
%TF.CreationDate,2026-10-08T18:15:12-07:00*%
%TF.ProjectId,ee372b-ldo-testbench,65653337-3262-42d6-9c64-6f2d74657374,rev?*%
%TF.SameCoordinates,Original*%
%TF.FileFunction,Legend,Bot*%
%TF.FilePolarity,Positive*%
%FSLAX46Y46*%
G04 Gerber Fmt 4.6, Leading zero omitted, Abs format (unit mm)*
G04 Created by KiCad (PCBNEW 10.0.6) date 2026-10-08 18:15:12*
%MOMM*%
%LPD*%
G01*
G04 APERTURE LIST*
G04 Aperture macros list*
%AMRoundRect*
0 Rectangle with rounded corners*
0 $1 Rounding radius*
0 $2 $3 $4 $5 $6 $7 $8 $9 X,Y pos of 4 corners*
0 Add a 4 corners polygon primitive as box body*
4,1,4,$2,$3,$4,$5,$6,$7,$8,$9,$2,$3,0*
0 Add four circle primitives for the rounded corners*
1,1,$1+$1,$2,$3*
1,1,$1+$1,$4,$5*
1,1,$1+$1,$6,$7*
1,1,$1+$1,$8,$9*
0 Add four rect primitives between the rounded corners*
20,1,$1+$1,$2,$3,$4,$5,0*
20,1,$1+$1,$4,$5,$6,$7,0*
20,1,$1+$1,$6,$7,$8,$9,0*
20,1,$1+$1,$8,$9,$2,$3,0*%
%AMFreePoly0*
4,1,37,0.603843,0.796157,0.639018,0.796157,0.711114,0.766294,0.766294,0.711114,0.796157,0.639018,0.796157,0.603843,0.800000,0.600000,0.800000,-0.600000,0.796157,-0.603843,0.796157,-0.639018,0.766294,-0.711114,0.711114,-0.766294,0.639018,-0.796157,0.603843,-0.796157,0.600000,-0.800000,0.000000,-0.800000,0.000000,-0.796148,-0.078414,-0.796148,-0.232228,-0.765552,-0.377117,-0.705537,
-0.507515,-0.618408,-0.618408,-0.507515,-0.705537,-0.377117,-0.765552,-0.232228,-0.796148,-0.078414,-0.796148,0.078414,-0.765552,0.232228,-0.705537,0.377117,-0.618408,0.507515,-0.507515,0.618408,-0.377117,0.705537,-0.232228,0.765552,-0.078414,0.796148,0.000000,0.796148,0.000000,0.800000,0.600000,0.800000,0.603843,0.796157,0.603843,0.796157,$1*%
%AMFreePoly1*
4,1,37,0.000000,0.796148,0.078414,0.796148,0.232228,0.765552,0.377117,0.705537,0.507515,0.618408,0.618408,0.507515,0.705537,0.377117,0.765552,0.232228,0.796148,0.078414,0.796148,-0.078414,0.765552,-0.232228,0.705537,-0.377117,0.618408,-0.507515,0.507515,-0.618408,0.377117,-0.705537,0.232228,-0.765552,0.078414,-0.796148,0.000000,-0.796148,0.000000,-0.800000,-0.600000,-0.800000,
-0.603843,-0.796157,-0.639018,-0.796157,-0.711114,-0.766294,-0.766294,-0.711114,-0.796157,-0.639018,-0.796157,-0.603843,-0.800000,-0.600000,-0.800000,0.600000,-0.796157,0.603843,-0.796157,0.639018,-0.766294,0.711114,-0.711114,0.766294,-0.639018,0.796157,-0.603843,0.796157,-0.600000,0.800000,0.000000,0.800000,0.000000,0.796148,0.000000,0.796148,$1*%
G04 Aperture macros list end*
%ADD10C,0.508000*%
%ADD11C,1.524000*%
%ADD12C,2.200000*%
%ADD13C,1.850000*%
%ADD14RoundRect,0.200000X-0.600000X0.600000X-0.600000X-0.600000X0.600000X-0.600000X0.600000X0.600000X0*%
%ADD15C,1.600000*%
%ADD16FreePoly0,270.000000*%
%ADD17FreePoly1,270.000000*%
%ADD18C,2.550000*%
%ADD19C,2.500000*%
%ADD20C,2.604000*%
%ADD21C,0.637500*%
%ADD22C,1.404000*%
%ADD23RoundRect,0.102000X-0.600000X-0.600000X0.600000X-0.600000X0.600000X0.600000X-0.600000X0.600000X0*%
G04 APERTURE END LIST*
%TO.C,J21*%
D10*
X222306000Y-40000000D02*
G75*
G02*
X221544000Y-40000000I-381000J0D01*
G01*
X221544000Y-40000000D02*
G75*
G02*
X222306000Y-40000000I381000J0D01*
G01*
%TO.C,J2*%
X171881000Y-51885000D02*
G75*
G02*
X171119000Y-51885000I-381000J0D01*
G01*
X171119000Y-51885000D02*
G75*
G02*
X171881000Y-51885000I381000J0D01*
G01*
%TO.C,J24*%
X222206000Y-55700000D02*
G75*
G02*
X221444000Y-55700000I-381000J0D01*
G01*
X221444000Y-55700000D02*
G75*
G02*
X222206000Y-55700000I381000J0D01*
G01*
%TO.C,J1*%
X167831000Y-51935000D02*
G75*
G02*
X167069000Y-51935000I-381000J0D01*
G01*
X167069000Y-51935000D02*
G75*
G02*
X167831000Y-51935000I381000J0D01*
G01*
%TO.C,JP3*%
X166926000Y-30655000D02*
G75*
G02*
X166164000Y-30655000I-381000J0D01*
G01*
X166164000Y-30655000D02*
G75*
G02*
X166926000Y-30655000I381000J0D01*
G01*
%TO.C,J22*%
X222166000Y-45100000D02*
G75*
G02*
X221404000Y-45100000I-381000J0D01*
G01*
X221404000Y-45100000D02*
G75*
G02*
X222166000Y-45100000I381000J0D01*
G01*
%TO.C,J23*%
X222166000Y-50300000D02*
G75*
G02*
X221404000Y-50300000I-381000J0D01*
G01*
X221404000Y-50300000D02*
G75*
G02*
X222166000Y-50300000I381000J0D01*
G01*
%TD*%
%LPC*%
D11*
%TO.C,J21*%
X225100000Y-40000000D03*
X227640000Y-40000000D03*
%TD*%
D12*
%TO.C,A1*%
X237462500Y-94165000D03*
D13*
X234432500Y-94465000D03*
X234432500Y-99315000D03*
D12*
X237462500Y-99615000D03*
D14*
X237592500Y-88000000D03*
D15*
X235052500Y-88000000D03*
D16*
X232512500Y-88000000D03*
D15*
X229972500Y-88000000D03*
X227432500Y-88000000D03*
X224892500Y-88000000D03*
X222352500Y-88000000D03*
D16*
X219812500Y-88000000D03*
D15*
X217272500Y-88000000D03*
X214732500Y-88000000D03*
X212192500Y-88000000D03*
X209652500Y-88000000D03*
D16*
X207112500Y-88000000D03*
D15*
X204572500Y-88000000D03*
X202032500Y-88000000D03*
X199492500Y-88000000D03*
X196952500Y-88000000D03*
D16*
X194412500Y-88000000D03*
D15*
X191872500Y-88000000D03*
X189332500Y-88000000D03*
X189332500Y-105780000D03*
X191872500Y-105780000D03*
D17*
X194412500Y-105780000D03*
D15*
X196952500Y-105780000D03*
X199492500Y-105780000D03*
X202032500Y-105780000D03*
X204572500Y-105780000D03*
D17*
X207112500Y-105780000D03*
D15*
X209652500Y-105780000D03*
X212192500Y-105780000D03*
X214732500Y-105780000D03*
X217272500Y-105780000D03*
D17*
X219812500Y-105780000D03*
D15*
X222352500Y-105780000D03*
X224892500Y-105780000D03*
X227432500Y-105780000D03*
X229972500Y-105780000D03*
D17*
X232512500Y-105780000D03*
D15*
X235052500Y-105780000D03*
X237592500Y-105780000D03*
%TD*%
D18*
%TO.C,J6*%
X221340000Y-24540000D03*
X221340000Y-19460000D03*
X216260000Y-24540000D03*
X216260000Y-19460000D03*
%TD*%
D11*
%TO.C,J19*%
X165200000Y-112400000D03*
X165200000Y-109860000D03*
X165200000Y-107320000D03*
%TD*%
%TO.C,J2*%
X171500000Y-55060000D03*
X171500000Y-57600000D03*
%TD*%
%TO.C,J24*%
X225000000Y-55700000D03*
X227540000Y-55700000D03*
%TD*%
D18*
%TO.C,J3*%
X147730000Y-74110000D03*
X142650000Y-74110000D03*
X147730000Y-79190000D03*
X142650000Y-79190000D03*
%TD*%
D19*
%TO.C,H3*%
X235000000Y-22000000D03*
%TD*%
%TO.C,H1*%
X145000000Y-112000000D03*
%TD*%
D11*
%TO.C,J18*%
X169100000Y-112340000D03*
X169100000Y-109800000D03*
X169100000Y-107260000D03*
%TD*%
D20*
%TO.C,J10*%
X235400000Y-29400000D03*
X232860000Y-26860000D03*
X237940000Y-26860000D03*
X232860000Y-31940000D03*
X237940000Y-31940000D03*
%TD*%
D18*
%TO.C,J11*%
X206000000Y-24380000D03*
X206000000Y-19300000D03*
X200920000Y-24380000D03*
X200920000Y-19300000D03*
%TD*%
D20*
%TO.C,J13*%
X164860000Y-21760000D03*
X162320000Y-19220000D03*
X167400000Y-19220000D03*
X162320000Y-24300000D03*
X167400000Y-24300000D03*
%TD*%
D19*
%TO.C,H2*%
X235000000Y-112000000D03*
%TD*%
D11*
%TO.C,J1*%
X167450000Y-55110000D03*
X167450000Y-57650000D03*
%TD*%
D21*
%TO.C,U2*%
X199587500Y-42062500D03*
X199587500Y-43337500D03*
X199587500Y-44612500D03*
X200862500Y-42062500D03*
X200862500Y-43337500D03*
X200862500Y-44612500D03*
X202137500Y-42062500D03*
X202137500Y-43337500D03*
X202137500Y-44612500D03*
%TD*%
D20*
%TO.C,J15*%
X176560000Y-21840000D03*
X174020000Y-19300000D03*
X179100000Y-19300000D03*
X174020000Y-24380000D03*
X179100000Y-24380000D03*
%TD*%
D11*
%TO.C,J25*%
X217440000Y-80058000D03*
X214900000Y-80058000D03*
X212360000Y-80058000D03*
%TD*%
D20*
%TO.C,J20*%
X235300000Y-38400000D03*
X232760000Y-35860000D03*
X237840000Y-35860000D03*
X232760000Y-40940000D03*
X237840000Y-40940000D03*
%TD*%
D11*
%TO.C,J16*%
X177000000Y-112240000D03*
X177000000Y-109700000D03*
X177000000Y-107160000D03*
%TD*%
D18*
%TO.C,J4*%
X147680000Y-44210000D03*
X142600000Y-44210000D03*
X147680000Y-49290000D03*
X142600000Y-49290000D03*
%TD*%
D11*
%TO.C,JP3*%
X169720000Y-30655000D03*
X172260000Y-30655000D03*
%TD*%
D20*
%TO.C,J9*%
X145750000Y-33500000D03*
X143210000Y-30960000D03*
X148290000Y-30960000D03*
X143210000Y-36040000D03*
X148290000Y-36040000D03*
%TD*%
D11*
%TO.C,J22*%
X224960000Y-45100000D03*
X227500000Y-45100000D03*
%TD*%
%TO.C,J17*%
X173000000Y-112440000D03*
X173000000Y-109900000D03*
X173000000Y-107360000D03*
%TD*%
D19*
%TO.C,H4*%
X145000000Y-22000000D03*
%TD*%
D18*
%TO.C,J12*%
X147680000Y-59210000D03*
X142600000Y-59210000D03*
X147680000Y-64290000D03*
X142600000Y-64290000D03*
%TD*%
D11*
%TO.C,J14*%
X181000000Y-112280000D03*
X181000000Y-109740000D03*
X181000000Y-107200000D03*
%TD*%
D22*
%TO.C,C11*%
X156250000Y-25250000D03*
D23*
X152750000Y-25250000D03*
%TD*%
D18*
%TO.C,J5*%
X147845000Y-89035000D03*
X142765000Y-89035000D03*
X147845000Y-94115000D03*
X142765000Y-94115000D03*
%TD*%
D11*
%TO.C,J23*%
X224960000Y-50300000D03*
X227500000Y-50300000D03*
%TD*%
%LPD*%
M02*
