M48
; DRILL file KiCad 10.0.6 date 2026-10-08T18:15:19
; FORMAT={-:-/ absolute / metric / decimal}
; #@! TF.CreationDate,2026-10-08T18:15:19-07:00
; #@! TF.GenerationSoftware,Kicad,Pcbnew,10.0.6
; #@! TF.FileFunction,Plated,1,4,PTH
FMAT,2
METRIC
; #@! TA.AperFunction,Plated,PTH,ViaDrill
T1C0.254
; #@! TA.AperFunction,Plated,PTH,ViaDrill
T2C0.300
; #@! TA.AperFunction,Plated,PTH,ComponentDrill
T3C0.300
; #@! TA.AperFunction,Plated,PTH,ViaDrill
T4C0.305
; #@! TA.AperFunction,Plated,PTH,ViaDrill
T5C0.508
; #@! TA.AperFunction,Plated,PTH,ComponentDrill
T6C0.850
; #@! TA.AperFunction,Plated,PTH,ComponentDrill
T7C1.000
; #@! TA.AperFunction,Plated,PTH,ComponentDrill
T8C1.016
; #@! TA.AperFunction,Plated,PTH,ComponentDrill
T9C1.600
; #@! TA.AperFunction,Plated,PTH,ComponentDrill
T10C1.700
%
G90
G05
T1
X200.25Y-38.8
T2
X170.3Y-115.6
X171.1Y-72.4
X172.9Y-114.871
X175.1Y-72.5
X175.9Y-68.6
X176.9Y-114.171
X179.3Y-72.5
X179.871Y-113.443
X180.3Y-68.5
X183.2Y-72.5
X184.4Y-68.4
X187.1Y-72.5
X188.2Y-68.5
X192.0Y-68.4
X196.5Y-42.9
X196.535Y-44.49
X196.6Y-40.4
X206.3Y-40.8
X237.5Y-45.3
X238.1Y-52.7
X238.4Y-49.2
X238.6Y-57.0
T3
X199.587Y-42.062
X199.587Y-43.337
X199.587Y-44.612
X200.862Y-42.062
X200.862Y-43.337
X200.862Y-44.612
X202.137Y-42.062
X202.137Y-43.337
X202.137Y-44.612
T4
X175.35Y-31.95
X176.445Y-32.655
X194.5Y-35.2
X196.7Y-47.0
X197.0Y-37.3
X199.716Y-37.499
X200.2Y-48.85
X200.5Y-38.0
X200.6Y-37.2
X200.7Y-50.1
X203.6Y-38.2
X203.7Y-37.2
X204.0Y-38.9
X205.15Y-44.95
X205.2Y-38.3
X206.0Y-47.4
X206.05Y-43.45
X207.4Y-45.0
X207.9Y-50.35
X209.028Y-49.328
X209.5Y-40.2
X220.7Y-64.1
X220.7Y-66.8
X220.9Y-72.1
X223.725Y-76.8
X223.875Y-78.55
X227.875Y-66.45
X228.575Y-65.15
X229.475Y-65.65
X232.125Y-76.4
X232.125Y-78.35
X235.1Y-73.4
X236.65Y-68.6
X236.75Y-70.7
X236.85Y-66.8
X236.9Y-64.6
T5
X143.4Y-84.5
X144.9Y-53.05
X148.9Y-23.6
X149.0Y-107.7
X151.95Y-63.65
X157.2Y-40.8
X157.95Y-51.6
X159.5Y-40.8
X162.6Y-102.8
X166.6Y-99.5
X169.3Y-63.4
X170.5Y-96.8
X173.2Y-63.3
X174.776Y-30.274
X174.8Y-92.5
X176.05Y-45.8
X178.9Y-87.7
X180.3Y-51.35
X184.25Y-38.95
X185.552Y-32.852
X187.7Y-82.0
X188.95Y-30.8
X191.837Y-44.6
X191.9Y-46.385
X192.15Y-41.56
X194.75Y-40.15
X196.3Y-76.6
X198.5Y-73.1
X199.3Y-35.1
X199.3Y-62.9
X201.2Y-63.6
X201.625Y-35.175
X201.8Y-51.65
X201.8Y-55.5
X204.5Y-72.7
X205.3Y-62.1
X206.6Y-68.6
X209.0Y-39.1
X209.3Y-41.2
X209.35Y-60.25
X215.2Y-66.4
X217.0Y-83.0
X218.6Y-53.7
X221.4Y-113.9
X221.5Y-57.1
X221.9Y-33.2
X225.651Y-79.552
X226.595Y-82.041
X226.8Y-27.3
T6
X152.75Y-25.25
X156.25Y-25.25
T7
X189.332Y-88.0
X189.332Y-105.78
X191.873Y-88.0
X191.873Y-105.78
X194.412Y-88.0
X194.412Y-105.78
X196.952Y-88.0
X196.952Y-105.78
X199.492Y-88.0
X199.492Y-105.78
X202.032Y-88.0
X202.032Y-105.78
X204.572Y-88.0
X204.572Y-105.78
X207.112Y-88.0
X207.112Y-105.78
X209.653Y-88.0
X209.653Y-105.78
X212.192Y-88.0
X212.192Y-105.78
X214.732Y-88.0
X214.732Y-105.78
X217.272Y-88.0
X217.272Y-105.78
X219.812Y-88.0
X219.812Y-105.78
X222.352Y-88.0
X222.352Y-105.78
X224.892Y-88.0
X224.892Y-105.78
X227.432Y-88.0
X227.432Y-105.78
X229.972Y-88.0
X229.972Y-105.78
X232.512Y-88.0
X232.512Y-105.78
X235.052Y-88.0
X235.052Y-105.78
X237.593Y-88.0
X237.593Y-105.78
T8
X165.2Y-107.32
X165.2Y-109.86
X165.2Y-112.4
X167.45Y-55.11
X167.45Y-57.65
X169.1Y-107.26
X169.1Y-109.8
X169.1Y-112.34
X169.72Y-30.655
X171.5Y-55.06
X171.5Y-57.6
X172.26Y-30.655
X173.0Y-107.36
X173.0Y-109.9
X173.0Y-112.44
X177.0Y-107.16
X177.0Y-109.7
X177.0Y-112.24
X181.0Y-107.2
X181.0Y-109.74
X181.0Y-112.28
X212.36Y-80.058
X214.9Y-80.058
X217.44Y-80.058
X224.96Y-45.1
X224.96Y-50.3
X225.0Y-55.7
X225.1Y-40.0
X227.5Y-45.1
X227.5Y-50.3
X227.54Y-55.7
X227.64Y-40.0
T9
X143.21Y-30.96
X143.21Y-36.04
X145.75Y-33.5
X148.29Y-30.96
X148.29Y-36.04
X162.32Y-19.22
X162.32Y-24.3
X164.86Y-21.76
X167.4Y-19.22
X167.4Y-24.3
X174.02Y-19.3
X174.02Y-24.38
X176.56Y-21.84
X179.1Y-19.3
X179.1Y-24.38
X232.76Y-35.86
X232.76Y-40.94
X232.86Y-26.86
X232.86Y-31.94
X235.3Y-38.4
X235.4Y-29.4
X237.84Y-35.86
X237.84Y-40.94
X237.94Y-26.86
X237.94Y-31.94
T10
X142.6Y-44.21
X142.6Y-49.29
X142.6Y-59.21
X142.6Y-64.29
X142.65Y-74.11
X142.65Y-79.19
X142.765Y-89.035
X142.765Y-94.115
X147.68Y-44.21
X147.68Y-49.29
X147.68Y-59.21
X147.68Y-64.29
X147.73Y-74.11
X147.73Y-79.19
X147.845Y-89.035
X147.845Y-94.115
X200.92Y-19.3
X200.92Y-24.38
X206.0Y-19.3
X206.0Y-24.38
X216.26Y-19.46
X216.26Y-24.54
X221.34Y-19.46
X221.34Y-24.54
M30
