M48
; DRILL file KiCad 10.0.6 date 2026-10-06T12:17:36
; FORMAT={-:-/ absolute / metric / decimal}
; #@! TF.CreationDate,2026-10-06T12:17:36-07:00
; #@! TF.GenerationSoftware,Kicad,Pcbnew,10.0.6
; #@! TF.FileFunction,Plated,1,4,PTH
FMAT,2
METRIC
; #@! TA.AperFunction,Plated,PTH,ViaDrill
T1C0.300
; #@! TA.AperFunction,Plated,PTH,ComponentDrill
T2C0.300
; #@! TA.AperFunction,Plated,PTH,ViaDrill
T3C0.305
; #@! TA.AperFunction,Plated,PTH,ViaDrill
T4C0.508
; #@! TA.AperFunction,Plated,PTH,ComponentDrill
T5C0.850
; #@! TA.AperFunction,Plated,PTH,ComponentDrill
T6C1.000
; #@! TA.AperFunction,Plated,PTH,ComponentDrill
T7C1.016
; #@! TA.AperFunction,Plated,PTH,ComponentDrill
T8C1.600
; #@! TA.AperFunction,Plated,PTH,ComponentDrill
T9C1.700
%
G90
G05
T1
X196.5Y-43.065
X196.535Y-44.565
X196.6Y-40.4
X206.3Y-40.9
T2
X199.587Y-42.062
X199.587Y-43.337
X199.587Y-44.612
X200.862Y-42.062
X200.862Y-43.337
X200.862Y-44.612
X202.137Y-42.062
X202.137Y-43.337
X202.137Y-44.612
T3
X171.9Y-82.0
X172.9Y-68.05
X173.2Y-71.15
X175.35Y-31.95
X175.6Y-84.5
X175.7Y-88.8
X176.445Y-32.655
X176.9Y-81.85
X177.65Y-68.15
X177.775Y-88.775
X177.9Y-84.55
X178.3Y-71.1
X179.95Y-88.85
X180.0Y-84.55
X180.4Y-81.85
X182.0Y-88.9
X182.2Y-84.5
X182.6Y-68.15
X183.05Y-71.3
X184.45Y-88.75
X184.85Y-84.7
X186.2Y-76.3
X187.25Y-69.5
X187.85Y-71.1
X191.45Y-76.75
X191.85Y-69.7
X192.5Y-71.25
X194.5Y-35.2
X196.8Y-47.3
X197.0Y-37.3
X199.716Y-37.499
X200.2Y-48.85
X200.2Y-48.85
X200.25Y-38.75
X200.3Y-37.95
X200.45Y-37.25
X200.7Y-50.1
X201.3Y-77.05
X201.8Y-55.5
X203.6Y-38.1
X203.7Y-37.2
X203.7Y-38.8
X205.15Y-44.95
X205.2Y-38.3
X205.6Y-47.4
X205.85Y-74.7
X206.05Y-43.45
X206.1Y-69.8
X207.1Y-45.1
X207.9Y-50.35
X209.028Y-49.328
X209.35Y-60.25
X209.5Y-40.2
X215.1Y-32.7
X215.85Y-45.4
X217.7Y-83.55
X217.85Y-48.05
X217.85Y-49.45
X219.0Y-59.5
X220.1Y-57.4
X220.65Y-45.45
X220.9Y-39.55
X221.175Y-63.1
X221.225Y-71.8
X221.275Y-67.45
X222.5Y-47.35
X222.5Y-49.05
X223.725Y-76.8
X223.875Y-78.55
X224.281Y-43.569
X226.675Y-39.325
X227.175Y-65.6
X227.875Y-66.45
X228.55Y-43.55
X228.575Y-65.15
X229.3Y-35.8
X229.3Y-37.35
X229.475Y-65.65
X230.3Y-45.55
X230.3Y-47.5
X232.125Y-76.4
X232.125Y-78.35
X235.1Y-73.4
X236.65Y-68.6
X236.75Y-70.7
X236.85Y-66.8
X236.9Y-64.6
T4
X143.4Y-84.5
X144.9Y-53.05
X151.95Y-63.65
X154.8Y-111.2
X157.95Y-51.6
X160.6Y-40.0
X166.225Y-63.675
X170.15Y-63.75
X174.776Y-30.274
X176.05Y-45.8
X180.3Y-51.35
X184.25Y-38.95
X185.552Y-32.852
X188.95Y-30.8
X191.837Y-44.6
X191.9Y-46.385
X192.15Y-41.56
X194.75Y-40.15
X197.5Y-28.0
X199.3Y-35.1
X200.85Y-69.65
X201.625Y-35.175
X201.8Y-51.65
X203.3Y-62.95
X209.0Y-39.1
X209.3Y-41.2
X221.4Y-113.9
X225.651Y-79.552
X226.595Y-82.041
T5
X152.75Y-25.25
X156.25Y-25.25
T6
X189.332Y-88.0
X189.332Y-105.78
X191.873Y-88.0
X191.873Y-105.78
X194.412Y-88.0
X194.412Y-105.78
X196.952Y-88.0
X196.952Y-105.78
X199.492Y-88.0
X199.492Y-105.78
X202.032Y-88.0
X202.032Y-105.78
X204.572Y-88.0
X204.572Y-105.78
X207.112Y-88.0
X207.112Y-105.78
X209.653Y-88.0
X209.653Y-105.78
X212.192Y-88.0
X212.192Y-105.78
X214.732Y-88.0
X214.732Y-105.78
X217.272Y-88.0
X217.272Y-105.78
X219.812Y-88.0
X219.812Y-105.78
X222.352Y-88.0
X222.352Y-105.78
X224.892Y-88.0
X224.892Y-105.78
X227.432Y-88.0
X227.432Y-105.78
X229.972Y-88.0
X229.972Y-105.78
X232.512Y-88.0
X232.512Y-105.78
X235.052Y-88.0
X235.052Y-105.78
X237.593Y-88.0
X237.593Y-105.78
T7
X167.45Y-55.11
X167.45Y-57.65
X169.72Y-30.655
X169.742Y-74.57
X169.742Y-77.11
X169.742Y-79.65
X171.5Y-55.06
X171.5Y-57.6
X172.26Y-30.655
X174.642Y-74.61
X174.642Y-77.15
X174.642Y-79.69
X179.642Y-74.61
X179.642Y-77.15
X179.642Y-79.69
X184.45Y-74.5
X184.45Y-77.04
X184.45Y-79.58
X189.3Y-74.55
X189.3Y-77.09
X189.3Y-79.63
X212.36Y-80.058
X214.9Y-80.058
X217.44Y-80.058
X223.05Y-54.31
X223.05Y-56.85
X227.53Y-54.535
X227.53Y-57.075
X231.96Y-54.53
X231.96Y-57.07
X236.36Y-54.53
X236.36Y-57.07
T8
X143.21Y-30.96
X143.21Y-36.04
X145.75Y-33.5
X148.29Y-30.96
X148.29Y-36.04
X166.64Y-19.615
X166.64Y-24.695
X169.18Y-22.155
X171.72Y-19.615
X171.72Y-24.695
X188.64Y-19.615
X188.64Y-24.695
X191.18Y-22.155
X193.72Y-19.615
X193.72Y-24.695
X206.22Y-19.37
X206.22Y-24.45
X208.76Y-21.91
X211.3Y-19.37
X211.3Y-24.45
X221.11Y-19.66
X221.11Y-24.74
X223.65Y-22.2
X226.19Y-19.66
X226.19Y-24.74
T9
X142.6Y-44.21
X142.6Y-49.29
X142.6Y-59.21
X142.6Y-64.29
X142.65Y-74.11
X142.65Y-79.19
X142.765Y-89.035
X142.765Y-94.115
X147.68Y-44.21
X147.68Y-49.29
X147.68Y-59.21
X147.68Y-64.29
X147.73Y-74.11
X147.73Y-79.19
X147.845Y-89.035
X147.845Y-94.115
X232.91Y-28.61
X232.91Y-33.69
X232.91Y-43.71
X232.91Y-48.79
X237.99Y-28.61
X237.99Y-33.69
X237.99Y-43.71
X237.99Y-48.79
M30
